<svg width="79" height="73" viewBox="0 0 79 73" fill="none" xmlns="http://www.w3.org/2000/svg">
<path d="M33.1655 57.967C33.1655 57.967 32.1469 52.0066 26.4756 51.5524C20.7905 51.0981 19.7856 55.2553 19.0561 57.0172C18.3265 58.7792 18.7395 64.6019 22.5249 65.8959C26.3104 67.1898 31.5963 65.538 33.4959 64.7671L33.1655 57.967Z" fill="#F5D1BE"/>
<path d="M31.335 39.2462C31.5414 39.0948 35.8225 35.681 35.8225 35.681C35.8225 35.681 45.1278 32.7902 52.4923 35.2955C52.4923 35.2955 52.5611 34.1943 51.5975 33.2583C51.5975 33.2583 57.6129 33.3684 61.068 35.268C61.068 35.268 61.8389 34.0842 60.8203 32.6526C60.8203 32.6526 67.3726 33.6024 68.7078 35.0478C68.7078 35.0478 69.2446 34.387 68.7078 32.6526C68.7078 32.6526 71.805 32.3222 73.3054 34.0429C73.3054 34.0429 74.1038 32.6939 73.801 31.9506C73.801 31.9506 77.1322 34.9652 76.4577 39.8381C75.7832 44.7248 75.0536 45.6471 75.3427 46.8171C75.6317 47.9872 77.3524 52.6811 77.6002 53.9062C77.6002 53.9062 73.1127 56.4253 71.1167 52.6674C69.1207 48.9094 66.4227 49.5151 65.2527 49.5013C64.0826 49.4876 61.3846 49.46 59.7328 51.5799C58.081 53.6998 57.0761 57.0998 53.6348 57.4715C50.1934 57.8431 42.7739 57.3063 39.7456 56.0261C36.7172 54.7322 35.4646 53.7548 34.8864 51.7864C34.3083 49.8179 32.4913 43.775 32.4913 43.775L31.335 39.2462Z" fill="#F5D1BE"/>
<path d="M50.7991 54.9937C53.7184 54.9937 56.0849 54.0631 56.0849 52.9151C56.0849 51.7672 53.7184 50.8365 50.7991 50.8365C47.8798 50.8365 45.5132 51.7672 45.5132 52.9151C45.5132 54.0631 47.8798 54.9937 50.7991 54.9937Z" fill="#F5AC89"/>
<path d="M77.545 53.6722C77.3661 53.686 77.1734 53.686 76.9807 53.686C74.4341 53.686 72.3831 52.8738 72.3831 51.8689C72.3831 50.9329 74.2001 50.1483 76.5264 50.0657C76.5539 50.1207 76.5677 50.1758 76.5952 50.2309C77.0495 51.3321 77.3661 52.4884 77.545 53.6722Z" fill="#F5AC89"/>
<path d="M73.2916 34.0567C71.8875 32.9692 70.1806 32.4048 68.4187 32.2947C69.0106 33.0931 69.1895 34.1943 68.8729 35.1441C66.2988 33.8089 63.587 33.0243 60.7238 32.515C61.2469 33.3409 61.4121 34.3733 61.1781 35.3093C58.0534 33.9878 54.6671 33.2858 51.2946 33.038C52.093 33.5061 52.6023 34.4008 52.6161 35.3093C47.0411 33.8364 40.5989 33.7401 35.2305 35.8737C36.6621 34.8551 38.1625 33.9328 39.6904 33.0931C40.5439 32.6251 41.4111 32.1846 42.2921 31.7579C44.2192 30.8356 46.229 30.051 48.28 29.4315C53.6347 27.8072 59.3198 27.2291 64.8947 27.8347C66.3814 27.9999 71.9563 29.1424 72.7823 30.1748C73.0438 30.5052 73.2365 30.8769 73.3742 31.2623C73.6908 32.1846 73.6632 33.2032 73.2916 34.0567Z" fill="#3A302E"/>
<path d="M77.9855 58.091C77.8478 59.4537 77.366 60.7614 76.7603 62.0003C75.0121 65.6068 72.149 68.8004 68.4048 70.2457C67.2072 70.7 65.9683 70.9753 64.7019 71.2093C63.6145 71.402 62.6647 71.636 61.5634 71.7737C55.2039 72.6134 48.6516 72.0215 42.5398 70.0806C40.4887 69.4336 33.4822 65.2076 33.4822 64.9461C33.5097 62.9914 33.6474 60.9541 33.2757 59.0408C33.2757 59.027 33.2757 59.027 33.2757 59.027C32.9729 57.4302 32.849 55.8885 31.8304 54.6221C31.3899 54.0853 30.8668 53.6172 30.3024 53.218C30.2198 53.163 30.1372 53.1079 30.0546 53.0529C27.7421 51.5524 24.6173 51.1257 22.2222 52.4609C22.4562 51.8002 22.7177 51.1395 22.993 50.4925C23.6813 48.8957 24.5072 47.354 25.4433 45.8811C26.3931 44.3945 27.453 43.0042 28.623 41.7102C28.9947 41.2973 29.3664 40.8981 29.7656 40.4989C29.8482 40.4163 29.9307 40.3199 30.0271 40.2373C30.2749 39.9896 30.5364 39.7418 30.798 39.494C30.9081 39.3839 31.0182 39.2875 31.1283 39.1912C31.2522 39.0811 31.3761 38.9709 31.5 38.847C31.8992 42.8665 32.9041 47.0099 34.4182 50.754C34.9826 52.1306 35.6434 53.5209 36.7583 54.512C37.9146 55.5168 39.4288 55.9986 40.9155 56.3703C43.7649 57.0999 46.6831 57.5816 49.6289 57.8157C51.4872 57.9671 53.4694 57.9946 55.1075 57.0861C57.2274 55.916 58.2735 53.4796 59.7602 51.5662C60.2007 51.0156 60.6962 50.4787 61.3019 50.1346C62.0177 49.7354 62.8436 49.6115 63.642 49.5427C64.7432 49.4601 65.8445 49.4876 66.9319 49.6253C67.7991 49.7354 68.6801 49.9281 69.4097 50.3962C70.6898 51.1945 70.6485 53.1079 71.8599 54.0027C72.4931 54.4707 73.3053 54.6359 74.0761 54.7735C74.3514 54.8286 74.613 54.8699 74.8883 54.8836C75.7142 54.9249 76.9118 54.5808 77.5174 54.0164C77.5312 54.044 77.5587 54.0715 77.5725 54.099C78.3021 55.2553 78.1094 56.7557 77.9855 58.091Z" fill="#3A302E"/>
<path d="M64.7434 13.9592C63.3256 13.6563 61.6462 13.1883 59.609 12.8304C56.1952 12.2247 51.7903 11.9632 46.0088 13.381C45.9951 13.381 45.9951 13.381 45.9813 13.3948C41.6177 14.4822 36.4695 16.5333 30.3714 20.1535C30.1649 20.2774 29.9585 20.4013 29.7382 20.5252C29.573 20.6216 29.4079 20.7317 29.2427 20.828C24.6863 23.6912 21.3138 27.2978 18.8361 31.0557C18.8223 31.0694 18.8223 31.0832 18.8086 31.097C16.1243 35.1577 14.4587 39.3975 13.4401 43.0315C12.7381 45.523 12.3389 47.7392 12.1048 49.4324C11.8158 51.5385 11.802 52.8186 11.802 52.8186C11.802 52.8186 10.632 51.3871 8.93883 49.1984C7.23193 47.0234 6.4886 40.2234 6.4886 40.2234C3.06103 39.3837 0.486918 35.4743 0.266673 31.8403C0.0464282 28.2063 1.01 26.2791 3.33634 21.4475C5.66268 16.6159 15.0506 8.46679 15.0506 8.46679C15.0506 8.46679 26.2005 -0.700908 38.4241 1.39142C50.5376 3.49751 64.5232 13.8077 64.7434 13.9592Z" fill="#8090B2"/>
<path d="M75.4526 34.0015C75.2324 33.5748 74.9846 33.1618 74.7093 32.7764C74.3101 32.2396 73.8696 31.744 73.3878 31.3035C73.2502 30.9043 73.0575 30.5464 72.7959 30.2161C71.9838 29.1837 66.4088 28.0411 64.9084 27.876C59.3335 27.2703 53.6484 27.8484 48.2937 29.4727C46.2426 30.0922 44.2329 30.8768 42.3058 31.7991C41.4248 32.212 40.5713 32.6663 39.7041 33.1343C38.1762 33.974 36.6757 34.8963 35.2442 35.9149C34.9688 36.1076 34.6798 36.3141 34.4045 36.5206C33.3996 37.2639 32.436 38.0348 31.5138 38.8607C31.3899 38.9708 31.266 39.0809 31.1421 39.2048C31.032 39.3012 30.9218 39.4113 30.8117 39.5077C30.5502 39.7554 30.2886 39.9894 30.0409 40.251C29.9583 40.3336 29.8757 40.4162 29.7793 40.5125C29.3939 40.9117 29.0085 41.3109 28.6368 41.7239C27.4667 43.0316 26.3931 44.4219 25.457 45.8948C24.521 47.3676 23.695 48.9094 23.0068 50.5061C22.7315 51.1531 22.4699 51.8138 22.2359 52.4746C22.1671 52.5159 22.112 52.5434 22.057 52.5847C19.6756 54.0301 18.5468 57.0034 18.6707 59.7977C18.7258 61.0779 19.0148 62.3581 19.6343 63.4868C19.8683 63.8998 20.1436 64.299 20.4602 64.6569C15.6423 64.6569 13.784 60.7751 13.2334 59.2609C12.0634 55.9572 11.788 52.6948 12.1047 49.4737C12.3387 47.7806 12.7379 45.5644 13.4399 43.0729C14.1557 40.7603 15.078 38.489 16.0828 36.259C16.8812 34.4971 17.7897 32.7764 18.8221 31.1383C18.8221 31.1246 18.8359 31.1108 18.8497 31.097C21.3412 27.3391 24.6999 23.7326 29.2562 20.8694C29.4214 20.7593 29.5866 20.6629 29.7518 20.5666C36.1251 16.7123 41.4798 14.5511 45.9949 13.4224C46.0086 13.4224 46.0086 13.4224 46.0224 13.4086C50.4686 12.4313 55.1075 12.2248 59.6225 12.858C61.6598 13.2159 63.3392 13.6839 64.757 13.9868C68.2396 15.088 71.6534 16.726 73.8421 19.603C77.3936 24.3107 78.4672 30.2711 75.4526 34.0015Z" fill="#BAC6DE"/>
<path d="M65.528 24.3246C66.2025 22.2185 66.3539 19.4517 65.5004 17.1254C61.6324 15.914 57.4477 15.7075 53.4833 16.5335C52.74 18.9149 53.6485 23.0995 54.4882 24.1457C57.8056 25.0955 62.1004 24.7376 65.528 24.3246Z" fill="#17191C"/>
<path d="M62.2105 19.4241C62.1142 19.3828 62.0041 19.3553 61.8939 19.314C61.9215 19.2039 61.949 19.0938 61.9628 18.9836C62.0591 18.3367 61.9352 17.8962 61.6324 17.7172C61.3296 17.5383 60.8753 17.6622 60.366 18.0751C60.2834 18.144 60.2008 18.2266 60.1182 18.2954C60.0356 18.2128 59.9393 18.144 59.8567 18.0751C59.3474 17.6759 58.8931 17.5521 58.5903 17.731C58.2737 17.91 58.1635 18.3642 58.2737 19.0112C58.2874 19.1213 58.315 19.2314 58.3425 19.3415C58.2324 19.3691 58.1222 19.4104 58.0259 19.4517C57.4202 19.6857 57.0898 20.016 57.0898 20.3739C57.0898 20.7318 57.4202 21.0622 58.0259 21.2962C58.1222 21.3375 58.2324 21.365 58.3425 21.4063C58.315 21.5165 58.2874 21.6266 58.2737 21.7367C58.1773 22.3837 58.3012 22.8242 58.604 23.0031C58.7004 23.0582 58.7967 23.0857 58.9206 23.0857C59.1959 23.0857 59.5125 22.9343 59.8704 22.6452C59.953 22.5764 60.0356 22.4938 60.1182 22.425C60.2008 22.5076 60.2972 22.5764 60.3797 22.6452C60.7376 22.9343 61.068 23.0719 61.3296 23.0719C61.4397 23.0719 61.5498 23.0444 61.6462 22.9894C61.9628 22.8104 62.0729 22.3562 61.9628 21.7092C61.949 21.5991 61.9215 21.4889 61.8939 21.3788C62.0041 21.3513 62.1142 21.31 62.2105 21.2687C62.8162 21.0347 63.1466 20.7043 63.1466 20.3464C63.1466 19.9747 62.8162 19.6444 62.2105 19.4241ZM60.5174 18.2679C60.9304 17.9375 61.2745 17.8136 61.481 17.9375C61.6875 18.0614 61.77 18.4193 61.6875 18.9424C61.6737 19.0387 61.6462 19.1488 61.6324 19.2452C61.3709 19.1901 61.0956 19.1488 60.8065 19.1213C60.6413 18.8873 60.4623 18.667 60.2834 18.4743C60.366 18.4055 60.4348 18.3367 60.5174 18.2679ZM60.9717 20.842C60.8753 21.0071 60.7789 21.1723 60.6688 21.3238C60.4899 21.3375 60.2972 21.3513 60.1044 21.3513C59.9117 21.3513 59.719 21.3513 59.5401 21.3375C59.4299 21.1861 59.3336 21.0209 59.2372 20.8557C59.1409 20.6905 59.0583 20.5254 58.9757 20.3602C59.0583 20.195 59.1409 20.0298 59.2372 19.8646C59.3336 19.6994 59.4299 19.5343 59.5401 19.3828C59.719 19.3691 59.9117 19.3553 60.1044 19.3553C60.2972 19.3553 60.4899 19.3553 60.6688 19.3691C60.7789 19.5205 60.8753 19.6857 60.9717 19.8509C61.068 20.016 61.1506 20.1812 61.2332 20.3464C61.1506 20.5116 61.068 20.6768 60.9717 20.842ZM61.3709 20.6493C61.4534 20.8282 61.5085 21.0071 61.5636 21.1861C61.3846 21.2274 61.2057 21.2687 61.013 21.2825C61.0818 21.1861 61.1368 21.076 61.2057 20.9659C61.2745 20.8557 61.3158 20.7594 61.3709 20.6493ZM60.1182 22.0395C59.9943 21.9019 59.8704 21.7642 59.7465 21.6128C59.8704 21.6128 59.9943 21.6266 60.1044 21.6266C60.2283 21.6266 60.3522 21.6266 60.4623 21.6128C60.366 21.7642 60.2421 21.9019 60.1182 22.0395ZM59.2097 21.2962C59.017 21.2687 58.8243 21.2412 58.6591 21.1999C58.7141 21.0209 58.7692 20.842 58.8518 20.663C58.9069 20.7731 58.9619 20.8833 59.0308 20.9796C59.072 21.0897 59.1409 21.1999 59.2097 21.2962ZM58.838 20.0436C58.7554 19.8646 58.7004 19.6857 58.6453 19.5067C58.8243 19.4654 59.0032 19.4241 59.1959 19.4104C59.1271 19.5067 59.072 19.6169 59.0032 19.727C58.9344 19.8371 58.8931 19.9335 58.838 20.0436ZM60.1044 18.667C60.2283 18.8047 60.3522 18.9424 60.4761 19.0938C60.3522 19.0938 60.2283 19.08 60.1182 19.08C59.9943 19.08 59.8704 19.08 59.7603 19.0938C59.8567 18.9424 59.9806 18.7909 60.1044 18.667ZM61.1919 19.7132C61.1231 19.6031 61.068 19.5067 60.9992 19.3966C61.1919 19.4241 61.3846 19.4517 61.5498 19.493C61.4947 19.6719 61.4397 19.8509 61.3571 20.0298C61.3158 19.9335 61.2607 19.8233 61.1919 19.7132ZM58.5077 18.9561C58.4251 18.433 58.4939 18.0751 58.7004 17.9512C58.7554 17.9237 58.8105 17.91 58.8793 17.91C59.0858 17.91 59.3611 18.0338 59.664 18.2816C59.7465 18.3504 59.8291 18.4193 59.898 18.4881C59.719 18.6808 59.5401 18.9011 59.3749 19.1351C59.0858 19.1626 58.8105 19.2039 58.549 19.2727C58.549 19.1488 58.5214 19.0525 58.5077 18.9561ZM58.0947 21.0347C57.5992 20.842 57.3238 20.608 57.3238 20.3602C57.3238 20.1124 57.5992 19.8784 58.0947 19.6857C58.1911 19.6444 58.2874 19.6169 58.3975 19.5893C58.4801 19.8371 58.5765 20.0986 58.7004 20.3602C58.5765 20.6217 58.4801 20.8833 58.4113 21.131C58.2874 21.1035 58.1911 21.076 58.0947 21.0347ZM59.6915 22.4387C59.2785 22.7691 58.9344 22.893 58.7279 22.7691C58.5214 22.6452 58.4388 22.2873 58.5214 21.7642C58.5352 21.6679 58.5627 21.5578 58.5765 21.4614C58.838 21.5165 59.1133 21.5578 59.4024 21.5853C59.5676 21.8193 59.7465 22.0395 59.9255 22.2323C59.8567 22.3011 59.7741 22.3699 59.6915 22.4387ZM61.7012 21.7505C61.7838 22.2736 61.715 22.6315 61.5085 22.7553C61.302 22.8792 60.9441 22.7553 60.5312 22.425C60.4486 22.3562 60.366 22.2873 60.2972 22.2185C60.4761 22.0258 60.6551 21.8055 60.8202 21.5715C61.1093 21.544 61.3846 21.5027 61.6462 21.4339C61.6737 21.544 61.6875 21.6541 61.7012 21.7505ZM62.1279 21.0209C62.0316 21.0622 61.9352 21.0897 61.8251 21.1173C61.7425 20.8695 61.6462 20.608 61.5223 20.3464C61.6462 20.0849 61.7425 19.8233 61.8113 19.5756C61.9215 19.6031 62.0178 19.6444 62.1142 19.6719C62.6097 19.8646 62.885 20.0986 62.885 20.3464C62.885 20.5942 62.6097 20.8282 62.1279 21.0209Z" fill="#5ED3F3"/>
<path d="M60.1262 20.8977C60.4302 20.8869 60.6678 20.6318 60.657 20.3278C60.6462 20.0239 60.3911 19.7863 60.0871 19.7971C59.7832 19.8079 59.5456 20.063 59.5564 20.3669C59.5672 20.6708 59.8223 20.9085 60.1262 20.8977Z" fill="#5ED3F3"/>
<path d="M6.57109 40.4988C6.07554 40.3474 5.60752 40.1685 5.15326 39.9345C4.69901 39.7005 4.27228 39.4251 3.85932 39.1223C3.04717 38.5029 2.33137 37.7595 1.76699 36.9199C1.18885 36.0802 0.762127 35.1441 0.473056 34.1668C0.183984 33.1895 0.0463295 32.1846 0.00503349 31.166C-0.0500278 29.1425 0.349167 27.1189 1.07873 25.2331C1.43663 24.2971 1.87712 23.3885 2.37267 22.5076C2.86822 21.6266 3.40507 20.7869 3.96945 19.961C5.12573 18.3229 6.37838 16.7674 7.67232 15.2532C8.98002 13.7391 10.3428 12.2799 11.7881 10.9034C14.6789 8.13658 17.9137 5.70012 21.4927 3.88309C22.3874 3.4426 23.3097 3.01588 24.2458 2.65798C24.7138 2.46527 25.1956 2.31385 25.6636 2.1349C25.8976 2.05231 26.1454 1.98348 26.3794 1.90089C26.6272 1.83206 26.8612 1.74947 27.1089 1.68064C29.0499 1.1438 31.0458 0.772131 33.0556 0.675774C35.0653 0.565652 37.1026 0.71707 39.0848 1.11626C41.067 1.51546 42.9804 2.12113 44.8662 2.8094C48.6241 4.18593 52.2444 5.9066 55.7546 7.79244C59.2647 9.67829 62.6785 11.7431 66.0786 13.8079C66.3126 13.9455 66.3952 14.2621 66.2438 14.4962C66.0923 14.7302 65.7895 14.8128 65.5555 14.6613C62.1692 12.5828 58.783 10.518 55.3003 8.61836C51.8177 6.71875 48.2525 4.99808 44.5496 3.62155C42.7051 2.91952 40.8192 2.32761 38.9058 1.92842C36.9925 1.52922 35.0378 1.36404 33.0693 1.4604C31.1147 1.54299 29.1737 1.88712 27.2741 2.39644C27.0401 2.4515 26.8061 2.53409 26.5721 2.60292C26.3381 2.67175 26.1041 2.74057 25.8701 2.82316C25.4021 2.98835 24.934 3.13977 24.4798 3.31871C23.5575 3.66285 22.6627 4.07581 21.7818 4.50253C18.2578 6.26449 15.0643 8.64589 12.2011 11.3577C10.7557 12.7067 9.40675 14.152 8.09904 15.6387C6.8051 17.1391 5.53869 18.667 4.40994 20.2776C3.84556 21.076 3.30871 21.9157 2.82692 22.7691C2.34514 23.6226 1.90465 24.5035 1.56052 25.4258C0.844719 27.2428 0.445524 29.1975 0.48682 31.1522C0.51435 32.1295 0.652004 33.0931 0.913545 34.0291C1.18885 34.9652 1.58805 35.8599 2.13866 36.6583C3.22612 38.2551 4.83666 39.5353 6.69498 40.0859C6.8051 40.1134 6.87393 40.2373 6.83263 40.3474C6.8051 40.4713 6.68121 40.5264 6.57109 40.4988Z" fill="black"/>
<path d="M11.7056 53.3969C11.2788 53.0666 10.8934 52.7087 10.5218 52.337C10.1639 51.9516 9.83348 51.5386 9.53065 51.1119C9.22781 50.6852 8.96627 50.2309 8.7185 49.7767C8.47072 49.3224 8.25047 48.8544 8.05776 48.3726C7.86505 47.8908 7.6861 47.409 7.52091 46.9272C7.36949 46.4455 7.21808 45.9499 7.09419 45.4544C6.84641 44.4633 6.63993 43.4584 6.51605 42.4535C6.2545 40.43 6.21321 38.379 6.41969 36.3555C6.62617 34.332 7.06666 32.336 7.72739 30.4226C7.76869 30.3125 7.87881 30.2574 7.98893 30.2987C8.09906 30.34 8.15412 30.4502 8.11282 30.5603C7.50715 32.4599 7.12172 34.4283 6.9703 36.4105C6.81888 38.3927 6.90147 40.3887 7.20431 42.3572C7.35573 43.3345 7.56221 44.3118 7.83752 45.2616C8.09906 46.2114 8.42942 47.1475 8.82862 48.0422C9.0351 48.4965 9.25534 48.9232 9.48935 49.3499C9.73713 49.7767 9.99867 50.1759 10.274 50.5751C10.563 50.9605 10.8659 51.3321 11.21 51.6763C11.5542 52.0204 11.912 52.3233 12.2975 52.5986C12.5177 52.7637 12.5728 53.0666 12.4076 53.2868C12.2424 53.5071 11.9396 53.5621 11.7056 53.3969Z" fill="black"/>
<path d="M20.4328 65.1249C15.1882 65.1249 13.2197 60.7338 12.7517 59.3986C9.77841 50.9879 12.5315 42.8664 15.6149 36.0388C17.8724 31.042 20.7356 26.9812 24.1219 23.9942C26.517 21.8743 29.215 20.2362 31.7754 18.7771C34.322 17.3318 37.7358 15.4872 41.4249 14.1933C47.399 12.1009 53.8687 11.4815 60.1319 12.4175C64.3992 13.0507 70.3045 14.7714 74.2139 19.2727C75.9758 21.3099 77.1459 23.9116 77.5038 26.5958C77.8754 29.4315 77.2973 32.157 75.8657 34.2906C75.7143 34.5246 75.3977 34.5797 75.1774 34.4283C74.9434 34.2769 74.8884 33.9603 75.0398 33.74C77.6277 29.8995 76.9532 23.9529 73.4568 19.9334C69.7539 15.6524 64.0826 14.0281 59.9805 13.4086C53.8687 12.5001 47.578 13.092 41.7552 15.1431C38.135 16.4095 34.79 18.2127 32.2709 19.6443C29.7519 21.0759 27.1089 22.6865 24.7826 24.7375C21.4927 27.642 18.7259 31.5789 16.5234 36.4518C13.5226 43.1004 10.8383 51.0017 13.7015 59.082C14.2384 60.6099 15.9728 64.1476 20.4465 64.1476C20.7218 64.1476 20.9421 64.3678 20.9421 64.6431C20.9421 64.9047 20.7218 65.1249 20.4328 65.1249C20.4465 65.1249 20.4328 65.1249 20.4328 65.1249Z" fill="black"/>
<path d="M59.5677 24.889C57.7507 24.889 56.0025 24.7238 54.447 24.2833C54.4194 24.2695 54.3919 24.2558 54.3781 24.2282C53.566 23.1958 52.5887 18.9561 53.3595 16.4784C53.3733 16.4233 53.4146 16.3958 53.4696 16.382C57.4753 15.5423 61.66 15.7626 65.5556 16.9877C65.5969 17.0015 65.6244 17.029 65.6519 17.0703C66.5742 19.6031 66.2714 22.4938 65.6795 24.3659C65.6657 24.421 65.6107 24.4623 65.5556 24.4623C63.6284 24.6963 61.5636 24.889 59.5677 24.889ZM54.5709 24.0218C57.7506 24.9303 61.8252 24.6137 65.4179 24.2007C65.9823 22.3975 66.2576 19.6582 65.3904 17.2492C61.5774 16.0654 57.5029 15.8589 53.5935 16.6573C52.9053 19.025 53.8 22.9756 54.5709 24.0218Z" fill="black"/>
<path d="M77.5999 54.622C77.3521 54.622 77.1318 54.4293 77.1043 54.1678C77.0905 54.0164 77.0768 53.8787 77.0493 53.7411C76.8841 52.5985 76.5812 51.4836 76.1407 50.4099L76.1132 50.3548C76.0994 50.3273 76.0857 50.2997 76.0719 50.2722V50.2584C75.9618 49.9969 75.8379 49.7354 75.714 49.4738C75.4525 48.8957 75.1634 48.29 74.9707 47.6568C74.6816 46.7208 74.8881 46.005 75.1221 45.2341C75.1772 45.0689 75.2185 44.9037 75.2735 44.7248C75.893 42.3709 76.1407 40.5677 76.0994 38.8608C76.0582 37.2915 75.714 35.0202 74.2962 33.0793C73.9796 32.6388 73.6079 32.2259 73.2087 31.8404C73.016 31.6477 73.0023 31.3311 73.195 31.1384C73.3877 30.9457 73.7043 30.9319 73.897 31.1247C74.3375 31.5514 74.7367 32.0056 75.0946 32.5012C76.6638 34.6486 77.0355 37.1401 77.0768 38.847C77.1181 40.6503 76.8565 42.5361 76.2096 44.9863C76.1545 45.179 76.1132 45.358 76.0582 45.5369C75.8517 46.2252 75.7002 46.7345 75.9067 47.3815C76.0857 47.9596 76.3335 48.4965 76.595 49.0746C76.7189 49.3362 76.8428 49.6115 76.9529 49.873C76.9667 49.9143 76.9804 49.9418 76.9942 49.9831L77.0217 50.0382C77.5035 51.1945 77.8339 52.3921 77.9991 53.6172C78.0266 53.7686 78.0404 53.9338 78.0541 54.099C78.0817 54.3743 77.8752 54.622 77.6136 54.6358C77.6274 54.622 77.6136 54.622 77.5999 54.622Z" fill="black"/>
<path d="M22.236 52.9565C21.9607 52.9565 21.7405 52.7363 21.7405 52.461C21.7405 52.3921 21.7542 52.3233 21.7818 52.2683C22.0158 51.6075 22.2773 50.933 22.5526 50.2998C23.2409 48.6893 24.0806 47.12 25.0304 45.6196C25.9664 44.1605 27.0539 42.7289 28.2652 41.3799C29.9446 39.5078 31.913 37.7321 34.1017 36.1215C34.3633 35.9288 34.6386 35.7223 34.9414 35.5159C35.1617 35.3644 35.4783 35.4057 35.6297 35.6398C35.7811 35.86 35.7398 36.1766 35.5058 36.328C35.203 36.5345 34.9414 36.7272 34.6799 36.9199C32.5463 38.5029 30.6329 40.2236 28.9948 42.0544C27.8247 43.3621 26.7648 44.7524 25.8563 46.1702C24.934 47.6293 24.1219 49.1573 23.4474 50.7128C23.1721 51.346 22.9243 51.9929 22.6903 52.6537C22.6352 52.8189 22.4425 52.9565 22.236 52.9565Z" fill="black"/>
<path d="M35.2443 36.3968C35.1204 36.3968 34.9828 36.3417 34.8864 36.2454C34.7075 36.0664 34.6937 35.8049 34.8314 35.5984C34.8727 35.5433 34.9277 35.502 34.9828 35.4607C36.3731 34.4834 37.8735 33.5474 39.4565 32.6801C40.2962 32.2259 41.1772 31.7716 42.0719 31.3311C44.0128 30.3951 46.0639 29.6105 48.1287 28.9773C53.5797 27.3254 59.4025 26.761 64.9361 27.3667C65.06 27.3805 65.1977 27.3943 65.3491 27.408C67.0697 27.5732 70.6625 27.9311 73.0714 29.8032C74.3378 30.7943 74.3654 32.7903 73.7321 34.2494C73.6771 34.387 73.5532 34.4972 73.4018 34.5385C73.2504 34.5798 73.0989 34.5385 72.9751 34.4559C71.9289 33.6437 70.6763 33.1206 69.286 32.9004C69.575 33.6712 69.5888 34.5247 69.3272 35.3093C69.286 35.447 69.1758 35.5571 69.0382 35.6121C68.9005 35.6672 68.7491 35.6534 68.6252 35.5984C66.5604 34.5247 64.2479 33.7401 61.5636 33.2032C61.7976 33.9328 61.8252 34.7174 61.6462 35.4607C61.6049 35.5984 61.5085 35.7223 61.3847 35.7773C61.2608 35.8462 61.1094 35.8462 60.9717 35.7911C58.4526 34.7174 55.6445 34.0154 52.6024 33.685C52.919 34.1806 53.0979 34.7587 53.0979 35.3368C53.0979 35.4883 53.0291 35.6397 52.9052 35.736C52.7813 35.8324 52.6162 35.8599 52.4785 35.8186C46.4906 34.2356 40.2687 34.4283 35.4233 36.3692C35.3682 36.3968 35.3132 36.4105 35.2443 36.4105C35.2443 36.3968 35.2443 36.3968 35.2443 36.3968ZM44.4671 33.7676C46.9311 33.7676 49.4777 34.0704 51.9967 34.6761C51.8315 34.1943 51.4874 33.7538 51.0331 33.4923C50.8404 33.3822 50.7441 33.1344 50.8129 32.9141C50.8817 32.6939 51.0882 32.5563 51.3222 32.57C54.7635 32.8178 57.9433 33.5061 60.779 34.6348C60.8065 33.9878 60.6413 33.3409 60.2972 32.804C60.1871 32.6388 60.1871 32.4186 60.2972 32.2672C60.4073 32.102 60.6 32.0194 60.7928 32.0469C63.7248 32.5562 66.2438 33.3409 68.5013 34.4283C68.5564 33.7951 68.3774 33.1206 68.0058 32.6113C67.8957 32.4599 67.8681 32.2534 67.9645 32.0745C68.0608 31.9093 68.2398 31.7992 68.4325 31.8129C70.1394 31.9093 71.7086 32.4048 73.0301 33.272C73.2779 32.2809 73.1815 31.1522 72.4657 30.6016C70.2908 28.8947 66.8908 28.5643 65.2665 28.4129C65.1151 28.3991 64.9636 28.3854 64.8398 28.3716C59.43 27.7797 53.7449 28.3303 48.4177 29.9546C46.3942 30.574 44.3983 31.3449 42.4986 32.2534C41.6177 32.6801 40.7505 33.1206 39.9245 33.5749C39.429 33.8502 38.9472 34.1255 38.4654 34.4146C40.3788 33.9741 42.4023 33.7676 44.4671 33.7676Z" fill="black"/>
<path d="M21.2176 57.9944C22.0435 57.5539 22.9933 57.3337 23.9569 57.2924C24.9205 57.2511 25.884 57.4163 26.7788 57.7329C27.6873 58.0495 28.527 58.5037 29.2703 59.0819C30.0136 59.6463 30.6744 60.307 31.2112 61.0641C31.28 61.1604 31.2525 61.2843 31.1699 61.3394C31.1011 61.3945 31.0047 61.3945 30.9359 61.3394C30.1788 60.8438 29.4492 60.3621 28.6921 59.9491C27.9351 59.5361 27.1642 59.192 26.3658 58.9305C25.5674 58.6689 24.7553 58.5175 23.9156 58.4487C23.0759 58.3798 22.2362 58.4074 21.3415 58.4762C21.2038 58.49 21.0799 58.3798 21.0662 58.2422C21.0662 58.1321 21.1212 58.0357 21.2176 57.9944Z" fill="black"/>
<path d="M51.0606 48.7443C51.5286 48.6066 51.9966 48.524 52.4784 48.469C52.9602 48.4001 53.442 48.3726 53.91 48.3588C54.3918 48.3451 54.8736 48.3588 55.3554 48.4139C55.8371 48.469 56.3189 48.5378 56.7732 48.6755C56.8833 48.703 56.9384 48.8269 56.9108 48.9232C56.8833 49.0196 56.8007 49.0746 56.7044 49.0609C56.2363 49.0333 55.7821 49.0196 55.3141 49.0196C54.846 49.0196 54.3918 49.0333 53.9238 49.0471C53.0015 49.0884 52.0792 49.171 51.1569 49.2536C51.0055 49.2674 50.8679 49.1572 50.8541 49.0058C50.8403 48.9095 50.9367 48.7856 51.0606 48.7443Z" fill="black"/>
<path d="M73.6083 49.7904C73.1265 49.6802 72.6447 49.5839 72.1492 49.5013C71.6536 49.4187 71.1581 49.3636 70.6625 49.281C70.5386 49.2673 70.456 49.1434 70.4836 49.0333C70.4973 48.9369 70.5799 48.8543 70.6763 48.8406C70.9378 48.813 71.1994 48.813 71.4609 48.8268C71.7225 48.8406 71.984 48.8819 72.2455 48.9231C72.5071 48.9782 72.7686 49.0333 73.0164 49.1296C73.2642 49.2122 73.5119 49.3223 73.746 49.4738C73.8148 49.5288 73.8423 49.6252 73.7873 49.694C73.746 49.7766 73.6771 49.8041 73.6083 49.7904Z" fill="black"/>
<path d="M69.5751 37.8284C70.1119 37.7871 70.6626 37.8284 71.1856 37.9248C71.7225 38.0212 72.2456 38.1863 72.7274 38.4204C73.2229 38.6406 73.6909 38.9297 74.1039 39.26C74.5168 39.5904 74.9023 39.9896 75.1913 40.4301C75.2602 40.5264 75.2326 40.6503 75.1363 40.7054C75.0675 40.7467 74.9711 40.7467 74.916 40.7054C74.5031 40.4163 74.0901 40.1686 73.6634 39.9345C73.2367 39.7143 72.7962 39.5078 72.3557 39.3564C71.9152 39.1912 71.4472 39.0673 70.9929 38.971C70.5249 38.8746 70.0569 38.8196 69.5751 38.7645C69.3136 38.737 69.1208 38.5029 69.1484 38.2414C69.1621 38.0212 69.3548 37.8422 69.5751 37.8284Z" fill="black"/>
<path d="M58.315 39.0672C57.5028 39.0947 56.7045 39.136 55.9061 39.2049C55.1077 39.2737 54.3093 39.37 53.5109 39.5077C53.1117 39.5765 52.7125 39.6454 52.3133 39.7279C51.9141 39.8105 51.5149 39.9069 51.1295 40.0033C50.3449 40.196 49.5603 40.43 48.7619 40.664C48.6242 40.7053 48.4866 40.6227 48.4453 40.4988C48.4177 40.3887 48.459 40.2786 48.5416 40.2097C49.2437 39.7279 50.0145 39.3425 50.7991 39.0121C50.9918 38.9296 51.1983 38.847 51.391 38.7781C51.5975 38.7093 51.7902 38.6267 51.9967 38.5717C52.2032 38.5028 52.4097 38.4478 52.6162 38.3927C52.8226 38.3376 53.0291 38.2826 53.2356 38.2413C54.0753 38.0486 54.915 37.9109 55.7822 37.8559C56.6356 37.787 57.5028 37.787 58.3563 37.8834C58.6867 37.9247 58.9207 38.2138 58.8931 38.5441C58.8656 38.8194 58.6041 39.0534 58.315 39.0672Z" fill="black"/>
<path d="M55.9059 72.6409C51.3358 72.6409 46.752 71.9388 42.4022 70.5623C40.2272 69.874 34.9689 67.9744 33.083 65.2351C32.9316 65.0149 32.9867 64.6983 33.2069 64.5469C33.4272 64.3954 33.7438 64.4505 33.8952 64.6708C35.6571 67.2311 41.0669 69.1032 42.6912 69.6125C48.7204 71.5259 55.2177 72.104 61.4947 71.2919C62.1967 71.1955 62.8161 71.0716 63.4906 70.9477C63.8485 70.8789 64.2202 70.7963 64.6056 70.7275C65.6931 70.5348 66.987 70.2595 68.2121 69.7914C71.5296 68.5113 74.4065 65.6618 76.2924 61.7938C76.9944 60.3622 77.3661 59.1784 77.4762 58.0496L77.4899 57.8431C77.6001 56.7695 77.7102 55.6545 77.3523 54.7735C76.5814 55.2277 75.5628 55.4342 74.8608 55.3929C74.5579 55.3792 74.2689 55.3241 73.9798 55.269C73.1952 55.1176 72.2867 54.9524 71.5571 54.4018C70.8688 53.8925 70.5385 53.1492 70.2219 52.4196C69.9328 51.7589 69.6575 51.1394 69.1344 50.8091C68.4186 50.3548 67.5376 50.2034 66.8494 50.107C65.8032 49.9694 64.7295 49.9419 63.6696 50.0245C62.9813 50.0795 62.1967 50.1759 61.5359 50.5475C60.944 50.8779 60.476 51.4147 60.1456 51.8552C59.7189 52.4058 59.306 53.0115 58.9205 53.6034C57.9432 55.0763 56.9383 56.6043 55.3416 57.499C53.6071 58.4626 51.5423 58.4488 49.5877 58.2974C46.6281 58.0634 43.6686 57.5678 40.7916 56.8383C39.3463 56.4804 37.7082 55.9848 36.428 54.8698C35.2442 53.8237 34.5422 52.3646 33.964 50.933C32.4085 47.0787 31.4174 43.0317 31.032 38.8883C31.0045 38.613 31.211 38.379 31.4863 38.3515C31.7616 38.3239 31.9956 38.5304 32.0231 38.8057C32.4085 42.8527 33.3721 46.8171 34.9001 50.5751C35.4369 51.8965 36.0701 53.2318 37.1025 54.1403C38.2037 55.1176 39.7179 55.5581 41.0532 55.8885C43.875 56.6043 46.7795 57.0861 49.684 57.3201C51.4873 57.4577 53.3731 57.4853 54.8873 56.6456C56.2776 55.8747 57.1723 54.5119 58.1221 53.0804C58.5213 52.4747 58.9343 51.8415 59.4023 51.2633C59.8015 50.754 60.3521 50.1346 61.0955 49.7078C61.9351 49.2398 62.8987 49.1159 63.642 49.0609C64.7708 48.9783 65.9133 49.0058 67.0283 49.1572C67.8129 49.2674 68.8316 49.4463 69.7125 49.9969C70.4972 50.4925 70.8413 51.2909 71.1854 52.048C71.4607 52.6812 71.7223 53.2731 72.2041 53.631C72.7547 54.0439 73.5393 54.1953 74.2138 54.3192C74.4753 54.3743 74.7231 54.4156 74.9571 54.4294C75.7142 54.4706 76.7466 54.1403 77.2284 53.6998C77.3385 53.6034 77.4762 53.5621 77.6138 53.5759C77.7515 53.5897 77.8891 53.6723 77.9717 53.7824C78.8114 55.0075 78.66 56.5767 78.5223 57.967L78.5086 58.1735C78.3847 59.4262 77.9855 60.7201 77.2284 62.2618C75.2324 66.3639 72.1765 69.3785 68.6113 70.755C67.3036 71.2643 65.9684 71.5396 64.8259 71.7461C64.4404 71.8149 64.0825 71.8838 63.7246 71.9526C63.0364 72.0903 62.3894 72.2141 61.6598 72.3105C59.7327 72.517 57.8193 72.6409 55.9059 72.6409Z" fill="black"/>
<path d="M26.104 67.052C25.7048 67.052 25.3057 67.0382 24.8927 67.0107C24.2457 66.9694 23.406 66.9006 22.5939 66.6253C22.4425 66.584 22.3186 66.5289 22.1947 66.4739C21.4101 66.1573 20.6805 65.6204 20.0748 64.9459C19.7307 64.5743 19.4279 64.1475 19.1801 63.6933C18.5606 62.5783 18.2165 61.2568 18.1615 59.7839C18.0238 56.5628 19.4554 53.562 21.7955 52.1304C21.8643 52.0891 21.9332 52.0478 22.002 52.0065C22.0157 52.0065 22.0157 51.9927 22.0295 51.9927C24.4522 50.6437 27.7146 50.8915 30.3575 52.6122C31.032 53.0527 31.6652 53.6033 32.2434 54.2778C33.9365 56.2325 34.0742 60.8438 34.0191 64.6568V64.9321C34.0191 65.1249 33.8952 65.3038 33.7163 65.3864C30.977 66.5427 28.6506 67.052 26.104 67.052ZM22.4562 52.9013C22.4012 52.9288 22.3599 52.9563 22.3186 52.9839C20.2813 54.2227 19.0424 56.8794 19.1663 59.7426C19.2214 61.0641 19.5242 62.2341 20.0611 63.2115C20.2813 63.5969 20.5291 63.9686 20.8182 64.2852C21.3275 64.8496 21.9332 65.29 22.5801 65.5516C22.6765 65.5929 22.7728 65.6342 22.8967 65.6617C23.5988 65.8957 24.3696 65.9645 24.9478 65.9921C27.7696 66.1573 30.1235 65.7581 33.0005 64.588C33.028 62.6058 33.1106 56.8106 31.4725 54.9248C30.9632 54.3329 30.3988 53.8373 29.7932 53.4519C27.4806 51.9515 24.5486 51.7174 22.47 52.8737C22.47 52.9013 22.4562 52.9013 22.4562 52.9013Z" fill="black"/>
<path d="M73.8699 24.8202C73.98 25.7287 73.9249 26.6648 73.746 27.5595C73.567 28.468 73.2642 29.3352 72.8925 30.1749C72.8237 30.3126 72.6585 30.3814 72.5209 30.3126C72.3832 30.2437 72.3144 30.0786 72.3832 29.9409C72.3832 29.9409 72.3832 29.9271 72.397 29.9271C72.8099 29.1425 73.1403 28.3166 73.3605 27.4631C73.5808 26.6097 73.6909 25.715 73.6358 24.834C73.6358 24.7651 73.6771 24.7101 73.746 24.7101C73.8148 24.7101 73.8699 24.7514 73.8699 24.8202Z" fill="black"/>
<path d="M70.1943 20.9245C70.4421 21.5577 70.5797 22.246 70.6348 22.9205C70.6899 23.595 70.6486 24.2832 70.5522 24.9715C70.3457 26.3205 69.9052 27.6282 69.4097 28.8808C69.3546 29.0323 69.1894 29.1011 69.038 29.0323C68.8866 28.9772 68.8178 28.812 68.8728 28.6606C68.8728 28.6606 68.8728 28.6606 68.8728 28.6468C69.4097 27.4355 69.9052 26.1966 70.153 24.8889C70.2769 24.2419 70.332 23.5812 70.3182 22.9205C70.2907 22.2597 70.1943 21.6127 69.9741 20.9795C69.9465 20.9245 69.9878 20.8557 70.0429 20.8281C70.098 20.8281 70.1668 20.8557 70.1943 20.9245Z" fill="black"/>
<path d="M45.279 18.4606C46.0774 19.0663 46.7244 19.8647 47.2337 20.7319C47.7292 21.5991 48.0871 22.5627 48.3074 23.54C48.5276 24.5173 48.6377 25.5222 48.6653 26.5133C48.6928 27.5182 48.6377 28.5093 48.5689 29.5004C48.5551 29.6518 48.4175 29.7757 48.2661 29.7619C48.1147 29.7481 47.9908 29.6105 48.0045 29.4591C48.0045 29.4591 48.0045 29.4591 48.0045 29.4453C48.1009 28.468 48.1835 27.4906 48.1835 26.5133C48.1835 25.536 48.1147 24.5586 47.9219 23.6088C47.7292 22.659 47.4126 21.7367 46.9584 20.8833C46.5041 20.0298 45.8984 19.2452 45.1413 18.6395C45.0863 18.5982 45.0863 18.5157 45.1276 18.4744C45.1551 18.4193 45.2377 18.4193 45.279 18.4606Z" fill="black"/>
<path d="M37.3229 24.5311C37.9148 25.0404 38.4104 25.6598 38.8096 26.3343C39.2088 27.0088 39.5116 27.7384 39.7181 28.4955C40.1311 30.0097 40.1724 31.6065 39.9934 33.1619C39.9796 33.3134 39.842 33.4373 39.6768 33.4097C39.5116 33.3822 39.4015 33.2583 39.429 33.0931C39.429 33.0931 39.429 33.0931 39.429 33.0794C39.5392 32.336 39.5942 31.5789 39.5804 30.8218C39.5667 30.0648 39.4841 29.3214 39.3189 28.5919C39.1537 27.8623 38.8784 27.1465 38.5205 26.4858C38.1626 25.825 37.7084 25.2194 37.1578 24.6963C37.1027 24.655 37.1027 24.5724 37.1578 24.5311C37.199 24.4898 37.2679 24.4898 37.3229 24.5311Z" fill="black"/>
<path d="M27.4254 28.11C27.6456 29.0461 27.9072 29.9684 28.2651 30.8493C28.6229 31.7303 29.1047 32.5562 29.7379 33.2307C30.3849 33.9052 31.1833 34.4283 31.9955 34.9101C32.8214 35.3919 33.6611 35.8462 34.5145 36.2591C34.6522 36.3279 34.721 36.4931 34.6522 36.6445C34.5833 36.7822 34.4181 36.851 34.2667 36.7822C33.3995 36.3417 32.5598 35.8599 31.7477 35.3368C30.9355 34.8138 30.1096 34.2494 29.4489 33.5198C28.7881 32.7765 28.3063 31.8955 27.9622 30.987C27.6181 30.0785 27.3978 29.1287 27.1914 28.1926C27.1776 28.1238 27.2189 28.0687 27.2877 28.055C27.3565 28.0137 27.4116 28.055 27.4254 28.11Z" fill="black"/>
<path d="M21.1763 35.1028C21.7957 36.7134 22.8556 38.1312 24.1634 39.2186C25.4711 40.3199 27.0403 41.0907 28.7059 41.4349C28.8573 41.4624 28.9537 41.6138 28.9261 41.7652C28.8986 41.9166 28.7472 42.013 28.5958 41.9855C28.5958 41.9855 28.5958 41.9855 28.582 41.9855C26.8338 41.5725 25.2233 40.6915 23.9018 39.5215C22.5803 38.3514 21.5342 36.851 20.956 35.1854C20.9285 35.1166 20.9698 35.0615 21.0249 35.034C21.0799 35.0065 21.1487 35.034 21.1763 35.1028Z" fill="black"/>
<path d="M23.0068 50.7816C21.6578 50.7403 20.3226 50.4099 19.125 49.818C17.9274 49.2261 16.8537 48.3726 16.0416 47.3265C16.0003 47.2714 16.0141 47.2026 16.0691 47.1613C16.1242 47.12 16.193 47.1338 16.2343 47.1751C17.0602 48.1662 18.1339 48.937 19.304 49.4601C20.474 49.9832 21.7542 50.2447 23.0206 50.2172C23.172 50.2172 23.3097 50.3411 23.3097 50.4925C23.3097 50.6439 23.1858 50.7816 23.0344 50.7816C23.0068 50.7816 23.0068 50.7816 23.0068 50.7816Z" fill="black"/>
<path d="M14.431 52.2682C14.8164 52.6261 15.1881 52.9977 15.5873 53.3143C15.9865 53.6447 16.4132 53.92 16.8812 54.1265C17.3493 54.333 17.8311 54.4431 18.3266 54.4293L19.9096 54.4569C20.061 54.4569 20.1849 54.5945 20.1849 54.7459C20.1849 54.8974 20.0473 55.0212 19.8959 55.0212H19.8821L18.3128 54.9111C18.189 54.8974 18.0375 54.8974 17.8999 54.8698C17.7622 54.8423 17.6246 54.8148 17.4869 54.7872C17.2116 54.7184 16.9638 54.6083 16.7161 54.4844C16.2205 54.2366 15.78 53.9063 15.3808 53.5484C14.9816 53.1905 14.6237 52.805 14.2658 52.4196C14.2245 52.3645 14.2245 52.2957 14.2658 52.2544C14.3209 52.2269 14.3897 52.2269 14.431 52.2682Z" fill="black"/>
<path d="M54.8324 47.8219C54.8324 48.2211 54.6809 48.5928 54.4469 48.8818H51.9692C51.7214 48.5928 51.5837 48.2211 51.5837 47.8219C51.5837 46.9272 52.3133 46.1838 53.2218 46.1838C54.1303 46.1838 54.8324 46.9272 54.8324 47.8219Z" fill="black"/>
<path d="M73.498 48.7994C73.4291 49.1022 73.2502 49.35 73.0162 49.5152L71.1716 49.0747C71.034 48.8131 70.9927 48.5241 71.0615 48.2212C71.2267 47.5467 71.8874 47.1338 72.5619 47.299C73.2502 47.4504 73.6631 48.1249 73.498 48.7994Z" fill="black"/>
<path d="M44.8525 47.2851C45.8711 46.9272 46.9173 46.6657 47.9634 46.4592C49.0096 46.239 50.0695 46.0876 51.1432 45.9774C52.2169 45.8535 53.2906 45.8123 54.3643 45.826C54.6396 45.8398 54.9012 45.8398 55.1765 45.8535C55.4518 45.8673 55.7133 45.8948 55.9886 45.9224C56.5255 45.9637 57.0623 46.06 57.5992 46.1701C57.9295 46.239 58.1498 46.5693 58.0809 46.8997C58.0259 47.1888 57.7643 47.3953 57.489 47.3953H57.4615C56.4291 47.409 55.3967 47.3953 54.3643 47.409C53.3319 47.4228 52.2995 47.4366 51.2534 47.4779C50.2072 47.5192 49.1748 47.5604 48.1149 47.6155C47.0687 47.6706 46.0088 47.7394 44.9626 47.7807C44.825 47.7807 44.7011 47.6706 44.6873 47.5329C44.6735 47.4228 44.7561 47.3264 44.8525 47.2851Z" fill="black"/>
<path d="M74.4204 48.111C74.0487 48.0697 73.6771 48.0009 73.3192 47.9321L72.2592 47.7118C71.9013 47.643 71.5572 47.5742 71.1993 47.5191C70.8414 47.4503 70.4973 47.409 70.1256 47.3402H70.0981C69.8778 47.2989 69.7402 47.0924 69.7815 46.8721C69.809 46.7207 69.9329 46.5968 70.0843 46.5555C70.1807 46.528 70.2908 46.5142 70.3871 46.5005C70.4835 46.4867 70.5936 46.4729 70.69 46.4592C70.7863 46.4454 70.8965 46.4454 70.9928 46.4316C71.0892 46.4316 71.1993 46.4316 71.2957 46.4316C71.7086 46.4454 72.1078 46.5005 72.4932 46.5831C72.8787 46.6657 73.2641 46.7895 73.6358 46.9685C74.0074 47.1474 74.3516 47.3402 74.6544 47.6292C74.7645 47.7256 74.7783 47.9045 74.6682 48.0147C74.6131 48.0835 74.5167 48.111 74.4342 48.0972L74.4204 48.111Z" fill="black"/>
<path d="M69.6852 54.4707C69.6852 54.4707 69.052 55.9161 68.5152 56.2878C67.9783 56.6594 66.354 53.9064 66.354 53.9064C66.354 53.9064 66.6981 53.6586 68.1022 54.3055C69.5063 54.925 69.6852 54.4707 69.6852 54.4707Z" fill="#AC4035"/>
<path d="M65.2112 57.8018C66.9456 57.8293 68.0606 57.0309 68.7626 56.1499C68.4598 55.4479 67.7991 54.2779 66.5739 53.8787C66.0784 53.9062 65.5691 54.1402 64.8533 54.2779C63.8484 54.4843 62.5407 54.7459 61.3982 54.2779C61.4533 55.4341 62.0589 57.7467 65.2112 57.8018Z" fill="#AC4035"/>
<path d="M69.5196 54.5807C68.7763 55.1451 67.4411 55.682 65.1423 55.5168C63.3115 55.3791 62.224 55.0075 61.5908 54.6633C61.7973 54.6496 62.0176 54.6358 62.224 54.6083C64.0411 54.4706 65.2662 54.1402 66.5326 54.1265C67.3447 54.1127 68.2257 54.2641 69.1342 54.4981C69.2581 54.5257 69.3958 54.5532 69.5196 54.5807Z" fill="white"/>
<path d="M61.0955 53.6584C61.6599 54.0163 62.3481 54.2091 63.0915 54.2641C63.4631 54.2916 63.8486 54.2641 64.2202 54.1815C64.5919 54.1127 64.9636 54.0163 65.3352 53.9062L65.8996 53.741C66.0923 53.686 66.2988 53.6309 66.519 53.6034C66.7393 53.5759 66.9871 53.5896 67.2073 53.6584C67.3174 53.686 67.4275 53.7273 67.5239 53.7823L67.6616 53.8512C67.7029 53.8649 67.7441 53.8925 67.7854 53.9062C68.102 54.0439 68.4462 54.1265 68.7903 54.1402C68.9693 54.1402 69.1344 54.1402 69.3134 54.1127C69.396 54.0989 69.4923 54.0852 69.5749 54.0714C69.6575 54.0576 69.7401 54.0301 69.8227 54.0026L69.864 53.9888C70.098 53.9337 70.332 54.0714 70.4008 54.3054C70.4697 54.5394 70.3183 54.7734 70.0842 54.8423C70.0705 54.8423 70.043 54.856 70.0292 54.856C69.8089 54.8836 69.5887 54.8973 69.3822 54.9111C69.1757 54.9249 68.9555 54.9111 68.7352 54.8836C68.3085 54.8285 67.8818 54.7046 67.4964 54.4981C67.4551 54.4706 67.4 54.4431 67.3587 54.4155L67.2348 54.3467C67.166 54.3054 67.0972 54.2641 67.0283 54.2366C66.8769 54.1815 66.7255 54.154 66.5603 54.154C66.3951 54.154 66.2162 54.1953 66.0373 54.2366L65.4729 54.3742C64.7158 54.567 63.9312 54.7321 63.119 54.8423C62.706 54.8973 62.2931 54.9111 61.8664 54.8285C61.7562 54.8147 61.6599 54.7872 61.5498 54.7597C61.4396 54.7321 61.3433 54.6908 61.2332 54.6633C61.0267 54.5807 60.834 54.4844 60.6412 54.3605C60.4485 54.2228 60.4072 53.975 60.5311 53.7823C60.655 53.5896 60.9028 53.5346 61.0955 53.6584Z" fill="black"/>
<path d="M61.6187 54.2642C61.7426 55.1865 62.128 56.0812 62.7888 56.6456C63.4633 57.21 64.3718 57.4302 65.2941 57.444C66.2163 57.4577 67.1111 57.21 67.8544 56.6594C68.5977 56.1087 69.1759 55.3241 69.5888 54.4569C69.6164 54.4156 69.6577 54.3881 69.7127 54.4156C69.754 54.4294 69.7678 54.4844 69.7678 54.5257C69.52 55.4893 69.0107 56.4253 68.2123 57.1136C67.8131 57.4577 67.3451 57.733 66.8495 57.912C66.354 58.0909 65.8171 58.1735 65.2941 58.1735C64.771 58.1598 64.2479 58.1322 63.7386 57.9671C63.2293 57.8156 62.7337 57.5541 62.3345 57.1824C61.9216 56.8108 61.6325 56.3428 61.4398 55.8472C61.2471 55.3516 61.1645 54.8286 61.1782 54.3055C61.1782 54.1816 61.2884 54.0852 61.3985 54.0852C61.5086 54.0715 61.605 54.1541 61.6187 54.2642Z" fill="black"/>
<path d="M61.8389 54.6221C62.4583 54.8286 63.1053 54.9937 63.7385 55.1314C64.3854 55.2553 65.0324 55.3516 65.6656 55.3379C65.9822 55.3379 66.3263 55.3103 66.6429 55.2828C66.9733 55.2553 67.3037 55.214 67.6203 55.1727C67.9369 55.1176 68.2673 55.0626 68.5839 54.98C68.9005 54.8974 69.2033 54.7873 69.4786 54.6221C69.5061 54.6083 69.5337 54.6083 69.5474 54.6358C69.5612 54.6634 69.5612 54.6909 69.5337 54.7047C69.2721 54.9387 68.9555 55.0901 68.6389 55.214C68.3223 55.3379 67.992 55.4342 67.6616 55.5031C67.0008 55.6545 66.3263 55.7371 65.6518 55.7784C64.9636 55.8059 64.2753 55.7095 63.6146 55.5444C62.9538 55.3792 62.3206 55.1589 61.7012 54.8699C61.6324 54.8423 61.6048 54.7597 61.6324 54.6909C61.7012 54.6358 61.77 54.6083 61.8389 54.6221Z" fill="black"/>
</svg>
