<svg width="236" height="342" viewBox="0 0 236 342" fill="none" xmlns="http://www.w3.org/2000/svg">
<path d="M122.866 218.569V219.924C122.866 220.986 123.415 221.938 124.33 222.487L155.309 227.247L215.106 218.129C216.534 217.91 217.596 216.665 217.596 215.2L122.866 218.569Z" fill="#525252"/>
<path d="M183.175 208.572L123.635 217.727C122.793 217.836 122.573 218.972 123.342 219.374L155.566 224.757L217.669 215.237L183.175 208.572Z" fill="#737373"/>
<path d="M155.309 227.98C155.273 227.98 155.236 227.98 155.199 227.98L124.221 223.219C124.111 223.219 124.038 223.183 123.964 223.146C122.829 222.487 122.097 221.242 122.097 219.924V218.569C122.097 218.166 122.426 217.8 122.866 217.8C123.305 217.8 123.635 218.129 123.635 218.569V219.924C123.635 220.656 124.001 221.352 124.624 221.755L155.309 226.478L214.996 217.36C216.058 217.214 216.864 216.299 216.864 215.2C216.864 214.797 217.193 214.431 217.632 214.431C218.072 214.431 218.401 214.761 218.401 215.2C218.401 217.031 217.083 218.569 215.252 218.862L155.456 227.98C155.382 227.98 155.346 227.98 155.309 227.98Z" fill="black"/>
<path d="M88.2252 153.316C88.2252 153.316 85.5155 137.461 70.429 136.252C55.3059 135.044 52.6328 146.103 50.6921 150.79C48.7514 155.477 49.8499 170.966 59.9198 174.408C69.9896 177.85 84.0508 173.456 89.1041 171.405L88.2252 153.316Z" fill="#F5D1BE"/>
<path d="M134.071 189.678C139.38 196.928 163.072 200.004 167.356 189.018C156.81 189.934 145.679 190.117 134.071 189.678Z" fill="#F5D1BE"/>
<path d="M83.3552 103.516C83.9045 103.113 95.2926 94.0321 95.2926 94.0321C95.2926 94.0321 120.046 86.3424 139.637 93.0069C139.637 93.0069 139.82 90.0774 137.256 87.5874C137.256 87.5874 153.258 87.8804 162.449 92.9336C162.449 92.9336 164.5 89.7845 161.79 85.9763C161.79 85.9763 179.22 88.5029 182.772 92.3477C182.772 92.3477 184.2 90.5901 182.772 85.9763C182.772 85.9763 191.011 85.0974 195.003 89.6746C195.003 89.6746 197.126 86.0861 196.321 84.1088C196.321 84.1088 205.182 92.128 203.388 105.091C201.594 118.09 199.653 120.543 200.422 123.656C201.191 126.768 205.768 139.255 206.427 142.514C206.427 142.514 194.49 149.215 189.18 139.218C183.871 129.222 176.694 130.833 173.581 130.796C170.469 130.76 163.292 130.686 158.898 136.326C154.503 141.965 151.83 151.009 142.676 151.998C133.521 152.987 113.785 151.559 105.729 148.153C97.6727 144.711 94.3405 142.111 92.8026 136.875C91.2647 131.639 86.4311 115.563 86.4311 115.563L83.3552 103.516Z" fill="#F5D1BE"/>
<path d="M180.941 316.155C180.941 316.155 193.831 316.265 205.585 309.454C205.585 309.454 211.298 317.437 214.337 319.414C217.376 321.391 216.827 322.234 221.807 322.6C226.787 322.966 226.787 326.701 226.311 328.166C225.835 329.63 224.37 332.67 220.891 332.194C219.976 335.196 217.669 336.514 213.641 335.782C212.286 338.309 210.272 339.554 207.16 338.638C207.16 338.638 204.377 341.787 201.154 339.334C201.154 339.334 197.786 342.703 193.318 337.137C188.851 331.571 186.764 331.718 184.969 330.436C183.175 329.154 178.195 327.287 178.781 322.636C179.367 317.986 180.941 316.155 180.941 316.155Z" fill="#F5D1BE"/>
<path d="M135.133 145.407C142.899 145.407 149.194 142.931 149.194 139.878C149.194 136.824 142.899 134.348 135.133 134.348C127.367 134.348 121.072 136.824 121.072 139.878C121.072 142.931 127.367 145.407 135.133 145.407Z" fill="#F5AC89"/>
<path d="M137.623 248.925C137.623 248.925 155.126 231.641 172.483 227.247C189.839 222.853 195.955 228.529 200.459 235.45C204.963 242.37 201.557 254.418 201.557 254.418L198.518 262.876C198.518 262.876 205.475 273.935 207.233 285.03C208.99 296.089 209.027 306.854 209.027 306.854C209.027 306.854 196.431 317.217 181.124 316.595C181.124 316.595 170.725 309.564 166.99 304.328C142.639 315.423 120.266 317.071 101.042 303.192C101.042 303.192 108.328 286.202 123.488 273.898C123.488 273.898 125.063 284.225 131.727 284.554C138.392 284.884 143.225 277.194 144.324 276.132C145.422 275.07 151.171 272.141 151.171 272.141C148.571 263.389 144.25 255.553 137.623 248.925Z" fill="#1F242E"/>
<path d="M190.096 224.318C189.217 225.16 188.704 225.892 186.251 225.416C183.798 224.94 177.023 224.867 173.874 226.185C173.874 226.185 164.28 228.749 158.055 232.557C158.055 232.557 151.281 236.768 147.729 239.514C144.141 242.261 137.403 248.376 137.403 248.376C137.403 248.376 137.11 243.03 133.888 243.139C133.888 243.139 131.031 240.686 129.164 240.979C128.908 241.016 128.139 238.196 124.623 238.416C122.756 234.607 118.984 237.024 118.984 237.024C113.894 231.934 110.709 236.805 110.709 236.805C107.523 243.689 112.906 243.139 113.711 250.426C114.517 257.713 115.945 262.144 115.945 262.144C115.945 262.144 117.996 265.44 120.119 266.904C122.207 268.369 123.488 273.459 123.488 273.459C113.528 281.991 105.619 293.269 98.8812 306.085C75.1895 291.585 73.798 272.287 72.553 255.882C71.2714 238.855 76.288 225.27 76.288 225.27C85.5889 195.976 108.841 184.002 108.841 184.002C112.576 186.345 132.643 190.044 132.643 190.044C145.715 199.088 158.641 199.638 168.858 189.568C168.858 189.568 170.066 189.458 169.187 191.618C168.272 193.815 161.021 211.502 161.021 211.502C161.021 211.502 161.131 211.941 159.483 212.197C157.836 212.454 136.927 215.676 136.927 215.676C136.927 215.676 136.707 216.372 135.462 213.369C134.217 210.367 130.482 206.229 122.5 207.95C114.517 209.671 111.624 217.251 111.624 217.251C111.624 217.251 112.137 217.983 115.323 219.375C118.508 220.729 126.308 228.053 126.308 228.053L127.663 223.036L155.089 227.54L190.718 221.901C190.682 221.865 190.975 223.512 190.096 224.318Z" fill="#263759"/>
<path d="M206.281 141.891C205.805 141.928 205.292 141.928 204.78 141.928C198.005 141.928 192.549 139.768 192.549 137.095C192.549 134.605 197.383 132.517 203.571 132.298C203.644 132.444 203.681 132.591 203.754 132.737C204.963 135.666 205.805 138.742 206.281 141.891Z" fill="#F5AC89"/>
<path d="M194.966 89.7113C191.231 86.8185 186.69 85.3172 182.003 85.0242C183.578 87.1481 184.054 90.0775 183.211 92.6041C176.364 89.0522 169.15 86.965 161.534 85.6101C162.925 87.8072 163.365 90.5535 162.742 93.0435C154.43 89.5282 145.422 87.6607 136.451 87.0016C138.574 88.2466 139.929 90.6267 139.966 93.0435C125.136 89.1254 107.999 88.8691 93.7178 94.5448C97.526 91.8351 101.517 89.3817 105.582 87.1481C107.852 85.9031 110.159 84.7313 112.503 83.5961C117.629 81.1428 122.975 79.0555 128.431 77.4078C142.676 73.0869 157.799 71.5489 172.629 73.1601C176.584 73.5995 191.414 76.6388 193.611 79.3851C194.307 80.2639 194.819 81.2526 195.185 82.2779C196.028 84.7313 195.954 87.441 194.966 89.7113Z" fill="#3A302E"/>
<path d="M207.453 153.646C207.086 157.271 205.805 160.75 204.194 164.045C199.543 173.639 191.927 182.134 181.967 185.979C178.781 187.188 175.485 187.92 172.116 188.542C169.224 189.055 166.697 189.678 163.768 190.044C146.85 192.277 129.42 190.703 113.162 185.54C107.706 183.819 89.0675 172.577 89.0675 171.881C89.1408 166.682 89.5069 161.262 88.5183 156.172C88.5183 156.136 88.5183 156.136 88.5183 156.136C87.7127 151.888 87.3831 147.787 84.6734 144.418C83.5016 142.99 82.1102 141.745 80.6088 140.683C80.3891 140.537 80.1694 140.39 79.9497 140.244C73.798 136.252 65.4857 135.117 59.1143 138.669C59.7368 136.911 60.4325 135.154 61.1649 133.433C62.9957 129.185 65.1928 125.084 67.6828 121.166C70.2094 117.211 73.029 113.513 76.1415 110.071C77.1302 108.972 78.1188 107.91 79.1807 106.848C79.4005 106.629 79.6202 106.372 79.8765 106.153C80.5356 105.493 81.2313 104.834 81.9271 104.175C82.22 103.882 82.513 103.626 82.8059 103.37C83.1355 103.077 83.465 102.784 83.7946 102.454C84.8565 113.147 87.5296 124.169 91.5575 134.129C93.0589 137.79 94.8165 141.489 97.7825 144.125C100.858 146.798 104.886 148.08 108.841 149.069C116.421 151.009 124.184 152.291 132.02 152.913C136.963 153.316 142.236 153.389 146.594 150.973C152.233 147.86 155.016 141.379 158.971 136.289C160.142 134.824 161.461 133.396 163.072 132.481C164.976 131.419 167.173 131.089 169.297 130.906C172.226 130.686 175.156 130.76 178.049 131.126C180.355 131.419 182.699 131.931 184.64 133.176C188.045 135.3 187.935 140.39 191.158 142.77C192.842 144.015 195.003 144.455 197.053 144.821C197.785 144.967 198.481 145.077 199.214 145.114C201.411 145.224 204.596 144.308 206.208 142.807C206.244 142.88 206.317 142.953 206.354 143.027C208.295 146.103 207.782 150.094 207.453 153.646Z" fill="#3A302E"/>
<path d="M172.226 36.2494C168.455 35.4438 163.987 34.1988 158.568 33.2468C149.487 31.6356 137.769 30.9398 122.39 34.7115C122.353 34.7115 122.353 34.7115 122.316 34.7481C110.709 37.6409 97.0136 43.0969 80.7919 52.7274C80.2427 53.0569 79.6934 53.3865 79.1075 53.716C78.6681 53.9724 78.2287 54.2653 77.7893 54.5216C65.6688 62.1381 56.6975 71.732 50.1063 81.7286C50.0697 81.7652 50.0697 81.8018 50.0331 81.8384C42.8926 92.6407 38.4619 103.919 35.7522 113.586C33.8847 120.214 32.8228 126.109 32.2003 130.613C31.4313 136.216 31.3947 139.621 31.3947 139.621C31.3947 139.621 28.2822 135.813 23.7782 129.991C19.2376 124.205 17.2603 106.116 17.2603 106.116C8.14245 103.882 1.29494 93.4829 0.709058 83.8158C0.123174 74.1487 2.68641 69.0222 8.8748 56.1694C15.0632 43.3166 40.0365 21.639 40.0365 21.639C40.0365 21.639 69.6968 -2.74843 102.213 2.81746C134.437 8.41996 171.64 35.8466 172.226 36.2494Z" fill="#263759"/>
<path d="M200.715 89.5648C200.129 88.4296 199.47 87.3311 198.738 86.3058C197.676 84.8777 196.504 83.5595 195.223 82.3877C194.856 81.3258 194.344 80.3737 193.648 79.4949C191.488 76.7486 176.657 73.7093 172.666 73.2699C157.836 71.6587 142.713 73.1967 128.468 77.5176C123.012 79.1654 117.666 81.2526 112.54 83.706C110.196 84.8045 107.926 86.0129 105.619 87.2579C101.554 89.4915 97.5631 91.9449 93.7549 94.6546C93.0226 95.1673 92.2536 95.7165 91.5212 96.2658C88.8481 98.2432 86.2849 100.294 83.8315 102.491C83.5019 102.784 83.1724 103.077 82.8428 103.406C82.5499 103.663 82.2569 103.956 81.964 104.212C81.2683 104.871 80.5725 105.493 79.9134 106.189C79.6937 106.409 79.474 106.629 79.2177 106.885C78.1924 107.947 77.1671 109.009 76.1784 110.107C73.0659 113.586 70.2097 117.284 67.7197 121.202C65.2297 125.121 63.0326 129.222 61.2018 133.469C60.4694 135.19 59.7737 136.948 59.1512 138.706C58.9681 138.816 58.8216 138.889 58.6751 138.999C52.3403 142.844 49.3376 150.753 49.6672 158.186C49.8137 161.592 50.5826 164.997 52.2304 168C52.8529 169.098 53.5853 170.16 54.4275 171.112C41.6113 171.112 36.6679 160.786 35.2032 156.758C32.0907 147.97 31.3583 139.292 32.2006 130.723C32.8231 126.219 33.885 120.324 35.7525 113.696C37.6566 107.544 40.11 101.502 42.7831 95.5701C44.9069 90.883 47.3237 86.3058 50.07 81.9483C50.07 81.9117 50.1066 81.8751 50.1432 81.8384C56.771 71.8418 65.7057 62.248 77.8262 54.6315C78.2656 54.3386 78.705 54.0822 79.1444 53.8259C96.0984 43.573 110.343 37.824 122.353 34.8213C122.39 34.8213 122.39 34.8213 122.427 34.7847C134.254 32.1849 146.594 31.6356 158.605 33.32C164.024 34.2721 168.492 35.5171 172.263 36.3227C181.528 39.2521 190.609 43.6096 196.431 51.2627C205.878 63.7859 208.734 79.6414 200.715 89.5648Z" fill="#1F242E"/>
<path d="M174.313 63.8226C176.108 58.2201 176.51 50.8599 174.24 44.6715C163.951 41.4492 152.819 40.8999 142.273 43.0969C140.296 49.4318 142.712 60.5636 144.946 63.3465C153.771 65.8731 165.196 64.9211 174.313 63.8226Z" fill="#17191C"/>
<path d="M165.489 50.7867C165.233 50.6768 164.94 50.6036 164.647 50.4938C164.72 50.2008 164.793 49.9079 164.83 49.6149C165.086 47.8939 164.757 46.7221 163.951 46.2461C163.145 45.7701 161.937 46.0996 160.582 47.1982C160.362 47.3812 160.143 47.601 159.923 47.784C159.703 47.5643 159.447 47.3812 159.227 47.1982C157.872 46.1362 156.664 45.8067 155.859 46.2827C155.016 46.7587 154.723 47.9671 155.016 49.6882C155.053 49.9811 155.126 50.274 155.199 50.567C154.906 50.6402 154.614 50.7501 154.357 50.8599C152.746 51.4824 151.867 52.3613 151.867 53.3133C151.867 54.2654 152.746 55.1442 154.357 55.7667C154.614 55.8766 154.906 55.9498 155.199 56.0596C155.126 56.3526 155.053 56.6455 155.016 56.9385C154.76 58.6595 155.09 59.8313 155.895 60.3073C156.151 60.4538 156.408 60.527 156.737 60.527C157.47 60.527 158.312 60.1242 159.264 59.3552C159.484 59.1721 159.703 58.9524 159.923 58.7694C160.143 58.9891 160.399 59.1721 160.619 59.3552C161.571 60.1242 162.45 60.4904 163.145 60.4904C163.438 60.4904 163.731 60.4171 163.988 60.2707C164.83 59.7946 165.123 58.5863 164.83 56.8652C164.793 56.5723 164.72 56.2793 164.647 55.9864C164.94 55.9132 165.233 55.8033 165.489 55.6935C167.1 55.071 167.979 54.1921 167.979 53.2401C167.979 52.2514 167.1 51.3726 165.489 50.7867ZM160.985 47.7108C162.084 46.832 162.999 46.5024 163.548 46.832C164.097 47.1615 164.317 48.1136 164.097 49.5051C164.061 49.7614 163.988 50.0543 163.951 50.3107C163.255 50.1642 162.523 50.0543 161.754 49.9811C161.315 49.3586 160.839 48.7727 160.362 48.2601C160.582 48.077 160.765 47.8939 160.985 47.7108ZM162.193 54.5583C161.937 54.9977 161.681 55.4371 161.388 55.8399C160.912 55.8766 160.399 55.9132 159.886 55.9132C159.374 55.9132 158.861 55.9132 158.385 55.8766C158.092 55.4738 157.836 55.0343 157.58 54.5949C157.323 54.1555 157.103 53.7161 156.884 53.2767C157.103 52.8373 157.323 52.3979 157.58 51.9585C157.836 51.519 158.092 51.0796 158.385 50.6768C158.861 50.6402 159.374 50.6036 159.886 50.6036C160.399 50.6036 160.912 50.6036 161.388 50.6402C161.681 51.043 161.937 51.4824 162.193 51.9218C162.45 52.3613 162.669 52.8007 162.889 53.2401C162.669 53.6795 162.45 54.1189 162.193 54.5583ZM163.255 54.0457C163.475 54.5217 163.621 54.9977 163.768 55.4738C163.292 55.5836 162.816 55.6935 162.303 55.7301C162.486 55.4738 162.633 55.1808 162.816 54.8879C162.999 54.5949 163.109 54.3386 163.255 54.0457ZM159.923 57.7441C159.594 57.3779 159.264 57.0117 158.934 56.6089C159.264 56.6089 159.594 56.6455 159.886 56.6455C160.216 56.6455 160.546 56.6455 160.839 56.6089C160.582 57.0117 160.253 57.3779 159.923 57.7441ZM157.506 55.7667C156.994 55.6935 156.481 55.6202 156.042 55.5104C156.188 55.0343 156.335 54.5583 156.554 54.0823C156.701 54.3752 156.847 54.6682 157.03 54.9245C157.14 55.2174 157.323 55.5104 157.506 55.7667ZM156.518 52.4345C156.298 51.9585 156.151 51.4824 156.005 51.0064C156.481 50.8965 156.957 50.7867 157.47 50.7501C157.287 51.0064 157.14 51.2993 156.957 51.5923C156.774 51.8852 156.664 52.1415 156.518 52.4345ZM159.886 48.7727C160.216 49.1389 160.546 49.5051 160.875 49.9079C160.546 49.9079 160.216 49.8713 159.923 49.8713C159.594 49.8713 159.264 49.8713 158.971 49.9079C159.227 49.5051 159.557 49.1023 159.886 48.7727ZM162.779 51.5557C162.596 51.2627 162.45 51.0064 162.267 50.7135C162.779 50.7867 163.292 50.8599 163.731 50.9698C163.585 51.4458 163.438 51.9218 163.219 52.3979C163.109 52.1416 162.962 51.8486 162.779 51.5557ZM155.639 49.5417C155.419 48.1502 155.602 47.1982 156.151 46.8686C156.298 46.7954 156.444 46.7587 156.627 46.7587C157.177 46.7587 157.909 47.0883 158.715 47.7474C158.934 47.9305 159.154 48.1136 159.337 48.2967C158.861 48.8093 158.385 49.3952 157.946 50.0177C157.177 50.091 156.444 50.2008 155.749 50.3839C155.749 50.0543 155.675 49.798 155.639 49.5417ZM154.54 55.071C153.222 54.5583 152.49 53.9358 152.49 53.2767C152.49 52.6176 153.222 51.9951 154.54 51.4824C154.797 51.3726 155.053 51.2993 155.346 51.2261C155.566 51.8852 155.822 52.581 156.151 53.2767C155.822 53.9724 155.566 54.6682 155.382 55.3273C155.053 55.2541 154.797 55.1808 154.54 55.071ZM158.788 58.806C157.689 59.6848 156.774 60.0144 156.225 59.6848C155.675 59.3552 155.456 58.4032 155.675 57.0117C155.712 56.7554 155.785 56.4624 155.822 56.2061C156.518 56.3526 157.25 56.4624 158.019 56.5357C158.458 57.1582 158.934 57.7441 159.41 58.2567C159.227 58.4398 159.008 58.6229 158.788 58.806ZM164.134 56.9751C164.354 58.3666 164.171 59.3186 163.621 59.6482C163.072 59.9777 162.12 59.6482 161.022 58.7694C160.802 58.5863 160.582 58.4032 160.399 58.2201C160.875 57.7074 161.351 57.1216 161.791 56.4991C162.56 56.4258 163.292 56.316 163.988 56.1329C164.061 56.4258 164.097 56.7188 164.134 56.9751ZM165.269 55.0343C165.013 55.1442 164.757 55.2174 164.464 55.2907C164.244 54.6316 163.988 53.9358 163.658 53.2401C163.988 52.5443 164.244 51.8486 164.427 51.1895C164.72 51.2627 164.976 51.3726 165.233 51.4458C166.551 51.9585 167.283 52.581 167.283 53.2401C167.283 53.8992 166.551 54.5217 165.269 55.0343Z" fill="#5ED3F3"/>
<path d="M159.945 54.7068C160.753 54.6781 161.385 53.9994 161.356 53.191C161.328 52.3825 160.649 51.7504 159.841 51.7791C159.032 51.8078 158.4 52.4865 158.429 53.2949C158.457 54.1034 159.136 54.7355 159.945 54.7068Z" fill="#5ED3F3"/>
<path d="M17.48 106.848C16.1618 106.445 14.9168 105.969 13.7084 105.347C12.5 104.724 11.3649 103.992 10.2663 103.186C8.1059 101.539 6.20178 99.5613 4.70046 97.3277C3.16251 95.094 2.02737 92.604 1.25839 90.0041C0.489423 87.4043 0.123243 84.7312 0.0133898 82.0215C-0.133081 76.6387 0.928833 71.2559 2.86957 66.2392C3.82163 63.7492 4.99339 61.3325 6.31163 58.9889C7.62987 56.6454 9.05796 54.4117 10.5593 52.2147C13.6352 47.8572 16.9674 43.7194 20.4094 39.6914C23.8881 35.6635 27.5133 31.782 31.3581 28.1202C39.0478 20.7601 47.653 14.2787 57.1736 9.44521C59.5538 8.27344 62.0071 7.13829 64.4971 6.18623C65.7421 5.67359 67.0238 5.27079 68.2688 4.79476C68.8913 4.57506 69.5504 4.39197 70.1729 4.17226C70.832 3.98917 71.4545 3.76947 72.1136 3.58638C77.2767 2.15829 82.5863 1.16961 87.9325 0.913287C93.2786 0.620346 98.6981 1.02314 103.971 2.08505C109.244 3.14697 114.334 4.75814 119.35 6.58903C129.347 10.2508 138.978 14.828 148.315 19.8446C157.653 24.8613 166.734 30.3539 175.778 35.8466C176.401 36.2127 176.621 37.0549 176.218 37.6774C175.815 38.2999 175.009 38.5197 174.387 38.1169C165.379 32.5876 156.371 27.0949 147.107 22.0417C137.842 16.9885 128.358 12.4112 118.508 8.74947C113.601 6.88197 108.585 5.30741 103.495 4.2455C98.4051 3.18358 93.2054 2.74417 87.9691 3.00049C82.7694 3.2202 77.6063 4.13564 72.553 5.4905C71.9305 5.63697 71.308 5.85668 70.6855 6.03976C70.063 6.22285 69.4405 6.40594 68.818 6.62565C67.573 7.06506 66.328 7.46785 65.1196 7.94388C62.6663 8.85932 60.2861 9.95786 57.9426 11.093C48.5684 15.7801 40.0731 22.1149 32.4567 29.3286C28.6118 32.9171 25.0233 36.762 21.5446 40.7167C18.1025 44.708 14.7337 48.7726 11.7311 53.0569C10.2297 55.1807 8.80164 57.4144 7.52002 59.6847C6.2384 61.955 5.06663 64.2985 4.15119 66.7519C2.24707 71.5854 1.18516 76.7851 1.29501 81.9848C1.36824 84.5847 1.73442 87.1479 2.43016 89.6379C3.16251 92.1279 4.22442 94.5081 5.68913 96.6319C8.58193 100.88 12.8662 104.285 17.8096 105.75C18.1025 105.823 18.2856 106.153 18.1758 106.445C18.1025 106.775 17.773 106.921 17.48 106.848Z" fill="black"/>
<path d="M31.1382 141.159C30.0031 140.28 28.9778 139.328 27.9891 138.339C27.0371 137.314 26.1582 136.216 25.3526 135.081C24.5471 133.945 23.8513 132.737 23.1922 131.529C22.5331 130.32 21.9472 129.075 21.4346 127.794C20.9219 126.512 20.4459 125.23 20.0065 123.949C19.6037 122.667 19.2009 121.349 18.8713 120.031C18.2122 117.394 17.6629 114.721 17.3334 112.048C16.6376 106.665 16.5278 101.209 17.0771 95.8264C17.6263 90.4436 18.7981 85.134 20.5557 80.0441C20.6656 79.7512 20.9585 79.6047 21.2515 79.7146C21.5444 79.8244 21.6909 80.1174 21.581 80.4103C19.9699 85.4635 18.9446 90.6999 18.5418 95.9728C18.139 101.246 18.3587 106.555 19.1643 111.792C19.5671 114.392 20.1163 116.991 20.8487 119.518C21.5444 122.045 22.4232 124.535 23.4851 126.915C24.0344 128.123 24.6203 129.258 25.2428 130.393C25.9019 131.529 26.5977 132.591 27.33 133.652C28.099 134.678 28.9046 135.666 29.82 136.582C30.7354 137.497 31.6875 138.303 32.7128 139.035C33.2987 139.475 33.4452 140.28 33.0057 140.866C32.5663 141.452 31.7607 141.598 31.1382 141.159Z" fill="black"/>
<path d="M54.3539 172.357C40.4026 172.357 35.1662 160.676 33.9212 157.124C26.0118 134.751 33.3354 113.146 41.5377 94.9841C47.543 81.6919 55.1595 70.8897 64.1674 62.9436C70.5389 57.3045 77.716 52.947 84.5269 49.0655C91.3012 45.2207 100.382 40.3139 110.196 36.8719C126.088 31.306 143.298 29.6582 159.959 32.1482C171.311 33.8326 187.02 38.4098 197.419 50.3838C202.106 55.8032 205.219 62.7239 206.171 69.8644C207.16 77.4076 205.622 84.6579 201.813 90.3337C201.411 90.9562 200.568 91.1027 199.982 90.6999C199.36 90.2971 199.213 89.4549 199.616 88.869C206.5 78.6526 204.706 62.8338 195.405 52.1414C185.555 40.7533 170.469 36.4324 159.557 34.7846C143.298 32.3679 126.564 33.9424 111.075 39.3985C101.444 42.7673 92.5462 47.5642 85.8451 51.3725C79.1441 55.1807 72.1135 59.465 65.9251 64.921C57.1735 72.6473 49.8133 83.12 43.9545 96.0827C35.9718 113.769 28.8314 134.788 36.4479 156.282C37.876 160.347 42.4898 169.757 54.3905 169.757C55.1229 169.757 55.7088 170.343 55.7088 171.076C55.7088 171.771 55.1229 172.357 54.3539 172.357C54.3905 172.357 54.3539 172.357 54.3539 172.357Z" fill="black"/>
<path d="M158.458 65.3238C153.624 65.3238 148.974 64.8844 144.836 63.7126C144.763 63.676 144.69 63.6394 144.653 63.5662C142.493 60.8198 139.893 49.5416 141.943 42.9504C141.98 42.8039 142.09 42.7307 142.236 42.6941C152.892 40.4604 164.024 41.0463 174.387 44.3052C174.497 44.3419 174.57 44.4151 174.643 44.525C177.096 51.2626 176.291 58.9523 174.716 63.9323C174.68 64.0788 174.533 64.1887 174.387 64.1887C169.26 64.8112 163.768 65.3238 158.458 65.3238ZM145.166 63.0169C153.624 65.4337 164.463 64.5914 174.021 63.4929C175.522 58.696 176.254 51.4091 173.947 45.001C163.804 41.8519 152.965 41.3026 142.566 43.4264C140.735 49.7247 143.115 60.2339 145.166 63.0169Z" fill="black"/>
<path d="M206.427 144.418C205.768 144.418 205.182 143.905 205.109 143.21C205.072 142.807 205.036 142.441 204.962 142.074C204.523 139.035 203.717 136.069 202.546 133.213L202.472 133.066C202.436 132.993 202.399 132.92 202.363 132.847V132.81C202.07 132.114 201.74 131.419 201.41 130.723C200.715 129.185 199.946 127.574 199.433 125.889C198.664 123.399 199.213 121.495 199.836 119.445C199.982 119.005 200.092 118.566 200.239 118.09C201.887 111.828 202.546 107.031 202.436 102.491C202.326 98.3163 201.41 92.2744 197.639 87.1113C196.797 85.9395 195.808 84.841 194.746 83.8157C194.233 83.3031 194.197 82.4608 194.709 81.9482C195.222 81.4356 196.064 81.3989 196.577 81.9116C197.749 83.0467 198.811 84.2551 199.763 85.5734C203.937 91.2857 204.926 97.9135 205.036 102.454C205.145 107.251 204.45 112.268 202.729 118.786C202.582 119.298 202.472 119.774 202.326 120.25C201.777 122.081 201.374 123.436 201.923 125.157C202.399 126.695 203.058 128.123 203.754 129.661C204.084 130.357 204.413 131.089 204.706 131.785C204.743 131.895 204.779 131.968 204.816 132.078L204.889 132.224C206.171 135.3 207.05 138.486 207.489 141.745C207.562 142.148 207.599 142.587 207.635 143.027C207.709 143.759 207.159 144.418 206.464 144.455C206.5 144.418 206.464 144.418 206.427 144.418Z" fill="black"/>
<path d="M59.1508 139.987C58.4184 139.987 57.8325 139.401 57.8325 138.669C57.8325 138.486 57.8691 138.303 57.9424 138.156C58.5649 136.399 59.2606 134.604 59.993 132.92C61.8238 128.636 64.0575 124.461 66.5841 120.47C69.0741 116.589 71.9669 112.78 75.1893 109.192C79.6567 104.212 84.893 99.4881 90.7152 95.2038C91.4109 94.6912 92.1433 94.1419 92.9489 93.5926C93.5348 93.1899 94.377 93.2997 94.7798 93.9222C95.1826 94.5081 95.0727 95.3503 94.4502 95.7531C93.6446 96.3024 92.9489 96.815 92.2531 97.3276C86.5774 101.539 81.4875 106.116 77.13 110.986C74.0175 114.465 71.198 118.163 68.7812 121.935C66.3278 125.816 64.1674 129.881 62.3731 134.019C61.6408 135.703 60.9816 137.424 60.3591 139.182C60.2127 139.621 59.7 139.987 59.1508 139.987Z" fill="black"/>
<path d="M93.7548 95.9362C93.4252 95.9362 93.059 95.7897 92.8027 95.5334C92.3267 95.0573 92.2901 94.3616 92.6562 93.8123C92.7661 93.6659 92.9126 93.556 93.059 93.4462C96.7574 90.8463 100.749 88.3563 104.96 86.0494C107.193 84.841 109.537 83.6326 111.917 82.4609C117.08 79.9709 122.536 77.8837 128.029 76.1992C142.53 71.8051 158.019 70.3038 172.739 71.915C173.069 71.9516 173.435 71.9882 173.838 72.0248C178.415 72.4642 187.972 73.4163 194.38 78.3963C197.749 81.0328 197.822 86.3423 196.138 90.2238C195.991 90.59 195.662 90.8829 195.259 90.9928C194.856 91.1026 194.453 90.9928 194.124 90.7731C191.341 88.6126 188.009 87.2212 184.31 86.6353C185.079 88.6859 185.116 90.9562 184.42 93.0434C184.31 93.4096 184.017 93.7025 183.651 93.849C183.285 93.9954 182.882 93.9588 182.553 93.8123C177.06 90.9562 170.908 88.869 163.768 87.4409C164.39 89.3816 164.464 91.4688 163.987 93.4462C163.878 93.8123 163.621 94.1419 163.292 94.2884C162.962 94.4715 162.559 94.4715 162.193 94.325C155.492 91.4688 148.022 89.6013 139.93 88.7225C140.772 90.0407 141.248 91.5787 141.248 93.1166C141.248 93.5194 141.065 93.9222 140.735 94.1785C140.406 94.4348 139.966 94.5081 139.6 94.3982C123.671 90.1872 107.12 90.6998 94.2308 95.8629C94.0843 95.9362 93.9379 95.9728 93.7548 95.9728C93.7548 95.9362 93.7548 95.9362 93.7548 95.9362ZM118.289 88.9422C124.843 88.9422 131.617 89.7478 138.319 91.359C137.879 90.0773 136.964 88.9056 135.755 88.2098C135.243 87.9169 134.986 87.2578 135.169 86.6719C135.352 86.086 135.902 85.7198 136.524 85.7565C145.679 86.4156 154.137 88.2465 161.681 91.2491C161.754 89.5281 161.314 87.807 160.399 86.379C160.106 85.9395 160.106 85.3537 160.399 84.9509C160.692 84.5114 161.205 84.2917 161.717 84.365C169.517 85.7198 176.218 87.807 182.223 90.6998C182.37 89.0154 181.894 87.2212 180.905 85.8663C180.612 85.4635 180.539 84.9142 180.795 84.4382C181.051 83.9988 181.527 83.7059 182.04 83.7425C186.581 83.9988 190.755 85.317 194.27 87.6239C194.929 84.9875 194.673 81.9848 192.769 80.5201C186.983 75.9795 177.939 75.1007 173.618 74.6979C173.215 74.6613 172.812 74.6247 172.483 74.5881C158.092 73.0135 142.969 74.4782 128.798 78.7991C123.415 80.4469 118.106 82.4975 113.052 84.9142C110.709 86.0494 108.402 87.2212 106.205 88.4295C104.887 89.1619 103.605 89.8943 102.323 90.6632C107.413 89.4915 112.796 88.9422 118.289 88.9422Z" fill="black"/>
<path d="M56.4414 153.389C58.6384 152.218 61.1651 151.632 63.7283 151.522C66.2915 151.412 68.8548 151.851 71.2349 152.694C73.6517 153.536 75.8854 154.744 77.8627 156.282C79.8401 157.784 81.5977 159.541 83.0258 161.555C83.2089 161.811 83.1357 162.141 82.916 162.287C82.7329 162.434 82.4765 162.434 82.2935 162.287C80.2795 160.969 78.3387 159.688 76.3248 158.589C74.3108 157.491 72.2602 156.575 70.1364 155.879C68.0126 155.184 65.8521 154.781 63.6184 154.598C61.3848 154.415 59.1511 154.488 56.7709 154.671C56.4048 154.708 56.0752 154.415 56.0386 154.049C56.0386 153.756 56.185 153.499 56.4414 153.389Z" fill="black"/>
<path d="M135.828 128.782C137.073 128.416 138.318 128.196 139.6 128.05C140.882 127.867 142.163 127.794 143.408 127.757C144.69 127.72 145.971 127.757 147.253 127.903C148.535 128.05 149.816 128.233 151.025 128.599C151.318 128.672 151.464 129.002 151.391 129.258C151.318 129.515 151.098 129.661 150.842 129.624C149.597 129.551 148.388 129.515 147.143 129.515C145.898 129.515 144.69 129.551 143.445 129.588C140.991 129.698 138.538 129.917 136.085 130.137C135.682 130.174 135.316 129.881 135.279 129.478C135.243 129.222 135.499 128.892 135.828 128.782Z" fill="black"/>
<path d="M195.808 131.565C194.527 131.272 193.245 131.016 191.927 130.796C190.609 130.577 189.29 130.43 187.972 130.21C187.643 130.174 187.423 129.844 187.496 129.551C187.533 129.295 187.752 129.075 188.009 129.039C188.704 128.965 189.4 128.965 190.096 129.002C190.792 129.039 191.487 129.148 192.183 129.258C192.879 129.405 193.575 129.551 194.234 129.808C194.893 130.027 195.552 130.32 196.174 130.723C196.358 130.869 196.431 131.126 196.284 131.309C196.174 131.529 195.991 131.602 195.808 131.565Z" fill="black"/>
<path d="M185.079 99.7444C186.507 99.6346 187.972 99.7444 189.363 100.001C190.791 100.257 192.183 100.697 193.465 101.319C194.783 101.905 196.028 102.674 197.126 103.553C198.225 104.432 199.25 105.493 200.019 106.665C200.202 106.922 200.129 107.251 199.873 107.398C199.69 107.507 199.433 107.507 199.287 107.398C198.188 106.629 197.09 105.969 195.955 105.347C194.819 104.761 193.648 104.212 192.476 103.809C191.304 103.37 190.059 103.04 188.851 102.784C187.606 102.527 186.361 102.381 185.079 102.234C184.383 102.161 183.871 101.539 183.944 100.843C183.981 100.257 184.493 99.7811 185.079 99.7444Z" fill="black"/>
<path d="M155.126 103.04C152.965 103.113 150.842 103.223 148.718 103.406C146.594 103.589 144.47 103.846 142.346 104.212C141.284 104.395 140.222 104.578 139.161 104.798C138.099 105.017 137.037 105.274 136.011 105.53C133.924 106.043 131.837 106.665 129.713 107.288C129.347 107.398 128.981 107.178 128.871 106.848C128.798 106.555 128.908 106.262 129.127 106.079C130.995 104.798 133.045 103.772 135.133 102.894C135.645 102.674 136.195 102.454 136.707 102.271C137.256 102.088 137.769 101.868 138.318 101.722C138.868 101.539 139.417 101.392 139.966 101.246C140.515 101.099 141.065 100.953 141.614 100.843C143.848 100.33 146.081 99.9641 148.388 99.8177C150.659 99.6346 152.965 99.6346 155.236 99.8909C156.115 100.001 156.737 100.77 156.664 101.649C156.591 102.381 155.895 103.003 155.126 103.04Z" fill="black"/>
<path d="M148.718 192.351C136.561 192.351 124.367 190.483 112.796 186.821C107.01 184.99 93.0222 179.937 88.0056 172.65C87.6028 172.064 87.7492 171.222 88.3351 170.819C88.921 170.417 89.7632 170.563 90.166 171.149C94.8531 177.96 109.244 182.94 113.565 184.295C129.603 189.385 146.887 190.922 163.584 188.762C165.452 188.506 167.1 188.176 168.894 187.847C169.846 187.663 170.835 187.444 171.86 187.261C174.753 186.748 178.195 186.016 181.454 184.771C190.279 181.365 197.932 173.785 202.949 163.496C204.816 159.688 205.805 156.538 206.098 153.536L206.134 152.987C206.427 150.13 206.72 147.164 205.768 144.821C203.717 146.029 201.008 146.578 199.14 146.469C198.335 146.432 197.566 146.285 196.797 146.139C194.71 145.736 192.293 145.297 190.352 143.832C188.521 142.477 187.642 140.5 186.8 138.559C186.031 136.802 185.299 135.154 183.907 134.275C182.003 133.067 179.66 132.664 177.829 132.407C175.046 132.041 172.19 131.968 169.37 132.188C167.539 132.334 165.452 132.59 163.694 133.579C162.12 134.458 160.875 135.886 159.996 137.058C158.861 138.523 157.762 140.134 156.737 141.708C154.137 145.626 151.464 149.691 147.216 152.071C142.603 154.634 137.11 154.598 131.91 154.195C124.037 153.572 116.165 152.254 108.511 150.313C104.667 149.361 100.309 148.043 96.9037 145.077C93.7545 142.294 91.887 138.413 90.3491 134.604C86.2113 124.352 83.5748 113.586 82.5495 102.564C82.4763 101.832 83.0255 101.209 83.7579 101.136C84.4903 101.063 85.1128 101.612 85.186 102.344C86.2113 113.11 88.7745 123.656 92.8391 133.652C94.2672 137.168 95.9516 140.72 98.6979 143.136C101.627 145.736 105.655 146.908 109.207 147.787C116.714 149.691 124.44 150.973 132.166 151.595C136.963 151.961 141.98 152.034 146.008 149.801C149.706 147.75 152.087 144.125 154.613 140.317C155.675 138.706 156.774 137.021 158.019 135.483C159.08 134.128 160.545 132.481 162.523 131.345C164.756 130.1 167.319 129.771 169.297 129.624C172.299 129.405 175.339 129.478 178.305 129.881C180.392 130.174 183.102 130.65 185.445 132.114C187.532 133.433 188.448 135.557 189.363 137.57C190.096 139.255 190.791 140.829 192.073 141.782C193.538 142.88 195.625 143.283 197.419 143.612C198.115 143.759 198.774 143.869 199.397 143.905C201.411 144.015 204.157 143.136 205.438 141.965C205.731 141.708 206.098 141.598 206.464 141.635C206.83 141.672 207.196 141.891 207.416 142.184C209.65 145.443 209.247 149.618 208.881 153.316L208.844 153.865C208.514 157.198 207.452 160.64 205.438 164.741C200.129 175.653 192 183.672 182.516 187.334C179.037 188.689 175.485 189.421 172.446 189.97C171.421 190.153 170.469 190.337 169.517 190.52C167.686 190.886 165.965 191.215 164.024 191.472C158.897 192.021 153.808 192.351 148.718 192.351Z" fill="black"/>
<path d="M69.4405 177.484C68.3786 177.484 67.3167 177.447 66.2181 177.374C64.4971 177.264 62.2634 177.081 60.103 176.349C59.7002 176.239 59.3706 176.092 59.0411 175.946C56.9539 175.104 55.0131 173.676 53.4019 171.881C52.4865 170.893 51.6809 169.757 51.0218 168.549C49.374 165.583 48.4586 162.068 48.3121 158.15C47.9459 149.581 51.7541 141.598 57.9792 137.79C58.1622 137.68 58.3453 137.57 58.5284 137.461C58.565 137.461 58.565 137.424 58.6017 137.424C65.0464 133.835 73.7248 134.495 80.7554 139.072C82.5496 140.244 84.234 141.708 85.772 143.503C90.276 148.702 90.6421 160.969 90.4957 171.112V171.845C90.4957 172.357 90.1661 172.833 89.6901 173.053C82.4032 176.129 76.2148 177.484 69.4405 177.484ZM59.7368 139.841C59.5903 139.914 59.4805 139.987 59.3706 140.06C53.9512 143.356 50.6556 150.423 50.9852 158.04C51.1316 161.555 51.9372 164.668 53.3653 167.267C53.9512 168.293 54.6103 169.281 55.3793 170.124C56.7341 171.625 58.3453 172.797 60.0664 173.492C60.3227 173.602 60.579 173.712 60.9086 173.785C62.7761 174.408 64.8267 174.591 66.3646 174.664C73.8712 175.104 80.1329 174.042 87.786 170.929C87.8592 165.656 88.0789 150.24 83.7214 145.224C82.3665 143.649 80.8652 142.331 79.254 141.305C73.1023 137.314 65.3027 136.692 59.7734 139.768C59.7734 139.841 59.7368 139.841 59.7368 139.841Z" fill="black"/>
<path d="M196.504 65.1407C196.797 67.5575 196.65 70.0475 196.174 72.4276C195.698 74.8444 194.893 77.1513 193.904 79.385C193.721 79.7512 193.281 79.9343 192.915 79.7512C192.549 79.5681 192.366 79.1287 192.549 78.7625C192.549 78.7625 192.549 78.7259 192.586 78.7259C193.684 76.6387 194.563 74.4416 195.149 72.1713C195.735 69.901 196.028 67.5209 195.881 65.1773C195.881 64.9942 195.991 64.8478 196.174 64.8478C196.357 64.8478 196.504 64.9576 196.504 65.1407Z" fill="black"/>
<path d="M186.727 54.7779C187.386 56.4623 187.752 58.2932 187.899 60.0875C188.045 61.8818 187.935 63.7126 187.679 65.5435C187.13 69.1321 185.958 72.6107 184.64 75.943C184.493 76.3458 184.054 76.5288 183.651 76.3458C183.248 76.1993 183.065 75.7599 183.211 75.3571C183.211 75.3571 183.211 75.3571 183.211 75.3205C184.64 72.0981 185.958 68.8025 186.617 65.3238C186.946 63.6028 187.093 61.8451 187.056 60.0875C186.983 58.3299 186.727 56.6088 186.141 54.9244C186.068 54.7779 186.178 54.5948 186.324 54.5216C186.47 54.5216 186.654 54.5948 186.727 54.7779Z" fill="black"/>
<path d="M120.449 48.2233C122.573 49.8345 124.294 51.9583 125.649 54.2652C126.967 56.5722 127.919 59.1354 128.505 61.7353C129.091 64.3351 129.384 67.0082 129.457 69.6447C129.53 72.3178 129.384 74.9542 129.2 77.5907C129.164 77.9935 128.798 78.3231 128.395 78.2864C127.992 78.2498 127.663 77.8837 127.699 77.4809C127.699 77.4809 127.699 77.4809 127.699 77.4442C127.956 74.8444 128.175 72.2445 128.175 69.6447C128.175 67.0448 127.992 64.445 127.479 61.9183C126.967 59.3917 126.125 56.9383 124.916 54.668C123.708 52.3977 122.097 50.3105 120.083 48.6994C119.936 48.5895 119.936 48.3698 120.046 48.2599C120.119 48.1135 120.339 48.1135 120.449 48.2233Z" fill="black"/>
<path d="M99.2839 64.3718C100.858 65.7266 102.177 67.3744 103.239 69.1687C104.301 70.9629 105.106 72.9037 105.655 74.9177C106.754 78.9456 106.864 83.1932 106.388 87.331C106.351 87.7338 105.985 88.0634 105.546 87.9902C105.106 87.9169 104.813 87.5874 104.886 87.148C104.886 87.148 104.886 87.148 104.886 87.1113C105.179 85.134 105.326 83.12 105.289 81.106C105.253 79.0921 105.033 77.1147 104.593 75.174C104.154 73.2332 103.422 71.3291 102.47 69.5715C101.518 67.8138 100.309 66.2026 98.8445 64.8112C98.698 64.7013 98.698 64.4816 98.8445 64.3718C98.9543 64.2619 99.1374 64.2619 99.2839 64.3718Z" fill="black"/>
<path d="M72.9557 73.8923C73.5416 76.3823 74.2373 78.8357 75.1894 81.1793C76.1414 83.5228 77.423 85.7198 79.1075 87.5141C80.8285 89.3084 82.9523 90.6999 85.1128 91.9815C87.3098 93.2631 89.5435 94.4715 91.8138 95.57C92.18 95.7531 92.3631 96.1925 92.18 96.5953C91.9969 96.9615 91.5575 97.1446 91.1547 96.9615C88.8478 95.7897 86.6141 94.5081 84.4536 93.1166C82.2932 91.7251 80.0961 90.2238 78.3385 88.2831C76.5808 86.3057 75.2992 83.9622 74.3838 81.5454C73.4683 79.1287 72.8825 76.602 72.3332 74.112C72.2966 73.9289 72.4064 73.7825 72.5895 73.7459C72.7726 73.636 72.9191 73.7459 72.9557 73.8923Z" fill="black"/>
<path d="M56.3316 92.4942C57.9794 96.7784 60.799 100.55 64.2777 103.443C67.7563 106.372 71.9307 108.423 76.3615 109.338C76.7643 109.412 77.0206 109.814 76.9474 110.217C76.8741 110.62 76.4713 110.876 76.0685 110.803C76.0685 110.803 76.0685 110.803 76.0319 110.803C71.3815 109.704 67.0972 107.361 63.5819 104.248C60.0666 101.136 57.2837 97.1446 55.7457 92.7139C55.6725 92.5308 55.7823 92.3843 55.9288 92.3111C56.0753 92.2378 56.2584 92.3111 56.3316 92.4942Z" fill="black"/>
<path d="M61.2015 134.202C57.613 134.092 54.0611 133.213 50.8754 131.638C47.6896 130.064 44.8335 127.794 42.673 125.011C42.5632 124.864 42.5998 124.681 42.7462 124.571C42.8927 124.461 43.0758 124.498 43.1857 124.608C45.3827 127.244 48.2389 129.295 51.3514 130.686C54.4639 132.078 57.8693 132.774 61.2382 132.7C61.641 132.7 62.0071 133.03 62.0071 133.433C62.0071 133.836 61.6776 134.202 61.2748 134.202C61.2015 134.202 61.2015 134.202 61.2015 134.202Z" fill="black"/>
<path d="M38.3887 138.156C39.414 139.108 40.4027 140.097 41.4646 140.939C42.5265 141.818 43.6617 142.551 44.9067 143.1C46.1517 143.649 47.4333 143.942 48.7516 143.905L52.9626 143.979C53.3654 143.979 53.6949 144.345 53.6949 144.748C53.6949 145.15 53.3288 145.48 52.926 145.48H52.8894L48.7149 145.187C48.3854 145.15 47.9826 145.15 47.6164 145.077C47.2502 145.004 46.8841 144.931 46.5179 144.857C45.7855 144.674 45.1264 144.381 44.4673 144.052C43.1491 143.393 41.9773 142.514 40.9154 141.562C39.8535 140.61 38.9014 139.584 37.9493 138.559C37.8395 138.413 37.8395 138.23 37.9493 138.12C38.0958 138.047 38.2789 138.047 38.3887 138.156Z" fill="black"/>
<path d="M145.862 126.329C145.862 127.391 145.459 128.379 144.836 129.148H138.245C137.586 128.379 137.22 127.391 137.22 126.329C137.22 123.949 139.161 121.971 141.577 121.971C143.994 121.971 145.862 123.949 145.862 126.329Z" fill="black"/>
<path d="M195.515 128.929C195.332 129.734 194.856 130.393 194.233 130.833L189.327 129.661C188.961 128.965 188.851 128.196 189.034 127.391C189.473 125.597 191.231 124.498 193.025 124.937C194.856 125.34 195.954 127.134 195.515 128.929Z" fill="black"/>
<path d="M119.314 124.901C122.024 123.949 124.807 123.253 127.59 122.704C130.373 122.118 133.192 121.715 136.048 121.422C138.904 121.093 141.761 120.983 144.617 121.019C145.349 121.056 146.045 121.056 146.777 121.093C147.51 121.129 148.205 121.202 148.938 121.276C150.366 121.385 151.794 121.642 153.222 121.935C154.101 122.118 154.687 122.997 154.504 123.875C154.357 124.644 153.661 125.194 152.929 125.194H152.856C150.109 125.23 147.363 125.194 144.617 125.23C141.871 125.267 139.124 125.304 136.341 125.413C133.558 125.523 130.812 125.633 127.992 125.78C125.209 125.926 122.39 126.109 119.607 126.219C119.241 126.219 118.911 125.926 118.875 125.56C118.838 125.267 119.058 125.011 119.314 124.901Z" fill="black"/>
<path d="M197.968 127.098C196.98 126.988 195.991 126.805 195.039 126.622L192.219 126.036C191.267 125.853 190.352 125.67 189.4 125.523C188.448 125.34 187.532 125.23 186.544 125.047H186.471C185.885 124.937 185.518 124.388 185.628 123.802C185.702 123.399 186.031 123.07 186.434 122.96C186.69 122.887 186.983 122.85 187.239 122.814C187.496 122.777 187.789 122.74 188.045 122.704C188.301 122.667 188.594 122.667 188.851 122.63C189.107 122.63 189.4 122.63 189.656 122.63C190.755 122.667 191.817 122.814 192.842 123.033C193.867 123.253 194.893 123.583 195.881 124.059C196.87 124.535 197.785 125.047 198.591 125.816C198.884 126.073 198.921 126.549 198.628 126.842C198.481 127.025 198.225 127.098 198.005 127.061L197.968 127.098Z" fill="black"/>
<path d="M233.451 173.273L175.888 182.098C174.057 182.391 172.483 183.599 171.75 185.32L155.529 224.721L217.632 215.2L234.403 174.445C234.66 173.822 234.11 173.163 233.451 173.273Z" fill="#A3A3A3"/>
<path d="M233.524 173.785L180.978 181.951L177.682 182.464L176.035 182.72C175.522 182.793 175.083 182.94 174.643 183.16C173.764 183.562 173.032 184.295 172.556 185.137C172.336 185.54 172.153 186.089 171.933 186.602L171.311 188.14L166.258 200.443L156.188 225.05L155.382 224.025L217.486 214.504L216.9 214.98L225.761 193.779L230.192 183.196L232.389 177.887L233.488 175.25L233.781 174.591L233.854 174.408L233.891 174.335V174.298C233.891 174.261 233.927 174.188 233.891 174.152C233.891 174.042 233.817 173.969 233.744 173.895C233.708 173.785 233.634 173.785 233.524 173.785ZM233.378 172.724C233.744 172.65 234.184 172.76 234.477 173.016C234.769 173.273 234.989 173.602 235.026 174.005C235.062 174.188 235.026 174.408 234.953 174.591L234.916 174.737L234.879 174.811L234.806 174.994L234.55 175.653L233.451 178.326L231.291 183.636L226.97 194.291L218.328 215.566C218.218 215.823 217.999 215.969 217.742 216.042L155.639 225.563C155.236 225.636 154.833 225.343 154.796 224.94C154.76 224.794 154.796 224.647 154.833 224.538L165.013 199.967L170.103 187.7L170.725 186.162C170.945 185.65 171.128 185.137 171.421 184.588C172.007 183.489 172.959 182.574 174.094 182.061C174.643 181.805 175.266 181.622 175.852 181.512L177.499 181.255L180.795 180.743L233.378 172.724Z" fill="black"/>
<path d="M155.419 225.49L123.232 219.924C123.159 219.924 123.122 219.887 123.049 219.85C122.756 219.704 122.536 219.411 122.39 219.081C122.28 218.752 122.28 218.422 122.39 218.093C122.5 217.8 122.719 217.507 123.012 217.324C123.159 217.251 123.305 217.177 123.488 217.141C123.598 217.104 123.598 217.141 123.671 217.104L123.818 217.067L126.271 216.701L131.178 215.969L141.028 214.504L160.728 211.611C160.912 211.575 161.058 211.721 161.095 211.868C161.131 212.014 160.985 212.197 160.838 212.234L141.175 215.383L131.361 216.958L126.454 217.763L124.001 218.166L123.854 218.203C123.818 218.203 123.745 218.203 123.708 218.239C123.671 218.239 123.635 218.276 123.598 218.276C123.525 218.312 123.488 218.386 123.452 218.459C123.415 218.642 123.452 218.789 123.598 218.862L123.415 218.789L155.675 223.952C156.078 224.025 156.371 224.391 156.298 224.83C156.224 225.27 155.822 225.563 155.419 225.49Z" fill="black"/>
<path d="M126.271 227.54C127.772 223.476 127.443 219.594 127.443 219.594C127.443 219.594 132.789 219.704 134.986 218.349C137.183 216.994 135.572 212.856 135.572 212.856C134.254 208.572 129.933 206.778 125.685 206.924C119.167 207.144 113.931 209.854 111.807 216.408C111.807 216.408 115.359 217.983 117.959 219.924C120.559 221.864 126.271 227.54 126.271 227.54Z" fill="#F5D1BE"/>
<path d="M186.251 224.94C186.251 224.94 189.4 226.112 190.608 222.78C191.561 220.253 191.341 213.369 193.867 212.014C200.459 208.462 204.12 215.237 205.365 220.766C206.574 226.295 206.903 230.982 200.092 232.703C195.662 228.675 191.158 225.307 186.251 224.94Z" fill="#F5D1BE"/>
<path d="M109.5 185.173C103.349 188.872 97.7462 193.522 92.9859 198.905C88.189 204.288 84.2342 210.403 81.0851 216.884C79.5106 220.107 78.1557 223.512 76.9473 226.881C75.7755 230.286 74.9333 233.765 74.3841 237.317C73.8348 240.869 73.5785 244.494 73.6517 248.083C73.725 251.671 74.1278 255.26 74.97 258.702C75.4094 260.423 75.9953 262.107 76.7276 263.682C77.46 265.256 78.412 266.721 79.5838 268.003C80.7556 269.248 82.147 270.273 83.685 270.932C84.0512 271.115 84.4539 271.225 84.8934 271.372C85.2962 271.518 85.7356 271.628 86.175 271.738C87.0172 271.957 87.896 272.14 88.7748 272.25C92.2535 272.763 95.842 272.47 99.2841 271.518C101.005 271.042 102.69 270.419 104.301 269.687C105.106 269.321 105.912 268.918 106.718 268.515L107.889 267.856L109.024 267.16C111.99 265.22 114.59 262.693 116.678 259.837C118.801 256.944 120.449 253.722 121.767 250.39C124.404 243.652 125.759 236.475 126.747 229.261L126.894 229.81C125.722 228.272 124.404 226.844 123.012 225.526C121.621 224.208 120.083 223 118.472 221.938C116.861 220.876 115.176 219.924 113.419 219.155C112.54 218.789 111.624 218.459 110.709 218.203C109.793 217.946 108.878 217.8 107.963 217.763L108.329 217.653C103.532 220.766 99.1743 224.611 95.366 228.895C91.5578 233.179 88.2256 237.94 85.4792 242.956C85.3328 243.213 85.0032 243.322 84.7469 243.176C84.4906 243.029 84.3807 242.7 84.5272 242.444C87.3101 237.317 90.6423 232.484 94.4872 228.089C98.3321 223.695 102.726 219.777 107.633 216.555C107.743 216.482 107.889 216.445 107.999 216.445C109.061 216.482 110.086 216.665 111.075 216.921C112.064 217.177 113.016 217.507 113.968 217.91C115.835 218.679 117.593 219.667 119.277 220.766C120.962 221.864 122.536 223.109 124.001 224.501C125.466 225.856 126.857 227.357 128.066 228.932C128.175 229.078 128.249 229.298 128.212 229.481C127.26 236.768 125.942 244.055 123.269 251.012C121.914 254.491 120.229 257.823 118.032 260.862C115.835 263.902 113.126 266.611 109.976 268.662L108.768 269.431L107.523 270.127C106.681 270.566 105.875 270.969 104.996 271.372C103.312 272.14 101.518 272.8 99.7235 273.312C96.0984 274.338 92.2535 274.704 88.4819 274.154C87.5298 274.008 86.6144 273.825 85.699 273.605C85.2229 273.495 84.7835 273.349 84.3441 273.202C83.8681 273.056 83.4287 272.909 82.9526 272.69C81.1217 271.921 79.5106 270.749 78.1557 269.321C76.8375 267.893 75.7389 266.245 74.9333 264.524C74.0911 262.803 73.4686 261.009 72.9926 259.178C72.0405 255.516 71.6378 251.781 71.5279 248.083C71.418 244.348 71.6744 240.649 72.2236 236.951C72.7729 233.289 73.6151 229.627 74.8235 226.075C76.0319 222.56 77.4233 219.155 78.9979 215.786C82.2203 209.085 86.2482 202.787 91.155 197.184C96.0618 191.582 101.811 186.711 108.182 182.83C108.805 182.464 109.61 182.647 110.013 183.269C110.306 183.965 110.123 184.807 109.5 185.173Z" fill="black"/>
<path d="M73.7613 252.44C73.2852 257.567 73.5782 262.803 74.3837 267.929C75.226 273.056 76.5442 278.073 78.7779 282.76C80.9749 287.447 83.8677 291.804 87.3464 295.649C89.0675 297.59 90.9716 299.347 92.9489 300.995C94.9263 302.643 97.0501 304.144 99.2838 305.426L98.8444 305.316C98.6247 305.316 98.3317 305.426 98.1852 305.609L98.1486 305.646C98.1486 305.646 98.1486 305.682 98.1486 305.646L98.1852 305.609L98.2585 305.499L98.405 305.243L98.6979 304.694L99.3204 303.558C99.7232 302.826 100.163 302.057 100.602 301.325C101.444 299.823 102.36 298.359 103.275 296.931C105.106 294.038 107.047 291.182 109.097 288.435C111.148 285.689 113.345 283.016 115.689 280.526C118.032 277.999 120.485 275.619 123.122 273.422C123.342 273.239 123.708 273.239 123.891 273.495C124.074 273.715 124.074 274.081 123.818 274.264C121.254 276.498 118.874 278.915 116.641 281.441C114.407 283.968 112.246 286.604 110.269 289.351C108.255 292.097 106.388 294.917 104.63 297.809C103.751 299.274 102.872 300.739 102.067 302.204C101.664 302.936 101.261 303.668 100.858 304.437L100.272 305.572L99.9795 306.122L99.833 306.415L99.7598 306.561L99.7232 306.671L99.6866 306.744L99.65 306.817C99.5035 307 99.2105 307.147 98.9542 307.147H98.9176C98.7711 307.147 98.6247 307.11 98.5148 307.037C96.1713 305.719 93.9376 304.181 91.887 302.497C89.7998 300.812 87.8591 298.981 86.0648 297.004C82.4763 293.049 79.437 288.545 77.1301 283.712C75.9583 281.295 75.0063 278.768 74.2373 276.205C73.4683 273.642 72.919 271.005 72.4796 268.405C72.0402 265.769 71.7839 263.096 71.6374 260.423C71.5276 257.75 71.5276 255.077 71.8205 252.367C71.8571 251.818 72.3698 251.415 72.919 251.451C73.4683 251.488 73.7979 251.854 73.7613 252.44Z" fill="black"/>
<path d="M151.171 271.628C149.157 272.324 147.143 273.129 145.532 274.484C144.251 275.546 143.298 276.937 142.2 278.146C140.882 279.647 139.38 280.965 137.733 282.064C135.865 283.346 133.631 284.334 131.398 284.005C128.175 283.529 126.015 280.489 124.843 277.45C123.708 274.411 123.159 271.115 121.364 268.406C120.486 267.051 119.314 265.952 118.289 264.671C116.165 262.034 114.773 258.848 114.261 255.516C113.785 252.477 114.041 249.218 112.613 246.472C111.917 245.153 110.892 244.018 110.269 242.7C109.098 240.21 109.574 236.914 111.734 235.193C113.894 233.472 117.593 233.985 118.874 236.438L119.387 237.061C120.046 236.365 120.998 235.926 121.95 236.072C122.829 236.182 123.562 236.768 124.147 237.39L124.66 238.013C124.88 237.976 125.099 237.976 125.319 237.94C125.978 237.94 126.637 237.976 127.26 238.233C127.882 238.489 128.285 239.038 128.542 239.624L129.237 240.649C129.86 240.466 130.556 240.613 131.178 240.869C131.617 241.052 132.277 241.565 132.533 241.968L132.972 242.956C133.705 242.517 134.767 242.59 135.499 243.139C136.341 243.725 136.781 244.714 136.964 245.739C137.147 246.764 137.11 247.79 136.964 248.778C136.964 248.815 136.964 248.852 136.964 248.888C138.611 249.95 141.614 252.513 145.569 258.629C151.794 268.332 151.171 271.628 151.171 271.628Z" fill="#F5D1BE"/>
<path d="M117.703 237.537C117.446 237.024 116.97 236.585 116.348 236.292C115.725 236.035 114.993 235.926 114.334 235.999C113.638 236.072 112.979 236.328 112.503 236.731C111.954 237.171 111.551 237.757 111.295 238.452C110.745 239.844 110.819 241.492 111.514 242.846C111.881 243.542 112.393 244.274 112.906 245.043C113.455 245.812 113.968 246.801 114.297 247.79C114.956 249.767 115.066 251.708 115.213 253.539C115.286 254.454 115.359 255.333 115.506 256.212C115.652 257.054 115.835 257.933 116.092 258.738C116.604 260.386 117.373 261.997 118.362 263.426C118.838 264.158 119.387 264.817 119.973 265.513C120.559 266.208 121.218 266.904 121.804 267.71C122.39 268.515 122.902 269.394 123.305 270.273C123.708 271.152 124.038 272.067 124.331 272.983C124.916 274.777 125.356 276.571 126.015 278.182C126.674 279.794 127.626 281.295 128.871 282.357C129.494 282.906 130.189 283.309 130.958 283.529C131.727 283.748 132.496 283.785 133.302 283.675C134.913 283.419 136.488 282.54 137.916 281.551C139.38 280.526 140.699 279.318 141.87 277.963C142.456 277.304 143.042 276.571 143.665 275.839C144.287 275.143 145.02 274.447 145.825 273.862C147.436 272.726 149.267 272.067 151.025 271.481C151.391 271.372 151.794 271.555 151.904 271.921C152.014 272.287 151.83 272.653 151.464 272.8C149.743 273.386 148.095 274.081 146.704 275.107C145.312 276.095 144.287 277.56 143.042 278.988C141.797 280.453 140.406 281.734 138.868 282.869C138.099 283.419 137.293 283.968 136.414 284.407C135.536 284.847 134.584 285.213 133.558 285.396C132.533 285.579 131.434 285.543 130.446 285.25C129.42 284.957 128.505 284.407 127.699 283.785C126.125 282.467 125.063 280.746 124.294 278.951C123.525 277.157 123.086 275.363 122.5 273.642C121.914 271.921 121.255 270.346 120.229 268.991C119.717 268.296 119.094 267.637 118.472 266.941C117.849 266.245 117.227 265.476 116.677 264.67C115.579 263.059 114.7 261.302 114.078 259.471C113.785 258.555 113.528 257.603 113.345 256.651C113.162 255.699 113.089 254.747 112.979 253.795C112.833 251.964 112.686 250.17 112.137 248.632C111.881 247.863 111.478 247.204 111.002 246.471C110.489 245.739 109.903 244.97 109.427 244.018C108.438 242.077 108.292 239.734 109.024 237.683C109.391 236.658 110.05 235.669 110.928 234.9C111.844 234.131 112.979 233.692 114.114 233.545C115.249 233.399 116.421 233.545 117.483 234.021C118.545 234.498 119.57 235.303 120.156 236.438C120.486 237.097 120.266 237.903 119.607 238.233C118.875 238.452 118.069 238.196 117.703 237.537Z" fill="black"/>
<path d="M118.325 245.666C117.813 244.604 117.483 243.396 117.373 242.187C117.263 240.979 117.3 239.734 117.739 238.489C117.959 237.866 118.289 237.244 118.801 236.695C119.314 236.182 119.936 235.743 120.669 235.523C121.035 235.413 121.438 235.34 121.877 235.34H122.17C122.28 235.34 122.353 235.34 122.463 235.376C122.646 235.413 122.829 235.45 123.049 235.486C123.452 235.596 123.818 235.779 124.147 235.999C124.477 236.219 124.733 236.475 124.99 236.695C125.502 237.207 125.539 238.049 125.026 238.562C124.514 239.075 123.671 239.111 123.159 238.599C123.122 238.562 123.086 238.525 123.049 238.489C122.902 238.306 122.756 238.159 122.646 238.049C122.536 237.94 122.39 237.866 122.28 237.793C122.207 237.756 122.134 237.72 122.024 237.683C121.987 237.683 121.914 237.647 121.877 237.647L121.767 237.61C121.621 237.573 121.474 237.573 121.291 237.61C120.962 237.683 120.559 237.83 120.266 238.086C119.973 238.342 119.68 238.709 119.497 239.111C119.094 239.954 118.911 241.015 118.911 242.041C118.911 243.066 119.058 244.128 119.424 245.153C119.534 245.446 119.387 245.776 119.094 245.849C118.728 246.069 118.435 245.922 118.325 245.666Z" fill="black"/>
<path d="M122.243 246.362C121.987 245.263 121.804 244.091 121.767 242.883C121.767 242.26 121.804 241.675 121.914 241.052C122.023 240.43 122.206 239.807 122.536 239.185C122.719 238.892 122.902 238.599 123.159 238.306C123.268 238.159 123.415 238.049 123.561 237.94C123.708 237.83 123.854 237.683 124.037 237.61C124.733 237.207 125.649 237.061 126.418 237.207C127.187 237.354 127.846 237.683 128.432 238.086C129.017 238.525 129.493 239.002 129.933 239.661V239.697C130.336 240.32 130.153 241.125 129.53 241.528C128.908 241.931 128.102 241.748 127.699 241.125C127.663 241.089 127.626 241.015 127.626 240.979C127.479 240.649 127.223 240.32 126.93 240.027C126.637 239.734 126.271 239.551 125.941 239.441C125.612 239.331 125.319 239.331 125.026 239.441C124.953 239.478 124.88 239.514 124.806 239.551C124.733 239.624 124.66 239.661 124.587 239.734C124.44 239.88 124.294 240.027 124.184 240.21C123.671 240.906 123.415 241.968 123.305 242.993C123.195 244.018 123.268 245.117 123.378 246.215C123.415 246.508 123.195 246.801 122.902 246.838C122.536 246.801 122.28 246.618 122.243 246.362Z" fill="black"/>
<path d="M127.406 247.131C127.186 246.288 126.93 245.373 126.857 244.384C126.82 243.908 126.82 243.396 126.93 242.883C127.04 242.37 127.186 241.858 127.516 241.308C127.699 241.052 127.882 240.796 128.175 240.576C128.322 240.466 128.468 240.393 128.615 240.32C128.761 240.247 128.907 240.173 129.054 240.137C129.64 239.917 130.299 239.844 130.885 239.954C132.093 240.137 133.119 240.759 133.924 241.638L133.961 241.675C134.437 242.224 134.4 243.066 133.851 243.542C133.302 244.018 132.459 243.982 131.983 243.432C131.947 243.359 131.873 243.322 131.837 243.249C131.544 242.773 131.031 242.334 130.482 242.151C130.226 242.077 129.933 242.041 129.713 242.077C129.42 242.151 129.31 242.187 129.091 242.407C128.907 242.59 128.724 242.92 128.615 243.249C128.505 243.579 128.431 243.982 128.395 244.348C128.322 245.153 128.431 245.996 128.505 246.874C128.541 247.167 128.322 247.46 128.029 247.497C127.736 247.57 127.479 247.387 127.406 247.131Z" fill="black"/>
<path d="M131.91 247.68C131.727 247.167 131.507 246.618 131.398 245.995C131.288 245.373 131.324 244.677 131.581 244.055C131.727 243.725 131.91 243.396 132.203 243.139C132.496 242.883 132.826 242.663 133.155 242.553C133.851 242.297 134.62 242.37 135.279 242.59C135.975 242.846 136.524 243.322 136.927 243.872C137.33 244.421 137.586 245.007 137.769 245.629C137.842 245.959 137.915 246.252 137.952 246.545C137.989 246.838 138.025 247.131 138.025 247.424C138.062 248.009 138.025 248.632 137.952 249.218C137.952 249.291 137.915 249.364 137.915 249.438C137.915 249.474 137.915 249.511 137.915 249.547C137.915 249.621 137.915 249.73 137.915 249.804C137.915 249.914 137.952 249.987 137.989 250.097C138.025 250.207 138.062 250.316 138.099 250.426C138.245 250.866 138.465 251.342 138.721 251.818C139.197 252.77 139.783 253.758 140.076 255.077C140.479 257.274 140.625 259.581 140.259 261.814C140.186 262.18 139.856 262.437 139.49 262.4C139.16 262.364 138.904 262.071 138.904 261.741C138.868 259.617 138.611 257.53 138.172 255.479C138.099 255.077 137.915 254.637 137.696 254.161C137.476 253.685 137.256 253.209 137 252.696C136.744 252.184 136.524 251.671 136.304 251.049C136.268 250.902 136.231 250.756 136.194 250.573C136.158 250.39 136.121 250.243 136.121 250.06C136.121 249.877 136.085 249.694 136.121 249.511L136.158 249.218C136.158 249.145 136.158 249.108 136.194 249.035C136.268 248.559 136.304 248.046 136.304 247.57C136.304 247.314 136.304 247.094 136.268 246.838C136.231 246.581 136.194 246.362 136.158 246.142C135.975 245.263 135.499 244.458 134.803 244.165C134.437 244.018 134.034 243.981 133.704 244.055C133.375 244.165 133.119 244.348 132.935 244.714C132.752 245.08 132.679 245.483 132.716 245.959C132.752 246.435 132.862 246.911 133.009 247.424C133.082 247.717 132.935 248.009 132.643 248.119C132.276 248.119 132.02 247.973 131.91 247.68Z" fill="black"/>
<path d="M125.905 269.614C125.759 269.614 125.612 269.541 125.575 269.394C125.502 269.211 125.575 268.991 125.759 268.882C127.406 268.149 129.237 267.783 131.031 267.856C131.251 267.856 131.398 268.039 131.398 268.259C131.398 268.479 131.215 268.625 130.995 268.625C129.31 268.552 127.589 268.882 126.088 269.577C126.015 269.614 125.942 269.614 125.905 269.614Z" fill="black"/>
<path d="M198.042 262.144C199.726 258.372 200.825 254.344 201.337 250.243C201.814 246.142 201.667 241.968 200.459 238.086C200.166 237.097 199.8 236.182 199.324 235.267C198.884 234.351 198.371 233.509 197.786 232.703C196.65 231.092 195.076 229.847 193.318 228.932C192.439 228.456 191.487 228.053 190.535 227.723C189.583 227.394 188.595 227.137 187.606 226.918C185.592 226.515 183.541 226.332 181.491 226.405C177.39 226.478 173.288 227.43 169.37 228.822C165.452 230.213 161.681 232.081 158.092 234.205C150.915 238.525 144.434 243.908 138.209 249.621L138.245 248.339C141.687 251.781 144.617 255.699 146.96 259.947C149.304 264.195 151.098 268.735 152.306 273.386L151.647 272.8C155.858 273.239 160.069 273.312 164.28 272.91C168.491 272.543 172.629 271.701 176.621 270.383C180.612 269.065 184.42 267.197 187.862 264.78C191.304 262.364 194.344 259.398 196.724 255.919C196.907 255.663 197.236 255.589 197.493 255.772C197.749 255.956 197.822 256.285 197.639 256.541C195.186 260.13 192.073 263.242 188.558 265.732C185.043 268.259 181.125 270.236 177.023 271.591C172.922 272.983 168.674 273.862 164.39 274.301C160.106 274.74 155.748 274.704 151.464 274.301C151.135 274.264 150.878 274.045 150.805 273.752C149.597 269.211 147.802 264.817 145.496 260.716C143.189 256.615 140.332 252.843 136.964 249.584C136.597 249.254 136.597 248.669 136.964 248.339L137 248.302C143.225 242.553 149.816 237.061 157.14 232.63C160.802 230.433 164.683 228.492 168.711 227.064C172.739 225.636 177.023 224.647 181.381 224.538C183.541 224.464 185.738 224.647 187.899 225.087C188.961 225.307 190.023 225.599 191.085 225.966C192.11 226.295 193.135 226.771 194.124 227.284C196.065 228.309 197.895 229.774 199.25 231.605C199.909 232.484 200.459 233.472 200.971 234.461C201.447 235.45 201.887 236.475 202.216 237.537C203.535 241.748 203.681 246.215 203.205 250.499C202.692 254.82 201.521 258.995 199.8 262.949C199.58 263.426 199.031 263.645 198.555 263.426C198.079 263.206 197.822 262.62 198.042 262.144Z" fill="black"/>
<path d="M133.302 314.507C130.812 314.507 128.322 314.361 125.868 314.068C123.378 313.775 120.705 313.299 117.483 312.566C114.956 311.98 112.247 311.321 109.647 310.223C105.692 308.575 103.019 306.817 100.383 304.071C99.8699 303.558 99.9065 302.716 100.419 302.204C100.932 301.691 101.774 301.728 102.287 302.24C104.63 304.657 107.047 306.268 110.672 307.769C113.089 308.758 115.652 309.417 118.069 309.967C121.181 310.662 123.781 311.138 126.198 311.431C139.307 313.006 153.222 310.15 166.404 303.119C167.063 302.789 167.832 303.009 168.198 303.668C168.528 304.327 168.308 305.096 167.649 305.463C156.408 311.431 144.69 314.507 133.302 314.507Z" fill="black"/>
<path d="M195.625 258.409C197.163 259.983 198.518 261.705 199.726 263.535C200.935 265.366 201.997 267.27 202.949 269.211C204.853 273.129 206.244 277.267 207.27 281.478C208.295 285.689 208.917 290.01 209.284 294.331C209.65 298.652 209.833 302.936 209.979 307.257C209.979 307.55 209.833 307.843 209.613 307.989C205.475 311.065 200.861 313.445 195.955 315.093C191.085 316.741 185.921 317.583 180.758 317.73C180.539 317.73 180.319 317.656 180.136 317.547C176.035 314.983 172.153 311.944 168.858 308.319C167.21 306.488 165.708 304.547 164.427 302.423C163.145 300.3 162.083 298.066 161.314 295.686C161.095 294.99 161.461 294.258 162.157 294.001C162.852 293.782 163.585 294.148 163.841 294.844C165.196 299.201 167.649 303.192 170.725 306.634C173.801 310.113 177.426 313.079 181.344 315.606L180.722 315.423C185.665 315.386 190.608 314.617 195.296 313.116C200.019 311.614 204.487 309.381 208.478 306.488L208.112 307.257C208.002 302.973 207.929 298.688 207.599 294.404C207.306 290.156 206.757 285.909 205.768 281.771C204.816 277.633 203.498 273.569 201.704 269.724C200.788 267.783 199.8 265.952 198.628 264.158C197.456 262.364 196.211 260.679 194.746 259.141C194.527 258.922 194.527 258.555 194.746 258.372C195.039 258.189 195.405 258.189 195.625 258.409Z" fill="black"/>
<path d="M200.678 334.39C201.557 334.976 202.143 335.928 202.326 336.954C202.436 337.466 202.399 338.016 202.253 338.528C202.107 339.041 201.85 339.517 201.521 339.92C200.862 340.725 199.873 341.311 198.774 341.384C197.676 341.421 196.76 341.092 195.881 340.652C195.442 340.432 195.039 340.176 194.637 339.883C194.453 339.737 194.234 339.59 194.087 339.407C193.904 339.261 193.758 339.078 193.575 338.931C192.915 338.272 192.33 337.576 191.78 336.88C190.645 335.526 189.547 334.207 188.228 333.329C187.899 333.109 187.533 332.889 187.166 332.706C186.8 332.523 186.398 332.303 185.995 332.12C185.226 331.754 184.42 331.388 183.578 330.948C182.736 330.509 181.93 330.07 181.161 329.484C180.392 328.898 179.66 328.202 179.074 327.323C177.902 325.602 177.463 323.515 177.683 321.464C177.902 319.45 178.818 317.436 180.392 316.008C180.941 315.532 181.784 315.569 182.26 316.118C182.736 316.668 182.699 317.51 182.15 317.986L182.113 318.022C181.015 318.938 180.282 320.293 180.063 321.794C179.843 323.259 180.136 324.833 180.905 326.115C181.674 327.396 183.029 328.312 184.493 329.154C185.226 329.557 186.031 329.96 186.837 330.399C187.24 330.619 187.643 330.839 188.009 331.058C188.411 331.278 188.814 331.534 189.217 331.827C190.023 332.413 190.682 333.072 191.304 333.768C191.927 334.464 192.476 335.159 193.025 335.892C193.575 336.588 194.087 337.283 194.673 337.869C194.82 338.016 194.966 338.162 195.113 338.309C195.259 338.455 195.405 338.565 195.552 338.711C195.845 338.968 196.211 339.187 196.541 339.37C197.236 339.737 198.005 340.03 198.701 340.03C199.36 340.03 200.056 339.663 200.532 339.151C201.008 338.602 201.228 337.906 201.118 337.173C201.008 336.441 200.642 335.745 200.056 335.343C199.8 335.159 199.763 334.83 199.946 334.574C200.093 334.281 200.422 334.244 200.678 334.39Z" fill="black"/>
<path d="M201.813 339.114C202.253 339.407 202.619 339.7 203.022 339.847C203.388 340.03 203.827 340.103 204.267 340.14C205.109 340.176 205.915 339.81 206.427 339.114C206.684 338.785 206.867 338.345 206.977 337.942C207.086 337.503 207.086 337.064 207.013 336.624C206.867 335.709 206.427 334.83 205.805 334.098C205.622 333.878 205.658 333.585 205.841 333.402C206.024 333.219 206.354 333.255 206.501 333.438C207.269 334.244 207.892 335.269 208.112 336.405C208.222 336.99 208.258 337.576 208.148 338.199C208.038 338.785 207.819 339.371 207.489 339.883C207.16 340.396 206.684 340.835 206.098 341.165C205.548 341.458 204.889 341.604 204.267 341.641C203.644 341.641 203.058 341.531 202.436 341.311C202.143 341.201 201.887 341.055 201.63 340.908C201.374 340.762 201.154 340.616 200.935 340.469C200.568 340.249 200.422 339.737 200.678 339.371C200.898 339.004 201.411 338.858 201.777 339.114C201.777 339.078 201.777 339.114 201.813 339.114Z" fill="black"/>
<path d="M207.928 338.382C208.404 338.565 208.844 338.675 209.283 338.711C209.503 338.711 209.759 338.675 210.016 338.638C210.272 338.602 210.528 338.528 210.748 338.455C211.663 338.162 212.469 337.466 212.872 336.624C212.982 336.405 213.055 336.185 213.092 335.965C213.128 335.745 213.165 335.489 213.165 335.269C213.165 334.793 213.018 334.317 212.799 333.878C212.359 332.962 211.59 332.23 210.675 331.718C210.418 331.571 210.309 331.241 210.455 330.985C210.602 330.729 210.894 330.619 211.151 330.765C212.249 331.315 213.238 332.194 213.824 333.329C214.117 333.878 214.337 334.537 214.373 335.196C214.373 335.526 214.373 335.855 214.337 336.221C214.263 336.551 214.19 336.881 214.044 337.174C213.494 338.382 212.469 339.334 211.224 339.81C210.894 339.92 210.638 339.993 210.309 340.066C210.016 340.14 209.649 340.176 209.32 340.176C208.624 340.213 207.965 340.066 207.343 339.81C206.94 339.664 206.757 339.224 206.903 338.821C207.05 338.419 207.489 338.235 207.928 338.382C207.892 338.382 207.928 338.382 207.928 338.382Z" fill="black"/>
<path d="M214.41 335.489C214.959 335.709 215.472 335.855 216.021 335.819C216.278 335.819 216.571 335.782 216.827 335.709C217.083 335.636 217.376 335.526 217.633 335.416C218.621 334.976 219.463 334.024 219.72 332.963C219.793 332.706 219.83 332.413 219.83 332.157C219.83 331.864 219.793 331.608 219.72 331.351C219.537 330.839 219.244 330.436 218.804 330.216C218.365 329.96 217.742 329.85 217.083 329.74C216.424 329.63 215.728 329.52 214.996 329.191C214.74 329.081 214.63 328.751 214.74 328.459C214.85 328.202 215.179 328.092 215.435 328.202C215.948 328.422 216.534 328.495 217.193 328.568C217.852 328.642 218.585 328.715 219.317 329.081C219.683 329.264 220.013 329.52 220.306 329.813C220.562 330.143 220.782 330.472 220.928 330.875C221.075 331.241 221.148 331.644 221.148 332.01C221.184 332.413 221.148 332.779 221.038 333.182C220.708 334.72 219.646 335.965 218.292 336.661C217.925 336.844 217.633 336.954 217.23 337.064C216.864 337.174 216.497 337.247 216.095 337.283C215.289 337.32 214.52 337.174 213.824 336.917C213.385 336.771 213.202 336.295 213.348 335.855C213.458 335.526 213.934 335.306 214.41 335.489C214.374 335.489 214.374 335.489 214.41 335.489Z" fill="black"/>
<path d="M206.427 309.93C208.075 312.493 209.979 314.873 212.103 316.997C213.165 318.059 214.3 319.084 215.472 320.037C216.644 320.989 217.852 321.831 219.207 322.087C219.903 322.234 220.635 322.27 221.404 322.343C222.173 322.417 223.015 322.49 223.821 322.783C224.626 323.039 225.468 323.479 226.054 324.248C226.64 324.98 226.933 325.895 227.006 326.774C227.08 327.653 226.97 328.532 226.713 329.337C226.457 330.143 226.054 330.949 225.468 331.608C224.919 332.267 224.15 332.853 223.308 333.146C222.466 333.475 221.514 333.585 220.598 333.402C220.159 333.329 219.866 332.889 219.939 332.45C220.012 332.011 220.452 331.718 220.891 331.791C221.477 331.901 222.136 331.864 222.722 331.644C223.308 331.425 223.857 331.058 224.297 330.582C225.175 329.594 225.651 328.202 225.542 326.884C225.505 326.225 225.322 325.602 224.919 325.126C224.553 324.65 224.004 324.321 223.345 324.101C222.063 323.625 220.525 323.735 218.877 323.405C218.072 323.222 217.266 322.893 216.57 322.453C215.875 322.014 215.252 321.538 214.666 321.025C213.494 320 212.359 318.938 211.261 317.803C209.1 315.569 207.196 313.079 205.585 310.443C205.439 310.223 205.512 309.967 205.731 309.82C206.024 309.637 206.281 309.71 206.427 309.93Z" fill="black"/>
<path d="M131.214 189.128C132.643 190.007 134.144 190.813 135.682 191.582C137.22 192.314 138.758 192.973 140.369 193.596C143.555 194.767 146.814 195.646 150.146 195.939C153.441 196.269 156.81 195.902 159.776 194.731C161.278 194.145 162.632 193.303 163.914 192.314L164.829 191.545C165.122 191.289 165.379 190.959 165.672 190.703L166.074 190.263L166.441 189.787L167.21 188.835L167.283 188.762C167.759 188.213 168.564 188.103 169.15 188.579C169.736 189.055 169.809 189.861 169.333 190.446L169.297 190.483L168.418 191.508L167.979 192.021L167.503 192.497C167.173 192.79 166.843 193.156 166.514 193.449L165.452 194.291C163.987 195.353 162.339 196.269 160.618 196.891C157.176 198.1 153.478 198.319 149.963 197.843C146.447 197.404 143.079 196.378 139.856 195.024C138.245 194.365 136.67 193.596 135.133 192.79C133.595 191.984 132.093 191.106 130.665 190.117C130.409 189.934 130.336 189.604 130.519 189.348C130.629 189.055 130.958 188.982 131.214 189.128Z" fill="black"/>
<path d="M186.361 224.867C187.313 225.05 188.265 225.05 188.924 224.611C189.583 224.208 189.95 223.329 190.169 222.414C190.609 220.51 190.572 218.422 190.938 216.335C191.121 215.273 191.414 214.175 192.11 213.186C192.44 212.673 192.879 212.234 193.392 211.868C193.868 211.538 194.38 211.245 194.93 211.026C196.028 210.586 197.31 210.513 198.445 210.806C199.617 211.062 200.642 211.648 201.521 212.307C203.315 213.662 204.633 215.42 205.732 217.324C206.244 218.276 206.72 219.265 207.087 220.29C207.453 221.352 207.709 222.45 207.782 223.585C207.856 224.721 207.782 225.892 207.489 227.028C207.196 228.163 206.647 229.261 205.878 230.213C205.109 231.129 204.157 231.898 203.169 232.484C202.143 233.069 201.081 233.472 200.019 233.765C199.324 233.948 198.591 233.545 198.408 232.85C198.225 232.154 198.628 231.422 199.324 231.239H199.36C201.191 230.799 202.876 229.994 204.011 228.675C205.146 227.394 205.659 225.599 205.585 223.769C205.549 222.853 205.366 221.938 205.073 221.022C204.78 220.107 204.414 219.191 203.974 218.349C203.095 216.628 201.924 215.017 200.459 213.845C199.726 213.259 198.921 212.82 198.079 212.564C197.236 212.344 196.358 212.344 195.552 212.637C195.149 212.783 194.746 213.003 194.344 213.223C194.014 213.442 193.721 213.735 193.465 214.101C192.952 214.797 192.659 215.713 192.476 216.665C192.256 217.617 192.147 218.642 192.037 219.667C191.927 220.693 191.78 221.755 191.524 222.816C191.378 223.366 191.195 223.878 190.902 224.391C190.609 224.904 190.169 225.416 189.62 225.709C189.071 226.039 188.448 226.185 187.862 226.185C187.276 226.185 186.727 226.112 186.178 226.002C185.885 225.929 185.702 225.636 185.739 225.343C185.775 225.014 186.068 224.83 186.361 224.867Z" fill="black"/>
<path d="M110.562 216.482C111.002 215.2 111.588 213.918 112.393 212.747C113.162 211.575 114.114 210.55 115.213 209.671C117.41 207.913 120.083 206.961 122.719 206.558C123.378 206.448 124.038 206.412 124.697 206.375C125.026 206.338 125.356 206.339 125.685 206.339C126.015 206.339 126.381 206.339 126.711 206.339C128.066 206.412 129.457 206.668 130.739 207.181C132.02 207.693 133.265 208.426 134.254 209.451C135.243 210.476 135.975 211.758 136.378 213.076L136.341 213.003C136.561 213.625 136.707 214.211 136.817 214.834C136.927 215.456 136.964 216.079 136.927 216.738C136.854 217.397 136.671 218.129 136.195 218.752C135.975 219.045 135.645 219.338 135.316 219.521C135.023 219.704 134.73 219.814 134.4 219.924C133.192 220.363 132.02 220.51 130.849 220.619C129.677 220.729 128.542 220.766 127.333 220.729L128.029 219.997C128.066 220.729 128.066 221.388 128.029 222.121C127.992 222.816 127.919 223.512 127.809 224.171C127.699 224.867 127.553 225.526 127.37 226.185C127.187 226.844 126.967 227.504 126.747 228.163C126.637 228.456 126.308 228.602 126.052 228.492C125.759 228.382 125.612 228.089 125.722 227.796C125.942 227.174 126.125 226.551 126.271 225.929C126.418 225.306 126.528 224.647 126.601 223.988C126.674 223.329 126.747 222.707 126.747 222.047C126.784 221.388 126.747 220.729 126.711 220.107C126.674 219.741 126.967 219.411 127.333 219.374H127.37C128.468 219.374 129.603 219.301 130.702 219.155C131.801 219.008 132.899 218.825 133.851 218.459C134.071 218.349 134.327 218.276 134.51 218.129C134.693 218.02 134.803 217.91 134.913 217.763C135.133 217.47 135.243 217.031 135.279 216.591C135.352 215.639 135.096 214.541 134.73 213.625V213.589C134.364 212.49 133.778 211.538 132.972 210.769C132.167 210 131.141 209.414 130.08 209.048C129.018 208.682 127.809 208.462 126.637 208.462C126.345 208.462 126.052 208.462 125.759 208.462C125.466 208.462 125.136 208.499 124.843 208.536C124.221 208.572 123.635 208.645 123.049 208.755C120.705 209.158 118.435 210.074 116.714 211.575C114.956 213.04 113.748 215.09 113.052 217.324C112.833 218.02 112.1 218.422 111.405 218.203C110.709 217.983 110.306 217.251 110.526 216.555C110.526 216.518 110.526 216.482 110.562 216.482Z" fill="black"/>
<path d="M185.372 144.015C185.372 144.015 183.688 147.86 182.26 148.849C180.832 149.837 176.511 142.514 176.511 142.514C176.511 142.514 177.426 141.855 181.161 143.576C184.896 145.224 185.372 144.015 185.372 144.015Z" fill="#AC4035"/>
<path d="M173.471 152.877C178.085 152.95 181.051 150.826 182.919 148.483C182.113 146.615 180.355 143.503 177.096 142.441C175.778 142.514 174.423 143.136 172.519 143.503C169.846 144.052 166.367 144.748 163.328 143.503C163.475 146.578 165.086 152.73 173.471 152.877Z" fill="#AC4035"/>
<path d="M184.933 144.308C182.955 145.809 179.403 147.238 173.288 146.798C168.418 146.432 165.525 145.443 163.841 144.528C164.39 144.491 164.976 144.455 165.525 144.381C170.359 144.015 173.618 143.136 176.987 143.1C179.147 143.063 181.491 143.466 183.907 144.088C184.237 144.162 184.603 144.235 184.933 144.308Z" fill="white"/>
<path d="M162.523 141.855C164.024 142.807 165.855 143.32 167.832 143.466C168.821 143.539 169.846 143.466 170.835 143.246C171.824 143.063 172.812 142.807 173.801 142.514L175.302 142.075C175.815 141.928 176.364 141.782 176.95 141.708C177.536 141.635 178.195 141.672 178.781 141.855C179.074 141.928 179.367 142.038 179.623 142.184L179.989 142.367C180.099 142.404 180.209 142.477 180.319 142.514C181.161 142.88 182.077 143.1 182.992 143.136C183.468 143.136 183.907 143.136 184.383 143.063C184.603 143.027 184.859 142.99 185.079 142.953C185.299 142.917 185.519 142.843 185.738 142.77L185.848 142.734C186.471 142.587 187.093 142.953 187.276 143.576C187.459 144.198 187.057 144.821 186.434 145.004C186.397 145.004 186.324 145.041 186.288 145.041C185.702 145.114 185.116 145.15 184.567 145.187C184.017 145.224 183.431 145.187 182.845 145.114C181.71 144.967 180.575 144.638 179.55 144.088C179.44 144.015 179.294 143.942 179.184 143.869L178.854 143.686C178.671 143.576 178.488 143.466 178.305 143.393C177.902 143.246 177.499 143.173 177.06 143.173C176.62 143.173 176.144 143.283 175.668 143.393L174.167 143.759C172.153 144.272 170.066 144.711 167.905 145.004C166.807 145.15 165.708 145.187 164.573 144.967C164.28 144.931 164.024 144.857 163.731 144.784C163.438 144.711 163.182 144.601 162.889 144.528C162.34 144.308 161.827 144.052 161.314 143.722C160.802 143.356 160.692 142.697 161.021 142.184C161.351 141.672 162.01 141.525 162.523 141.855Z" fill="black"/>
<path d="M163.914 143.466C164.244 145.919 165.269 148.3 167.027 149.801C168.821 151.302 171.238 151.888 173.691 151.925C176.145 151.961 178.525 151.302 180.502 149.837C182.479 148.373 184.017 146.286 185.116 143.979C185.189 143.869 185.299 143.796 185.445 143.869C185.555 143.905 185.592 144.052 185.592 144.162C184.933 146.725 183.578 149.215 181.454 151.046C180.392 151.961 179.147 152.694 177.829 153.17C176.511 153.646 175.083 153.865 173.691 153.865C172.3 153.829 170.908 153.756 169.553 153.316C168.198 152.913 166.88 152.218 165.818 151.229C164.72 150.24 163.951 148.995 163.438 147.677C162.926 146.359 162.706 144.967 162.742 143.576C162.742 143.246 163.035 142.99 163.328 142.99C163.621 142.953 163.878 143.173 163.914 143.466Z" fill="black"/>
<path d="M164.5 144.418C166.148 144.967 167.869 145.407 169.553 145.773C171.274 146.102 172.995 146.359 174.68 146.322C175.522 146.322 176.437 146.249 177.279 146.176C178.158 146.102 179.037 145.993 179.879 145.883C180.722 145.736 181.6 145.59 182.443 145.37C183.285 145.15 184.09 144.857 184.823 144.418C184.896 144.381 184.969 144.381 185.006 144.455C185.042 144.528 185.042 144.601 184.969 144.638C184.273 145.26 183.431 145.663 182.589 145.993C181.747 146.322 180.868 146.578 179.989 146.762C178.232 147.164 176.437 147.384 174.643 147.494C172.812 147.567 170.981 147.311 169.224 146.871C167.466 146.432 165.782 145.846 164.134 145.077C163.951 145.004 163.877 144.784 163.951 144.601C164.134 144.455 164.317 144.381 164.5 144.418Z" fill="black"/>
</svg>
