<svg width="80" height="73" viewBox="0 0 80 73" fill="none" xmlns="http://www.w3.org/2000/svg">
<path d="M33.7959 57.967C33.7959 57.967 32.7773 52.0066 27.106 51.5524C21.4209 51.0981 20.416 55.2553 19.6864 57.0172C18.9569 58.7792 19.3698 64.6019 23.1553 65.8959C26.9408 67.1898 32.2266 65.538 34.1263 64.7671L33.7959 57.967Z" fill="#F5D1BE"/>
<path d="M31.9651 39.2462C32.1716 39.0948 36.4526 35.681 36.4526 35.681C36.4526 35.681 45.7579 32.7902 53.1224 35.2955C53.1224 35.2955 53.1912 34.1943 52.2276 33.2583C52.2276 33.2583 58.2431 33.3684 61.6982 35.268C61.6982 35.268 62.469 34.0842 61.4504 32.6526C61.4504 32.6526 68.0027 33.6024 69.3379 35.0478C69.3379 35.0478 69.8748 34.387 69.3379 32.6526C69.3379 32.6526 72.4351 32.3222 73.9355 34.0429C73.9355 34.0429 74.7339 32.6939 74.4311 31.9506C74.4311 31.9506 77.7623 34.9652 77.0878 39.8381C76.4133 44.7248 75.6837 45.6471 75.9728 46.8171C76.2619 47.9872 77.9825 52.6811 78.2303 53.9062C78.2303 53.9062 73.7428 56.4253 71.7468 52.6674C69.7509 48.9094 67.0529 49.5151 65.8828 49.5013C64.7128 49.4876 62.0148 49.46 60.3629 51.5799C58.7111 53.6998 57.7062 57.0998 54.2649 57.4715C50.8236 57.8431 43.4041 57.3063 40.3757 56.0261C37.3473 54.7322 36.0947 53.7548 35.5165 51.7864C34.9384 49.8179 33.1214 43.775 33.1214 43.775L31.9651 39.2462Z" fill="#F5D1BE"/>
<path d="M51.429 54.9937C54.3483 54.9937 56.7148 54.0631 56.7148 52.9151C56.7148 51.7672 54.3483 50.8365 51.429 50.8365C48.5096 50.8365 46.1431 51.7672 46.1431 52.9151C46.1431 54.0631 48.5096 54.9937 51.429 54.9937Z" fill="#F5AC89"/>
<path d="M78.1752 53.6722C77.9962 53.686 77.8035 53.686 77.6108 53.686C75.0642 53.686 73.0132 52.8738 73.0132 51.8689C73.0132 50.9329 74.8302 50.1483 77.1565 50.0657C77.1841 50.1207 77.1978 50.1758 77.2254 50.2309C77.6796 51.3321 77.9962 52.4884 78.1752 53.6722Z" fill="#F5AC89"/>
<path d="M73.9217 34.0567C72.5176 32.9692 70.8107 32.4048 69.0488 32.2947C69.6407 33.0931 69.8196 34.1943 69.503 35.1441C66.9289 33.8089 64.2171 33.0243 61.354 32.515C61.877 33.3409 62.0422 34.3733 61.8082 35.3093C58.6835 33.9878 55.2972 33.2858 51.9247 33.038C52.7231 33.5061 53.2324 34.4008 53.2462 35.3093C47.6712 33.8364 41.2291 33.7401 35.8606 35.8737C37.2922 34.8551 38.7926 33.9328 40.3206 33.0931C41.174 32.6251 42.0412 32.1846 42.9222 31.7579C44.8493 30.8356 46.8591 30.051 48.9101 29.4315C54.2648 27.8072 59.9499 27.2291 65.5249 27.8347C67.0115 27.9999 72.5865 29.1424 73.4124 30.1748C73.6739 30.5052 73.8666 30.8769 74.0043 31.2623C74.3209 32.1846 74.2934 33.2032 73.9217 34.0567Z" fill="#3A302E"/>
<path d="M78.6156 58.091C78.4779 59.4537 77.9961 60.7614 77.3905 62.0003C75.6423 65.6068 72.7791 68.8004 69.0349 70.2457C67.8373 70.7 66.5985 70.9753 65.3321 71.2093C64.2446 71.402 63.2948 71.636 62.1936 71.7737C55.834 72.6134 49.2817 72.0215 43.1699 70.0806C41.1189 69.4336 34.1123 65.2076 34.1123 64.9461C34.1399 62.9914 34.2775 60.9541 33.9058 59.0408C33.9058 59.027 33.9058 59.027 33.9058 59.027C33.603 57.4302 33.4791 55.8885 32.4605 54.6221C32.02 54.0853 31.4969 53.6172 30.9325 53.218C30.8499 53.163 30.7674 53.1079 30.6848 53.0529C28.3722 51.5524 25.2475 51.1257 22.8523 52.4609C23.0863 51.8002 23.3478 51.1395 23.6232 50.4925C24.3114 48.8957 25.1373 47.354 26.0734 45.8811C27.0232 44.3945 28.0831 43.0042 29.2532 41.7102C29.6248 41.2973 29.9965 40.8981 30.3957 40.4989C30.4783 40.4163 30.5609 40.3199 30.6572 40.2373C30.905 39.9896 31.1665 39.7418 31.4281 39.494C31.5382 39.3839 31.6483 39.2875 31.7585 39.1912C31.8823 39.0811 32.0062 38.9709 32.1301 38.847C32.5293 42.8665 33.5342 47.0099 35.0484 50.754C35.6127 52.1306 36.2735 53.5209 37.3885 54.512C38.5448 55.5168 40.0589 55.9986 41.5456 56.3703C44.395 57.0999 47.3133 57.5816 50.259 57.8157C52.1174 57.9671 54.0996 57.9946 55.7376 57.0861C57.8575 55.916 58.9037 53.4796 60.3903 51.5662C60.8308 51.0156 61.3264 50.4787 61.932 50.1346C62.6478 49.7354 63.4737 49.6115 64.2721 49.5427C65.3734 49.4601 66.4746 49.4876 67.562 49.6253C68.4293 49.7354 69.3102 49.9281 70.0398 50.3962C71.32 51.1945 71.2787 53.1079 72.49 54.0027C73.1232 54.4707 73.9354 54.6359 74.7062 54.7735C74.9815 54.8286 75.2431 54.8699 75.5184 54.8836C76.3443 54.9249 77.5419 54.5808 78.1476 54.0164C78.1613 54.044 78.1889 54.0715 78.2026 54.099C78.9322 55.2553 78.7395 56.7557 78.6156 58.091Z" fill="#3A302E"/>
<path d="M65.3736 13.9592C63.9557 13.6563 62.2764 13.1883 60.2391 12.8304C56.8253 12.2247 52.4204 11.9632 46.639 13.381C46.6252 13.381 46.6252 13.381 46.6114 13.3948C42.2478 14.4822 37.0996 16.5333 31.0016 20.1535C30.7951 20.2774 30.5886 20.4013 30.3684 20.5252C30.2032 20.6216 30.038 20.7317 29.8728 20.828C25.3165 23.6912 21.944 27.2978 19.4662 31.0557C19.4524 31.0694 19.4524 31.0832 19.4387 31.097C16.7544 35.1577 15.0888 39.3975 14.0702 43.0315C13.3682 45.523 12.969 47.7392 12.735 49.4324C12.4459 51.5385 12.4321 52.8186 12.4321 52.8186C12.4321 52.8186 11.2621 51.3871 9.56895 49.1984C7.86205 47.0234 7.11872 40.2234 7.11872 40.2234C3.69116 39.3837 1.11705 35.4743 0.8968 31.8403C0.676555 28.2063 1.64013 26.2791 3.96647 21.4475C6.2928 16.6159 15.6808 8.46679 15.6808 8.46679C15.6808 8.46679 26.8307 -0.700908 39.0543 1.39142C51.1677 3.49751 65.1533 13.8077 65.3736 13.9592Z" fill="#263759"/>
<path d="M76.0828 34.0016C75.8625 33.5749 75.6148 33.162 75.3395 32.7765C74.9403 32.2397 74.4998 31.7441 74.018 31.3036C73.8803 30.9044 73.6876 30.5466 73.4261 30.2162C72.6139 29.1838 67.039 28.0413 65.5385 27.8761C59.9636 27.2704 54.2785 27.8485 48.9238 29.4729C46.8728 30.0923 44.863 30.8769 42.9359 31.7992C42.0549 32.2122 41.2015 32.6664 40.3342 33.1344C38.8063 33.9741 37.3059 34.8964 35.8743 35.915C35.599 36.1077 35.3099 36.3142 35.0346 36.5207C34.0297 37.264 33.0662 38.0349 32.1439 38.8608C32.02 38.9709 31.8961 39.081 31.7722 39.2049C31.6621 39.3013 31.552 39.4114 31.4418 39.5078C31.1803 39.7555 30.9188 39.9896 30.671 40.2511C30.5884 40.3337 30.5058 40.4163 30.4094 40.5126C30.024 40.9118 29.6386 41.311 29.2669 41.724C28.0969 43.0317 27.0232 44.422 26.0871 45.8949C25.1511 47.3678 24.3252 48.9095 23.6369 50.5063C23.3616 51.1532 23.1001 51.814 22.8661 52.4747C22.7972 52.516 22.7422 52.5435 22.6871 52.5848C20.3057 54.0302 19.1769 57.0035 19.3008 59.7978C19.3559 61.078 19.645 62.3582 20.2644 63.4869C20.4984 63.8999 20.7737 64.2991 21.0903 64.657C16.2725 64.657 14.4141 60.7752 13.8635 59.261C12.6935 55.9573 12.4182 52.6949 12.7348 49.4739C12.9688 47.7807 13.368 45.5645 14.07 43.073C14.7858 40.7604 15.7081 38.4891 16.713 36.2592C17.5113 34.4972 18.4199 32.7765 19.4523 31.1385C19.4523 31.1247 19.466 31.1109 19.4798 31.0972C21.9713 27.3392 25.33 23.7327 29.8864 20.8695C30.0515 20.7594 30.2167 20.6631 30.3819 20.5667C36.7553 16.7124 42.11 14.5513 46.625 13.4225C46.6388 13.4225 46.6388 13.4225 46.6525 13.4087C51.0987 12.4314 55.7376 12.2249 60.2527 12.8581C62.2899 13.216 63.9693 13.684 65.3871 13.9869C68.8697 15.0881 72.2835 16.7262 74.4722 19.6031C78.0237 24.3109 79.0974 30.2712 76.0828 34.0016Z" fill="#1F242E"/>
<path d="M66.1581 24.3246C66.8326 22.2185 66.984 19.4517 66.1305 17.1254C62.2625 15.914 58.0778 15.7075 54.1134 16.5335C53.3701 18.9149 54.2786 23.0995 55.1183 24.1457C58.4357 25.0955 62.7305 24.7376 66.1581 24.3246Z" fill="#17191C"/>
<path d="M62.8407 19.4241C62.7443 19.3828 62.6342 19.3553 62.5241 19.314C62.5516 19.2039 62.5791 19.0938 62.5929 18.9836C62.6892 18.3367 62.5654 17.8962 62.2625 17.7172C61.9597 17.5383 61.5054 17.6622 60.9961 18.0751C60.9135 18.144 60.8309 18.2266 60.7483 18.2954C60.6657 18.2128 60.5694 18.144 60.4868 18.0751C59.9775 17.6759 59.5232 17.5521 59.2204 17.731C58.9038 17.91 58.7937 18.3642 58.9038 19.0112C58.9176 19.1213 58.9451 19.2314 58.9726 19.3415C58.8625 19.3691 58.7524 19.4104 58.656 19.4517C58.0503 19.6857 57.72 20.016 57.72 20.3739C57.72 20.7318 58.0503 21.0622 58.656 21.2962C58.7524 21.3375 58.8625 21.365 58.9726 21.4063C58.9451 21.5165 58.9176 21.6266 58.9038 21.7367C58.8074 22.3837 58.9313 22.8242 59.2342 23.0031C59.3305 23.0582 59.4269 23.0857 59.5508 23.0857C59.8261 23.0857 60.1427 22.9343 60.5006 22.6452C60.5832 22.5764 60.6657 22.4938 60.7483 22.425C60.8309 22.5076 60.9273 22.5764 61.0099 22.6452C61.3678 22.9343 61.6981 23.0719 61.9597 23.0719C62.0698 23.0719 62.1799 23.0444 62.2763 22.9894C62.5929 22.8104 62.703 22.3562 62.5929 21.7092C62.5791 21.5991 62.5516 21.4889 62.5241 21.3788C62.6342 21.3513 62.7443 21.31 62.8407 21.2687C63.4463 21.0347 63.7767 20.7043 63.7767 20.3464C63.7767 19.9747 63.4463 19.6444 62.8407 19.4241ZM61.1475 18.2679C61.5605 17.9375 61.9046 17.8136 62.1111 17.9375C62.3176 18.0614 62.4002 18.4193 62.3176 18.9424C62.3038 19.0387 62.2763 19.1488 62.2625 19.2452C62.001 19.1901 61.7257 19.1488 61.4366 19.1213C61.2714 18.8873 61.0925 18.667 60.9135 18.4743C60.9961 18.4055 61.0649 18.3367 61.1475 18.2679ZM61.6018 20.842C61.5054 21.0071 61.4091 21.1723 61.299 21.3238C61.12 21.3375 60.9273 21.3513 60.7346 21.3513C60.5419 21.3513 60.3491 21.3513 60.1702 21.3375C60.0601 21.1861 59.9637 21.0209 59.8674 20.8557C59.771 20.6905 59.6884 20.5254 59.6058 20.3602C59.6884 20.195 59.771 20.0298 59.8674 19.8646C59.9637 19.6994 60.0601 19.5343 60.1702 19.3828C60.3491 19.3691 60.5419 19.3553 60.7346 19.3553C60.9273 19.3553 61.12 19.3553 61.299 19.3691C61.4091 19.5205 61.5054 19.6857 61.6018 19.8509C61.6981 20.016 61.7807 20.1812 61.8633 20.3464C61.7807 20.5116 61.6981 20.6768 61.6018 20.842ZM62.001 20.6493C62.0836 20.8282 62.1386 21.0071 62.1937 21.1861C62.0148 21.2274 61.8358 21.2687 61.6431 21.2825C61.7119 21.1861 61.767 21.076 61.8358 20.9659C61.9046 20.8557 61.9459 20.7594 62.001 20.6493ZM60.7483 22.0395C60.6245 21.9019 60.5006 21.7642 60.3767 21.6128C60.5006 21.6128 60.6244 21.6266 60.7346 21.6266C60.8585 21.6266 60.9824 21.6266 61.0925 21.6128C60.9961 21.7642 60.8722 21.9019 60.7483 22.0395ZM59.8398 21.2962C59.6471 21.2687 59.4544 21.2412 59.2892 21.1999C59.3443 21.0209 59.3993 20.842 59.4819 20.663C59.537 20.7731 59.5921 20.8833 59.6609 20.9796C59.7022 21.0897 59.771 21.1999 59.8398 21.2962ZM59.4682 20.0436C59.3856 19.8646 59.3305 19.6857 59.2754 19.5067C59.4544 19.4654 59.6333 19.4241 59.8261 19.4104C59.7572 19.5067 59.7022 19.6169 59.6333 19.727C59.5645 19.8371 59.5232 19.9335 59.4682 20.0436ZM60.7346 18.667C60.8585 18.8047 60.9823 18.9424 61.1062 19.0938C60.9823 19.0938 60.8585 19.08 60.7483 19.08C60.6245 19.08 60.5006 19.08 60.3904 19.0938C60.4868 18.9424 60.6107 18.7909 60.7346 18.667ZM61.822 19.7132C61.7532 19.6031 61.6981 19.5067 61.6293 19.3966C61.822 19.4241 62.0147 19.4517 62.1799 19.493C62.1249 19.6719 62.0698 19.8509 61.9872 20.0298C61.9459 19.9335 61.8909 19.8233 61.822 19.7132ZM59.1378 18.9561C59.0552 18.433 59.124 18.0751 59.3305 17.9512C59.3856 17.9237 59.4406 17.91 59.5095 17.91C59.7159 17.91 59.9912 18.0338 60.2941 18.2816C60.3767 18.3504 60.4593 18.4193 60.5281 18.4881C60.3491 18.6808 60.1702 18.9011 60.005 19.1351C59.7159 19.1626 59.4406 19.2039 59.1791 19.2727C59.1791 19.1488 59.1516 19.0525 59.1378 18.9561ZM58.7248 21.0347C58.2293 20.842 57.954 20.608 57.954 20.3602C57.954 20.1124 58.2293 19.8784 58.7248 19.6857C58.8212 19.6444 58.9176 19.6169 59.0277 19.5893C59.1103 19.8371 59.2066 20.0986 59.3305 20.3602C59.2066 20.6217 59.1103 20.8833 59.0414 21.131C58.9176 21.1035 58.8212 21.076 58.7248 21.0347ZM60.3216 22.4387C59.9087 22.7691 59.5645 22.893 59.358 22.7691C59.1516 22.6452 59.069 22.2873 59.1516 21.7642C59.1653 21.6679 59.1929 21.5578 59.2066 21.4614C59.4682 21.5165 59.7435 21.5578 60.0325 21.5853C60.1977 21.8193 60.3767 22.0395 60.5556 22.2323C60.4868 22.3011 60.4042 22.3699 60.3216 22.4387ZM62.3314 21.7505C62.4139 22.2736 62.3451 22.6315 62.1386 22.7553C61.9322 22.8792 61.5743 22.7553 61.1613 22.425C61.0787 22.3562 60.9961 22.2873 60.9273 22.2185C61.1062 22.0258 61.2852 21.8055 61.4504 21.5715C61.7394 21.544 62.0147 21.5027 62.2763 21.4339C62.3038 21.544 62.3176 21.6541 62.3314 21.7505ZM62.7581 21.0209C62.6617 21.0622 62.5654 21.0897 62.4552 21.1173C62.3726 20.8695 62.2763 20.608 62.1524 20.3464C62.2763 20.0849 62.3726 19.8233 62.4415 19.5756C62.5516 19.6031 62.648 19.6444 62.7443 19.6719C63.2399 19.8646 63.5152 20.0986 63.5152 20.3464C63.5152 20.5942 63.2399 20.8282 62.7581 21.0209Z" fill="#5ED3F3"/>
<path d="M60.7564 20.8977C61.0603 20.8869 61.2979 20.6318 61.2871 20.3278C61.2763 20.0239 61.0212 19.7863 60.7173 19.7971C60.4134 19.8079 60.1757 20.063 60.1865 20.3669C60.1973 20.6708 60.4525 20.9085 60.7564 20.8977Z" fill="#5ED3F3"/>
<path d="M7.20122 40.4988C6.70567 40.3474 6.23765 40.1685 5.78339 39.9345C5.32914 39.7005 4.90241 39.4251 4.48945 39.1223C3.6773 38.5029 2.9615 37.7595 2.39712 36.9199C1.81898 36.0802 1.39225 35.1441 1.10318 34.1668C0.814111 33.1895 0.676456 32.1846 0.63516 31.166C0.580099 29.1425 0.979294 27.1189 1.70886 25.2331C2.06675 24.2971 2.50724 23.3885 3.00279 22.5076C3.49835 21.6266 4.03519 20.7869 4.59957 19.961C5.75586 18.3229 7.0085 16.7674 8.30244 15.2532C9.61015 13.7391 10.9729 12.2799 12.4183 10.9034C15.309 8.13658 18.5438 5.70012 22.1228 3.88309C23.0176 3.4426 23.9398 3.01588 24.8759 2.65798C25.3439 2.46527 25.8257 2.31385 26.2937 2.1349C26.5277 2.05231 26.7755 1.98348 27.0095 1.90089C27.2573 1.83206 27.4913 1.74947 27.7391 1.68064C29.68 1.1438 31.676 0.772131 33.6857 0.675774C35.6954 0.565652 37.7327 0.71707 39.7149 1.11626C41.6971 1.51546 43.6105 2.12113 45.4963 2.8094C49.2543 4.18593 52.8746 5.90659 56.3847 7.79244C59.8949 9.67829 63.3087 11.7431 66.7087 13.8079C66.9427 13.9455 67.0253 14.2621 66.8739 14.4962C66.7225 14.7302 66.4196 14.8128 66.1856 14.6613C62.7994 12.5828 59.4131 10.518 55.9305 8.61836C52.4478 6.71875 48.8826 4.99808 45.1797 3.62155C43.3352 2.91952 41.4493 2.32761 39.536 1.92842C37.6226 1.52922 35.6679 1.36404 33.6995 1.4604C31.7448 1.54299 29.8039 1.88712 27.9043 2.39644C27.6702 2.4515 27.4362 2.53409 27.2022 2.60292C26.9682 2.67175 26.7342 2.74057 26.5002 2.82316C26.0322 2.98835 25.5642 3.13977 25.1099 3.31871C24.1876 3.66285 23.2929 4.07581 22.4119 4.50253C18.888 6.26449 15.6944 8.64589 12.8312 11.3577C11.3859 12.7067 10.0369 14.152 8.72917 15.6387C7.43523 17.1391 6.16882 18.667 5.04006 20.2776C4.47568 21.076 3.93884 21.9157 3.45705 22.7691C2.97526 23.6226 2.53478 24.5035 2.19064 25.4258C1.47485 27.2428 1.07565 29.1975 1.11695 31.1522C1.14448 32.1295 1.28213 33.0931 1.54367 34.0291C1.81898 34.9652 2.21817 35.8599 2.76878 36.6583C3.85625 38.2551 5.46679 39.5353 7.32511 40.0859C7.43523 40.1134 7.50406 40.2373 7.46276 40.3474C7.43523 40.4713 7.31134 40.5264 7.20122 40.4988Z" fill="black"/>
<path d="M12.3357 53.3969C11.909 53.0666 11.5235 52.7087 11.1519 52.337C10.794 51.9516 10.4636 51.5386 10.1608 51.1119C9.85794 50.6852 9.5964 50.2309 9.34862 49.7767C9.10085 49.3224 8.8806 48.8544 8.68789 48.3726C8.49517 47.8908 8.31622 47.409 8.15104 46.9272C7.99962 46.4455 7.8482 45.9499 7.72431 45.4544C7.47654 44.4633 7.27006 43.4584 7.14617 42.4535C6.88463 40.43 6.84334 38.379 7.04982 36.3555C7.25629 34.332 7.69678 32.336 8.35752 30.4226C8.39882 30.3125 8.50894 30.2574 8.61906 30.2987C8.72918 30.34 8.78425 30.4502 8.74295 30.5603C8.13728 32.4599 7.75185 34.4283 7.60043 36.4105C7.44901 38.3927 7.5316 40.3887 7.83444 42.3572C7.98586 43.3345 8.19234 44.3118 8.46764 45.2616C8.72918 46.2114 9.05955 47.1475 9.45875 48.0422C9.66522 48.4965 9.88547 48.9232 10.1195 49.3499C10.3673 49.7767 10.6288 50.1759 10.9041 50.5751C11.1932 50.9605 11.496 51.3321 11.8401 51.6763C12.1843 52.0204 12.5422 52.3233 12.9276 52.5986C13.1478 52.7637 13.2029 53.0666 13.0377 53.2868C12.8725 53.5071 12.5697 53.5621 12.3357 53.3969Z" fill="black"/>
<path d="M21.0629 65.1249C15.8183 65.1249 13.8499 60.7338 13.3818 59.3986C10.4085 50.9879 13.1616 42.8664 16.245 36.0388C18.5025 31.042 21.3657 26.9812 24.752 23.9942C27.1472 21.8743 29.8452 20.2362 32.4055 18.7771C34.9521 17.3318 38.3659 15.4872 42.055 14.1933C48.0291 12.1009 54.4988 11.4815 60.7621 12.4175C65.0293 13.0507 70.9346 14.7714 74.844 19.2727C76.6059 21.3099 77.776 23.9116 78.1339 26.5958C78.5056 29.4315 77.9274 32.157 76.4958 34.2906C76.3444 34.5246 76.0278 34.5797 75.8076 34.4283C75.5735 34.2769 75.5185 33.9603 75.6699 33.74C78.2578 29.8995 77.5833 23.9529 74.0869 19.9334C70.384 15.6524 64.7127 14.0281 60.6107 13.4086C54.4989 12.5001 48.2081 13.092 42.3854 15.1431C38.7651 16.4095 35.4201 18.2127 32.9011 19.6443C30.382 21.0759 27.7391 22.6865 25.4127 24.7375C22.1228 27.642 19.356 31.5789 17.1535 36.4518C14.1527 43.1004 11.4685 51.0017 14.3317 59.082C14.8685 60.6099 16.6029 64.1476 21.0767 64.1476C21.352 64.1476 21.5722 64.3678 21.5722 64.6431C21.5722 64.9047 21.352 65.1249 21.0629 65.1249C21.0767 65.1249 21.0629 65.1249 21.0629 65.1249Z" fill="black"/>
<path d="M60.1978 24.889C58.3808 24.889 56.6326 24.7238 55.0771 24.2833C55.0496 24.2695 55.022 24.2558 55.0083 24.2282C54.1961 23.1958 53.2188 18.9561 53.9896 16.4784C54.0034 16.4233 54.0447 16.3958 54.0998 16.382C58.1055 15.5423 62.2901 15.7626 66.1857 16.9877C66.227 17.0015 66.2545 17.029 66.2821 17.0703C67.2043 19.6031 66.9015 22.4938 66.3096 24.3659C66.2958 24.421 66.2408 24.4623 66.1857 24.4623C64.2586 24.6963 62.1938 24.889 60.1978 24.889ZM55.201 24.0218C58.3808 24.9303 62.4553 24.6137 66.0481 24.2007C66.6124 22.3975 66.8877 19.6582 66.0205 17.2492C62.2075 16.0654 58.133 15.8589 54.2237 16.6573C53.5354 19.025 54.4301 22.9756 55.201 24.0218Z" fill="black"/>
<path d="M78.23 54.622C77.9822 54.622 77.762 54.4293 77.7344 54.1678C77.7207 54.0164 77.7069 53.8787 77.6794 53.7411C77.5142 52.5985 77.2114 51.4836 76.7709 50.4099L76.7433 50.3548C76.7296 50.3273 76.7158 50.2997 76.702 50.2722V50.2584C76.5919 49.9969 76.468 49.7354 76.3441 49.4738C76.0826 48.8957 75.7935 48.29 75.6008 47.6568C75.3117 46.7208 75.5182 46.005 75.7522 45.2341C75.8073 45.0689 75.8486 44.9037 75.9037 44.7248C76.5231 42.3709 76.7709 40.5677 76.7296 38.8608C76.6883 37.2915 76.3441 35.0202 74.9263 33.0793C74.6097 32.6388 74.2381 32.2259 73.8389 31.8404C73.6461 31.6477 73.6324 31.3311 73.8251 31.1384C74.0178 30.9457 74.3344 30.9319 74.5271 31.1247C74.9676 31.5514 75.3668 32.0056 75.7247 32.5012C77.294 34.6486 77.6656 37.1401 77.7069 38.847C77.7482 40.6503 77.4867 42.5361 76.8397 44.9863C76.7846 45.179 76.7433 45.358 76.6883 45.5369C76.4818 46.2252 76.3304 46.7345 76.5369 47.3815C76.7158 47.9596 76.9636 48.4965 77.2251 49.0746C77.349 49.3362 77.4729 49.6115 77.583 49.873C77.5968 49.9143 77.6106 49.9418 77.6243 49.9831L77.6519 50.0382C78.1336 51.1945 78.464 52.3921 78.6292 53.6172C78.6567 53.7686 78.6705 53.9338 78.6843 54.099C78.7118 54.3743 78.5053 54.622 78.2438 54.6358C78.2575 54.622 78.2438 54.622 78.23 54.622Z" fill="black"/>
<path d="M22.8659 52.9565C22.5906 52.9565 22.3704 52.7363 22.3704 52.461C22.3704 52.3921 22.3841 52.3233 22.4117 52.2683C22.6457 51.6075 22.9072 50.933 23.1825 50.2998C23.8708 48.6893 24.7105 47.12 25.6603 45.6196C26.5963 44.1605 27.6838 42.7289 28.8951 41.3799C30.5745 39.5078 32.5429 37.7321 34.7316 36.1215C34.9932 35.9288 35.2685 35.7223 35.5713 35.5159C35.7915 35.3644 36.1081 35.4057 36.2596 35.6398C36.411 35.86 36.3697 36.1766 36.1357 36.328C35.8328 36.5345 35.5713 36.7272 35.3098 36.9199C33.1761 38.5029 31.2628 40.2236 29.6247 42.0544C28.4546 43.3621 27.3947 44.7524 26.4862 46.1702C25.5639 47.6293 24.7518 49.1573 24.0773 50.7128C23.802 51.346 23.5542 51.9929 23.3202 52.6537C23.2651 52.8189 23.0724 52.9565 22.8659 52.9565Z" fill="black"/>
<path d="M35.8745 36.3968C35.7506 36.3968 35.6129 36.3417 35.5166 36.2454C35.3376 36.0664 35.3238 35.8049 35.4615 35.5984C35.5028 35.5433 35.5579 35.502 35.6129 35.4607C37.0032 34.4834 38.5036 33.5474 40.0866 32.6801C40.9263 32.2259 41.8073 31.7716 42.702 31.3311C44.643 30.3951 46.694 29.6105 48.7588 28.9773C54.2099 27.3254 60.0326 26.761 65.5662 27.3667C65.6901 27.3805 65.8278 27.3943 65.9792 27.408C67.6999 27.5732 71.2926 27.9311 73.7015 29.8032C74.9679 30.7943 74.9955 32.7903 74.3623 34.2494C74.3072 34.387 74.1833 34.4972 74.0319 34.5385C73.8805 34.5797 73.7291 34.5385 73.6052 34.4559C72.559 33.6437 71.3064 33.1206 69.9161 32.9004C70.2052 33.6712 70.2189 34.5247 69.9574 35.3093C69.9161 35.447 69.806 35.5571 69.6683 35.6121C69.5307 35.6672 69.3792 35.6534 69.2553 35.5984C67.1905 34.5247 64.878 33.7401 62.1937 33.2032C62.4278 33.9328 62.4553 34.7174 62.2763 35.4607C62.235 35.5984 62.1387 35.7223 62.0148 35.7773C61.8909 35.8462 61.7395 35.8462 61.6018 35.7911C59.0828 34.7174 56.2747 34.0154 53.2325 33.685C53.5491 34.1806 53.7281 34.7587 53.7281 35.3368C53.7281 35.4883 53.6592 35.6397 53.5354 35.736C53.4115 35.8324 53.2463 35.8599 53.1086 35.8186C47.1207 34.2356 40.8988 34.4283 36.0534 36.3692C35.9983 36.3968 35.9433 36.4105 35.8745 36.4105C35.8745 36.3968 35.8745 36.3968 35.8745 36.3968ZM45.0972 33.7676C47.5612 33.7676 50.1078 34.0704 52.6268 34.6761C52.4617 34.1943 52.1175 33.7538 51.6633 33.4923C51.4706 33.3822 51.3742 33.1344 51.443 32.9141C51.5119 32.6939 51.7183 32.5562 51.9523 32.57C55.3937 32.8178 58.5735 33.5061 61.4091 34.6348C61.4366 33.9878 61.2715 33.3409 60.9273 32.804C60.8172 32.6388 60.8172 32.4186 60.9273 32.2672C61.0375 32.102 61.2302 32.0194 61.4229 32.0469C64.3549 32.5562 66.8739 33.3409 69.1315 34.4283C69.1865 33.7951 69.0076 33.1206 68.6359 32.6113C68.5258 32.4599 68.4983 32.2534 68.5946 32.0745C68.691 31.9093 68.8699 31.7992 69.0626 31.8129C70.7695 31.9093 72.3388 32.4048 73.6602 33.272C73.908 32.2809 73.8117 31.1522 73.0959 30.6016C70.9209 28.8947 67.5209 28.5643 65.8966 28.4129C65.7452 28.3991 65.5938 28.3854 65.4699 28.3716C60.0601 27.7797 54.375 28.3303 49.0479 29.9546C47.0244 30.574 45.0284 31.3449 43.1288 32.2534C42.2478 32.6801 41.3806 33.1206 40.5547 33.5749C40.0591 33.8502 39.5773 34.1255 39.0955 34.4146C41.0089 33.9741 43.0324 33.7676 45.0972 33.7676Z" fill="black"/>
<path d="M21.8477 57.9945C22.6736 57.554 23.6234 57.3338 24.587 57.2925C25.5506 57.2512 26.5142 57.4164 27.4089 57.733C28.3174 58.0496 29.1571 58.5039 29.9004 59.082C30.6437 59.6464 31.3045 60.3071 31.8413 61.0642C31.9102 61.1606 31.8826 61.2845 31.8 61.3395C31.7312 61.3946 31.6348 61.3946 31.566 61.3395C30.8089 60.844 30.0794 60.3622 29.3223 59.9492C28.5652 59.5363 27.7943 59.1921 26.9959 58.9306C26.1975 58.669 25.3854 58.5176 24.5457 58.4488C23.706 58.38 22.8663 58.4075 21.9716 58.4763C21.8339 58.4901 21.7101 58.38 21.6963 58.2423C21.6963 58.1322 21.7513 58.0358 21.8477 57.9945Z" fill="black"/>
<path d="M51.6907 48.7443C52.1587 48.6066 52.6267 48.524 53.1085 48.469C53.5903 48.4001 54.0721 48.3726 54.5401 48.3588C55.0219 48.3451 55.5037 48.3588 55.9855 48.4139C56.4673 48.469 56.9491 48.5378 57.4033 48.6755C57.5134 48.703 57.5685 48.8269 57.541 48.9232C57.5134 49.0196 57.4308 49.0746 57.3345 49.0609C56.8665 49.0333 56.4122 49.0196 55.9442 49.0196C55.4762 49.0196 55.0219 49.0333 54.5539 49.0471C53.6316 49.0884 52.7093 49.171 51.7871 49.2536C51.6356 49.2674 51.498 49.1572 51.4842 49.0058C51.4705 48.9095 51.5668 48.7856 51.6907 48.7443Z" fill="black"/>
<path d="M74.2384 49.7904C73.7566 49.6802 73.2749 49.5839 72.7793 49.5013C72.2838 49.4187 71.7882 49.3636 71.2927 49.281C71.1688 49.2673 71.0862 49.1434 71.1137 49.0333C71.1275 48.9369 71.2101 48.8543 71.3064 48.8406C71.568 48.813 71.8295 48.813 72.091 48.8268C72.3526 48.8406 72.6141 48.8819 72.8757 48.9231C73.1372 48.9782 73.3987 49.0333 73.6465 49.1296C73.8943 49.2122 74.1421 49.3223 74.3761 49.4738C74.4449 49.5288 74.4724 49.6252 74.4174 49.694C74.3761 49.7766 74.3073 49.8041 74.2384 49.7904Z" fill="black"/>
<path d="M70.2052 37.8284C70.7421 37.7871 71.2927 37.8284 71.8158 37.9248C72.3526 38.0212 72.8757 38.1863 73.3575 38.4204C73.853 38.6406 74.3211 38.9297 74.734 39.26C75.147 39.5904 75.5324 39.9896 75.8215 40.4301C75.8903 40.5264 75.8628 40.6503 75.7664 40.7054C75.6976 40.7467 75.6012 40.7467 75.5462 40.7054C75.1332 40.4163 74.7202 40.1686 74.2935 39.9345C73.8668 39.7143 73.4263 39.5078 72.9858 39.3564C72.5453 39.1912 72.0773 39.0673 71.6231 38.971C71.155 38.8746 70.687 38.8196 70.2052 38.7645C69.9437 38.737 69.751 38.5029 69.7785 38.2414C69.7923 38.0212 69.985 37.8422 70.2052 37.8284Z" fill="black"/>
<path d="M58.9451 39.0672C58.133 39.0947 57.3346 39.136 56.5362 39.2049C55.7378 39.2737 54.9394 39.37 54.141 39.5077C53.7418 39.5765 53.3426 39.6454 52.9434 39.7279C52.5443 39.8105 52.1451 39.9069 51.7596 40.0033C50.975 40.196 50.1904 40.43 49.392 40.664C49.2543 40.7053 49.1167 40.6227 49.0754 40.4988C49.0479 40.3887 49.0892 40.2786 49.1717 40.2097C49.8738 39.7279 50.6446 39.3425 51.4293 39.0121C51.622 38.9296 51.8285 38.847 52.0212 38.7781C52.2276 38.7093 52.4204 38.6267 52.6268 38.5717C52.8333 38.5028 53.0398 38.4478 53.2463 38.3927C53.4528 38.3376 53.6592 38.2826 53.8657 38.2413C54.7054 38.0486 55.5451 37.9109 56.4123 37.8559C57.2658 37.787 58.133 37.787 58.9864 37.8834C59.3168 37.9247 59.5508 38.2138 59.5233 38.5441C59.4957 38.8194 59.2342 39.0534 58.9451 39.0672Z" fill="black"/>
<path d="M56.5361 72.6409C51.966 72.6409 47.3821 71.9388 43.0323 70.5623C40.8574 69.874 35.599 67.9744 33.7132 65.2351C33.5617 65.0149 33.6168 64.6983 33.8371 64.5469C34.0573 64.3954 34.3739 64.4505 34.5253 64.6708C36.2873 67.2311 41.697 69.1032 43.3214 69.6125C49.3506 71.5259 55.8478 72.104 62.1248 71.2919C62.8268 71.1955 63.4462 71.0716 64.1208 70.9477C64.4786 70.8789 64.8503 70.7963 65.2357 70.7275C66.3232 70.5348 67.6171 70.2595 68.8423 69.7914C72.1597 68.5113 75.0366 65.6618 76.9225 61.7938C77.6245 60.3622 77.9962 59.1784 78.1063 58.0496L78.1201 57.8431C78.2302 56.7695 78.3403 55.6545 77.9824 54.7735C77.2116 55.2277 76.1929 55.4342 75.4909 55.3929C75.1881 55.3792 74.899 55.3241 74.6099 55.269C73.8253 55.1176 72.9168 54.9524 72.1872 54.4018C71.499 53.8925 71.1686 53.1492 70.852 52.4196C70.5629 51.7589 70.2876 51.1394 69.7645 50.8091C69.0487 50.3548 68.1677 50.2034 67.4795 50.107C66.4333 49.9694 65.3596 49.9419 64.2997 50.0245C63.6114 50.0795 62.8268 50.1759 62.1661 50.5475C61.5742 50.8779 61.1061 51.4147 60.7758 51.8552C60.349 52.4058 59.9361 53.0115 59.5507 53.6034C58.5733 55.0763 57.5685 56.6043 55.9717 57.499C54.2372 58.4626 52.1725 58.4488 50.2178 58.2974C47.2582 58.0634 44.2987 57.5678 41.4217 56.8383C39.9764 56.4804 38.3383 55.9848 37.0581 54.8698C35.8743 53.8237 35.1723 52.3646 34.5941 50.933C33.0387 47.0787 32.0476 43.0317 31.6621 38.8883C31.6346 38.613 31.8411 38.379 32.1164 38.3515C32.3917 38.3239 32.6257 38.5304 32.6532 38.8057C33.0387 42.8527 34.0022 46.8171 35.5302 50.5751C36.067 51.8965 36.7002 53.2318 37.7326 54.1403C38.8339 55.1176 40.348 55.5581 41.6833 55.8885C44.5052 56.6043 47.4096 57.0861 50.3141 57.3201C52.1174 57.4577 54.0032 57.4853 55.5174 56.6456C56.9077 55.8747 57.8025 54.5119 58.7523 53.0804C59.1515 52.4747 59.5644 51.8415 60.0324 51.2633C60.4316 50.754 60.9823 50.1346 61.7256 49.7078C62.5653 49.2398 63.5288 49.1159 64.2722 49.0609C65.4009 48.9783 66.5434 49.0058 67.6584 49.1572C68.4431 49.2674 69.4617 49.4463 70.3427 49.9969C71.1273 50.4925 71.4714 51.2909 71.8156 52.048C72.0909 52.6812 72.3524 53.2731 72.8342 53.631C73.3848 54.0439 74.1694 54.1953 74.8439 54.3192C75.1055 54.3743 75.3532 54.4156 75.5873 54.4294C76.3443 54.4706 77.3767 54.1403 77.8585 53.6998C77.9687 53.6034 78.1063 53.5621 78.244 53.5759C78.3816 53.5897 78.5193 53.6723 78.6019 53.7824C79.4415 55.0075 79.2901 56.5767 79.1525 57.967L79.1387 58.1735C79.0148 59.4262 78.6156 60.7201 77.8585 62.2618C75.8626 66.3639 72.8067 69.3785 69.2414 70.755C67.9337 71.2643 66.5985 71.5396 65.456 71.7461C65.0705 71.8149 64.7127 71.8838 64.3548 71.9526C63.6665 72.0903 63.0195 72.2141 62.29 72.3105C60.3628 72.517 58.4494 72.6409 56.5361 72.6409Z" fill="black"/>
<path d="M26.7344 67.0521C26.3352 67.0521 25.936 67.0384 25.5231 67.0108C24.8761 66.9695 24.0364 66.9007 23.2243 66.6254C23.0728 66.5841 22.949 66.529 22.8251 66.474C22.0404 66.1574 21.3109 65.6205 20.7052 64.946C20.3611 64.5744 20.0582 64.1476 19.8105 63.6934C19.191 62.5784 18.8469 61.2569 18.7918 59.784C18.6542 56.563 20.0858 53.5621 22.4259 52.1305C22.4947 52.0892 22.5635 52.0479 22.6324 52.0066C22.6461 52.0066 22.6461 51.9929 22.6599 51.9929C25.0826 50.6439 28.345 50.8916 30.9879 52.6123C31.6624 53.0528 32.2956 53.6034 32.8737 54.2779C34.5669 56.2326 34.7045 60.844 34.6495 64.657V64.9323C34.6495 65.125 34.5256 65.3039 34.3466 65.3865C31.6073 66.5428 29.281 67.0521 26.7344 67.0521ZM23.0866 52.9014C23.0315 52.9289 22.9902 52.9564 22.949 52.984C20.9117 54.2229 19.6728 56.8796 19.7967 59.7427C19.8518 61.0642 20.1546 62.2343 20.6914 63.2116C20.9117 63.597 21.1595 63.9687 21.4485 64.2853C21.9578 64.8497 22.5635 65.2902 23.2105 65.5517C23.3069 65.593 23.4032 65.6343 23.5271 65.6618C24.2291 65.8958 25 65.9647 25.5781 65.9922C28.4 66.1574 30.7539 65.7582 33.6308 64.5881C33.6584 62.6059 33.741 56.8107 32.1029 54.9249C31.5936 54.333 31.0292 53.8374 30.4235 53.452C28.1109 51.9516 25.1789 51.7176 23.1004 52.8739C23.1004 52.9014 23.0866 52.9014 23.0866 52.9014Z" fill="black"/>
<path d="M74.4997 24.8202C74.6099 25.7287 74.5548 26.6648 74.3759 27.5595C74.1969 28.468 73.8941 29.3352 73.5224 30.1749C73.4536 30.3126 73.2884 30.3814 73.1507 30.3126C73.0131 30.2437 72.9443 30.0786 73.0131 29.9409C73.0131 29.9409 73.0131 29.9271 73.0268 29.9271C73.4398 29.1425 73.7702 28.3166 73.9904 27.4631C74.2107 26.6097 74.3208 25.715 74.2657 24.834C74.2657 24.7651 74.307 24.7101 74.3759 24.7101C74.4447 24.7101 74.4997 24.7514 74.4997 24.8202Z" fill="black"/>
<path d="M70.8244 20.9245C71.0722 21.5577 71.2099 22.246 71.2649 22.9205C71.32 23.595 71.2787 24.2832 71.1823 24.9715C70.9759 26.3205 70.5354 27.6282 70.0398 28.8808C69.9848 29.0323 69.8196 29.1011 69.6682 29.0323C69.5167 28.9772 69.4479 28.812 69.503 28.6606C69.503 28.6606 69.503 28.6606 69.503 28.6468C70.0398 27.4355 70.5354 26.1966 70.7831 24.8889C70.907 24.2419 70.9621 23.5812 70.9483 22.9205C70.9208 22.2597 70.8244 21.6127 70.6042 20.9795C70.5767 20.9245 70.618 20.8557 70.673 20.8281C70.7281 20.8281 70.7969 20.8557 70.8244 20.9245Z" fill="black"/>
<path d="M45.9091 18.4606C46.7075 19.0663 47.3545 19.8647 47.8638 20.7319C48.3594 21.5991 48.7172 22.5627 48.9375 23.54C49.1577 24.5173 49.2679 25.5222 49.2954 26.5133C49.3229 27.5182 49.2679 28.5093 49.199 29.5004C49.1853 29.6518 49.0476 29.7757 48.8962 29.7619C48.7448 29.7481 48.6209 29.6105 48.6347 29.4591C48.6347 29.4591 48.6347 29.4591 48.6347 29.4453C48.731 28.468 48.8136 27.4906 48.8136 26.5133C48.8136 25.536 48.7448 24.5586 48.5521 23.6088C48.3593 22.659 48.0427 21.7367 47.5885 20.8833C47.1342 20.0298 46.5286 19.2452 45.7715 18.6395C45.7164 18.5982 45.7164 18.5157 45.7577 18.4744C45.7852 18.4193 45.8678 18.4193 45.9091 18.4606Z" fill="black"/>
<path d="M37.9531 24.5311C38.545 25.0404 39.0405 25.6598 39.4397 26.3343C39.8389 27.0088 40.1417 27.7384 40.3482 28.4955C40.7612 30.0097 40.8025 31.6065 40.6235 33.1619C40.6098 33.3134 40.4721 33.4373 40.3069 33.4097C40.1417 33.3822 40.0316 33.2583 40.0592 33.0931C40.0592 33.0931 40.0592 33.0931 40.0592 33.0794C40.1693 32.336 40.2243 31.5789 40.2106 30.8218C40.1968 30.0648 40.1142 29.3214 39.949 28.5919C39.7838 27.8623 39.5085 27.1465 39.1506 26.4858C38.7927 25.825 38.3385 25.2194 37.7879 24.6963C37.7328 24.655 37.7328 24.5724 37.7879 24.5311C37.8292 24.4898 37.898 24.4898 37.9531 24.5311Z" fill="black"/>
<path d="M28.0555 28.11C28.2757 29.0461 28.5373 29.9684 28.8952 30.8493C29.2531 31.7303 29.7349 32.5562 30.3681 33.2307C31.015 33.9052 31.8134 34.4283 32.6256 34.9101C33.4515 35.3919 34.2912 35.8462 35.1446 36.2591C35.2823 36.3279 35.3511 36.4931 35.2823 36.6445C35.2135 36.7822 35.0483 36.851 34.8969 36.7822C34.0296 36.3417 33.19 35.8599 32.3778 35.3368C31.5656 34.8138 30.7397 34.2494 30.079 33.5198C29.4183 32.7765 28.9365 31.8955 28.5923 30.987C28.2482 30.0785 28.028 29.1287 27.8215 28.1926C27.8077 28.1238 27.849 28.0687 27.9178 28.055C27.9867 28.0137 28.0417 28.055 28.0555 28.11Z" fill="black"/>
<path d="M21.8064 35.1028C22.4258 36.7134 23.4858 38.1312 24.7935 39.2186C26.1012 40.3199 27.6704 41.0907 29.336 41.4349C29.4875 41.4624 29.5838 41.6138 29.5563 41.7652C29.5287 41.9166 29.3773 42.013 29.2259 41.9855C29.2259 41.9855 29.2259 41.9855 29.2121 41.9855C27.4639 41.5725 25.8534 40.6915 24.5319 39.5215C23.2105 38.3514 22.1643 36.851 21.5862 35.1854C21.5586 35.1166 21.5999 35.0615 21.655 35.034C21.71 35.0065 21.7789 35.034 21.8064 35.1028Z" fill="black"/>
<path d="M23.637 50.7816C22.288 50.7403 20.9527 50.4099 19.7551 49.818C18.5576 49.2261 17.4839 48.3726 16.6717 47.3265C16.6304 47.2714 16.6442 47.2026 16.6992 47.1613C16.7543 47.12 16.8231 47.1338 16.8644 47.1751C17.6903 48.1662 18.764 48.937 19.9341 49.4601C21.1041 49.9832 22.3843 50.2447 23.6507 50.2172C23.8021 50.2172 23.9398 50.3411 23.9398 50.4925C23.9398 50.6439 23.8159 50.7816 23.6645 50.7816C23.637 50.7816 23.637 50.7816 23.637 50.7816Z" fill="black"/>
<path d="M15.0614 52.2682C15.4468 52.6261 15.8185 52.9977 16.2177 53.3143C16.6169 53.6447 17.0436 53.92 17.5116 54.1265C17.9796 54.333 18.4614 54.4431 18.957 54.4293L20.54 54.4569C20.6914 54.4569 20.8153 54.5945 20.8153 54.7459C20.8153 54.8974 20.6776 55.0212 20.5262 55.0212H20.5125L18.9432 54.9111C18.8193 54.8974 18.6679 54.8974 18.5303 54.8698C18.3926 54.8423 18.2549 54.8148 18.1173 54.7872C17.842 54.7184 17.5942 54.6083 17.3464 54.4844C16.8509 54.2366 16.4104 53.9063 16.0112 53.5484C15.612 53.1905 15.2541 52.805 14.8962 52.4196C14.8549 52.3645 14.8549 52.2957 14.8962 52.2544C14.9513 52.2269 15.0201 52.2269 15.0614 52.2682Z" fill="black"/>
<path d="M55.4625 47.8219C55.4625 48.2211 55.3111 48.5928 55.0771 48.8818H52.5993C52.3515 48.5928 52.2139 48.2211 52.2139 47.8219C52.2139 46.9272 52.9434 46.1838 53.8519 46.1838C54.7604 46.1838 55.4625 46.9272 55.4625 47.8219Z" fill="black"/>
<path d="M74.1281 48.7994C74.0593 49.1022 73.8803 49.35 73.6463 49.5152L71.8018 49.0747C71.6641 48.8131 71.6228 48.5241 71.6916 48.2212C71.8568 47.5467 72.5175 47.1338 73.192 47.299C73.8803 47.4504 74.2933 48.1249 74.1281 48.7994Z" fill="black"/>
<path d="M45.4826 47.2851C46.5012 46.9272 47.5474 46.6657 48.5936 46.4592C49.6397 46.239 50.6997 46.0876 51.7734 45.9774C52.8471 45.8535 53.9207 45.8123 54.9944 45.826C55.2697 45.8398 55.5313 45.8398 55.8066 45.8535C56.0819 45.8673 56.3434 45.8948 56.6188 45.9224C57.1556 45.9637 57.6924 46.06 58.2293 46.1701C58.5597 46.239 58.7799 46.5693 58.7111 46.8997C58.656 47.1888 58.3945 47.3953 58.1192 47.3953H58.0916C57.0592 47.409 56.0268 47.3953 54.9944 47.409C53.962 47.4228 52.9296 47.4366 51.8835 47.4779C50.8373 47.5192 49.8049 47.5604 48.745 47.6155C47.6988 47.6706 46.6389 47.7394 45.5927 47.7807C45.4551 47.7807 45.3312 47.6706 45.3174 47.5329C45.3037 47.4228 45.3863 47.3264 45.4826 47.2851Z" fill="black"/>
<path d="M75.0505 48.111C74.6788 48.0697 74.3072 48.0009 73.9493 47.9321L72.8894 47.7118C72.5315 47.643 72.1873 47.5742 71.8294 47.5191C71.4715 47.4503 71.1274 47.409 70.7557 47.3402H70.7282C70.508 47.2989 70.3703 47.0924 70.4116 46.8721C70.4391 46.7207 70.563 46.5968 70.7144 46.5555C70.8108 46.528 70.9209 46.5142 71.0173 46.5005C71.1136 46.4867 71.2238 46.4729 71.3201 46.4592C71.4165 46.4454 71.5266 46.4454 71.623 46.4316C71.7193 46.4316 71.8294 46.4316 71.9258 46.4316C72.3387 46.4454 72.7379 46.5005 73.1234 46.5831C73.5088 46.6657 73.8942 46.7895 74.2659 46.9685C74.6376 47.1474 74.9817 47.3402 75.2845 47.6292C75.3946 47.7256 75.4084 47.9045 75.2983 48.0147C75.2432 48.0835 75.1469 48.111 75.0643 48.0972L75.0505 48.111Z" fill="black"/>
<path d="M70.3151 54.4707C70.3151 54.4707 69.6819 55.9161 69.145 56.2878C68.6082 56.6594 66.9839 53.9064 66.9839 53.9064C66.9839 53.9064 67.328 53.6586 68.7321 54.3055C70.1361 54.925 70.3151 54.4707 70.3151 54.4707Z" fill="#AC4035"/>
<path d="M65.8413 57.8018C67.5757 57.8293 68.6907 57.0309 69.3928 56.1499C69.0899 55.4479 68.4292 54.2779 67.2041 53.8787C66.7085 53.9062 66.1992 54.1402 65.4834 54.2779C64.4785 54.4843 63.1708 54.7459 62.0283 54.2779C62.0834 55.4341 62.6891 57.7467 65.8413 57.8018Z" fill="#AC4035"/>
<path d="M70.1498 54.5807C69.4064 55.1451 68.0712 55.682 65.7724 55.5168C63.9416 55.3791 62.8542 55.0075 62.2209 54.6633C62.4274 54.6496 62.6477 54.6358 62.8542 54.6083C64.6712 54.4706 65.8963 54.1402 67.1627 54.1265C67.9749 54.1127 68.8558 54.2641 69.7643 54.4981C69.8882 54.5257 70.0259 54.5532 70.1498 54.5807Z" fill="white"/>
<path d="M61.7256 53.6584C62.29 54.0163 62.9783 54.2091 63.7216 54.2641C64.0933 54.2916 64.4787 54.2641 64.8504 54.1815C65.222 54.1127 65.5937 54.0163 65.9653 53.9062L66.5297 53.741C66.7224 53.686 66.9289 53.6309 67.1492 53.6034C67.3694 53.5759 67.6172 53.5896 67.8374 53.6584C67.9476 53.686 68.0577 53.7273 68.154 53.7823L68.2917 53.8512C68.333 53.8649 68.3743 53.8925 68.4156 53.9062C68.7322 54.0439 69.0763 54.1265 69.4204 54.1402C69.5994 54.1402 69.7646 54.1402 69.9435 54.1127C70.0261 54.0989 70.1225 54.0852 70.2051 54.0714C70.2876 54.0576 70.3702 54.0301 70.4528 54.0026L70.4941 53.9888C70.7281 53.9337 70.9621 54.0714 71.031 54.3054C71.0998 54.5394 70.9484 54.7734 70.7144 54.8423C70.7006 54.8423 70.6731 54.856 70.6593 54.856C70.4391 54.8836 70.2188 54.8973 70.0123 54.9111C69.8059 54.9249 69.5856 54.9111 69.3654 54.8836C68.9387 54.8285 68.5119 54.7046 68.1265 54.4981C68.0852 54.4706 68.0301 54.4431 67.9888 54.4155L67.865 54.3467C67.7961 54.3054 67.7273 54.2641 67.6585 54.2366C67.5071 54.1815 67.3556 54.154 67.1905 54.154C67.0253 54.154 66.8463 54.1953 66.6674 54.2366L66.103 54.3742C65.3459 54.567 64.5613 54.7321 63.7491 54.8423C63.3362 54.8973 62.9232 54.9111 62.4965 54.8285C62.3864 54.8147 62.29 54.7872 62.1799 54.7597C62.0698 54.7321 61.9734 54.6908 61.8633 54.6633C61.6568 54.5807 61.4641 54.4844 61.2714 54.3605C61.0787 54.2228 61.0374 53.975 61.1613 53.7823C61.2851 53.5896 61.5329 53.5346 61.7256 53.6584Z" fill="black"/>
<path d="M62.2488 54.2642C62.3727 55.1865 62.7582 56.0812 63.4189 56.6456C64.0934 57.21 65.0019 57.4302 65.9242 57.444C66.8465 57.4577 67.7412 57.21 68.4845 56.6594C69.2279 56.1087 69.806 55.3241 70.219 54.4569C70.2465 54.4156 70.2878 54.3881 70.3429 54.4156C70.3841 54.4294 70.3979 54.4844 70.3979 54.5257C70.1501 55.4893 69.6408 56.4253 68.8424 57.1136C68.4432 57.4577 67.9752 57.733 67.4797 57.912C66.9841 58.0909 66.4473 58.1735 65.9242 58.1735C65.4011 58.1598 64.878 58.1322 64.3687 57.9671C63.8594 57.8156 63.3638 57.5541 62.9646 57.1824C62.5517 56.8108 62.2626 56.3428 62.0699 55.8472C61.8772 55.3516 61.7946 54.8286 61.8084 54.3055C61.8084 54.1816 61.9185 54.0852 62.0286 54.0852C62.1387 54.0715 62.2351 54.1541 62.2488 54.2642Z" fill="black"/>
<path d="M62.469 54.6221C63.0884 54.8286 63.7354 54.9937 64.3686 55.1314C65.0156 55.2553 65.6625 55.3516 66.2957 55.3379C66.6123 55.3379 66.9565 55.3103 67.2731 55.2828C67.6034 55.2553 67.9338 55.214 68.2504 55.1727C68.567 55.1176 68.8974 55.0626 69.214 54.98C69.5306 54.8974 69.8334 54.7873 70.1087 54.6221C70.1363 54.6083 70.1638 54.6083 70.1776 54.6358C70.1913 54.6634 70.1913 54.6909 70.1638 54.7047C69.9022 54.9387 69.5856 55.0901 69.269 55.214C68.9524 55.3379 68.6221 55.4342 68.2917 55.5031C67.631 55.6545 66.9565 55.7371 66.282 55.7784C65.5937 55.8059 64.9054 55.7095 64.2447 55.5444C63.584 55.3792 62.9508 55.1589 62.3313 54.8699C62.2625 54.8423 62.235 54.7597 62.2625 54.6909C62.3313 54.6358 62.4002 54.6083 62.469 54.6221Z" fill="black"/>
</svg>
