<svg width="236" height="341" viewBox="0 0 236 341" fill="none" xmlns="http://www.w3.org/2000/svg">
<path d="M122.866 217.748V219.103C122.866 220.165 123.415 221.117 124.33 221.666L155.309 226.427L215.106 217.309C216.534 217.089 217.596 215.844 217.596 214.38L122.866 217.748Z" fill="#525252"/>
<path d="M183.175 207.752L123.635 216.906C122.793 217.016 122.573 218.151 123.342 218.554L155.566 223.937L217.669 214.416L183.175 207.752Z" fill="#737373"/>
<path d="M155.309 227.159C155.273 227.159 155.236 227.159 155.199 227.159L124.221 222.399C124.111 222.399 124.038 222.362 123.964 222.326C122.829 221.667 122.097 220.421 122.097 219.103V217.748C122.097 217.346 122.426 216.979 122.866 216.979C123.305 216.979 123.635 217.309 123.635 217.748V219.103C123.635 219.836 124.001 220.531 124.624 220.934L155.309 225.658L214.996 216.54C216.058 216.394 216.864 215.478 216.864 214.38C216.864 213.977 217.193 213.611 217.632 213.611C218.072 213.611 218.401 213.94 218.401 214.38C218.401 216.21 217.083 217.748 215.252 218.041L155.456 227.159C155.382 227.159 155.346 227.159 155.309 227.159Z" fill="black"/>
<path d="M88.2252 152.496C88.2252 152.496 85.5155 136.64 70.429 135.432C55.3059 134.224 52.6328 145.282 50.6921 149.969C48.7514 154.656 49.8499 170.146 59.9198 173.588C69.9896 177.03 84.0508 172.636 89.1041 170.585L88.2252 152.496Z" fill="#F5D1BE"/>
<path d="M134.071 188.857C139.38 196.107 163.072 199.183 167.356 188.198C156.81 189.113 145.679 189.297 134.071 188.857Z" fill="#F5D1BE"/>
<path d="M83.3552 102.696C83.9045 102.293 95.2926 93.2117 95.2926 93.2117C95.2926 93.2117 120.046 85.522 139.637 92.1864C139.637 92.1864 139.82 89.257 137.256 86.767C137.256 86.767 153.258 87.0599 162.449 92.1132C162.449 92.1132 164.5 88.9641 161.79 85.1558C161.79 85.1558 179.22 87.6825 182.772 91.5273C182.772 91.5273 184.2 89.7697 182.772 85.1558C182.772 85.1558 191.011 84.277 195.003 88.8542C195.003 88.8542 197.126 85.2657 196.321 83.2883C196.321 83.2883 205.182 91.3076 203.388 104.27C201.594 117.27 199.653 119.723 200.422 122.835C201.191 125.948 205.768 138.435 206.427 141.694C206.427 141.694 194.49 148.395 189.18 138.398C183.871 128.401 176.694 130.013 173.581 129.976C170.469 129.939 163.292 129.866 158.898 135.505C154.503 141.144 151.83 150.189 142.676 151.178C133.521 152.166 113.785 150.738 105.729 147.333C97.6727 143.891 94.3405 141.291 92.8026 136.054C91.2647 130.818 86.4311 114.743 86.4311 114.743L83.3552 102.696Z" fill="#F5D1BE"/>
<path d="M180.941 315.335C180.941 315.335 193.831 315.444 205.585 308.634C205.585 308.634 211.298 316.616 214.337 318.594C217.376 320.571 216.827 321.413 221.807 321.779C226.787 322.146 226.787 325.881 226.311 327.345C225.835 328.81 224.37 331.849 220.891 331.373C219.976 334.376 217.669 335.694 213.641 334.962C212.286 337.488 210.272 338.733 207.16 337.818C207.16 337.818 204.377 340.967 201.154 338.514C201.154 338.514 197.786 341.882 193.318 336.317C188.851 330.751 186.764 330.897 184.969 329.616C183.175 328.334 178.195 326.466 178.781 321.816C179.367 317.165 180.941 315.335 180.941 315.335Z" fill="#F5D1BE"/>
<path d="M135.132 144.586C142.898 144.586 149.194 142.111 149.194 139.057C149.194 136.003 142.898 133.528 135.132 133.528C127.367 133.528 121.071 136.003 121.071 139.057C121.071 142.111 127.367 144.586 135.132 144.586Z" fill="#F5AC89"/>
<path d="M137.623 248.105C137.623 248.105 155.126 230.821 172.483 226.427C189.839 222.033 195.955 227.709 200.459 234.629C204.963 241.55 201.557 253.597 201.557 253.597L198.518 262.056C198.518 262.056 205.475 273.114 207.233 284.21C208.99 295.268 209.027 306.034 209.027 306.034C209.027 306.034 196.431 316.397 181.124 315.774C181.124 315.774 170.725 308.743 166.99 303.507C142.639 314.602 120.266 316.25 101.042 302.372C101.042 302.372 108.328 285.381 123.488 273.078C123.488 273.078 125.063 283.404 131.727 283.734C138.392 284.063 143.225 276.373 144.324 275.312C145.422 274.25 151.171 271.32 151.171 271.32C148.571 262.569 144.25 254.732 137.623 248.105Z" fill="#BAC6DE"/>
<path d="M190.096 223.497C189.217 224.34 188.704 225.072 186.251 224.596C183.798 224.12 177.023 224.047 173.874 225.365C173.874 225.365 164.28 227.928 158.055 231.736C158.055 231.736 151.281 235.947 147.729 238.694C144.141 241.44 137.403 247.555 137.403 247.555C137.403 247.555 137.11 242.209 133.888 242.319C133.888 242.319 131.031 239.866 129.164 240.158C128.908 240.195 128.139 237.376 124.623 237.595C122.756 233.787 118.984 236.204 118.984 236.204C113.894 231.114 110.709 235.984 110.709 235.984C107.523 242.868 112.906 242.319 113.711 249.606C114.517 256.893 115.945 261.324 115.945 261.324C115.945 261.324 117.996 264.619 120.119 266.084C122.207 267.549 123.488 272.638 123.488 272.638C113.528 281.17 105.619 292.449 98.8812 305.265C75.1895 290.764 73.798 271.467 72.553 255.062C71.2714 238.035 76.288 224.45 76.288 224.45C85.5889 195.155 108.841 183.181 108.841 183.181C112.576 185.525 132.643 189.223 132.643 189.223C145.715 198.268 158.641 198.817 168.858 188.747C168.858 188.747 170.066 188.637 169.187 190.798C168.272 192.995 161.021 210.681 161.021 210.681C161.021 210.681 161.131 211.121 159.483 211.377C157.836 211.633 136.927 214.856 136.927 214.856C136.927 214.856 136.707 215.551 135.462 212.549C134.217 209.546 130.482 205.408 122.5 207.129C114.517 208.85 111.624 216.43 111.624 216.43C111.624 216.43 112.137 217.163 115.323 218.554C118.508 219.909 126.308 227.232 126.308 227.232L127.663 222.216L155.089 226.72L190.718 221.081C190.682 221.044 190.975 222.692 190.096 223.497Z" fill="#8090B2"/>
<path d="M206.281 141.071C205.805 141.108 205.292 141.108 204.78 141.108C198.005 141.108 192.549 138.947 192.549 136.274C192.549 133.784 197.383 131.697 203.571 131.477C203.644 131.624 203.681 131.77 203.754 131.917C204.963 134.846 205.805 137.922 206.281 141.071Z" fill="#F5AC89"/>
<path d="M194.966 88.8908C191.231 85.998 186.69 84.4967 182.003 84.2038C183.578 86.3276 184.054 89.257 183.211 91.7836C176.364 88.2317 169.15 86.1445 161.534 84.7896C162.925 86.9867 163.365 89.733 162.742 92.223C154.43 88.7077 145.422 86.8402 136.451 86.1811C138.574 87.4261 139.929 89.8063 139.966 92.223C125.136 88.305 107.999 88.0486 93.7178 93.7244C97.526 91.0147 101.517 88.5613 105.582 86.3276C107.852 85.0826 110.159 83.9108 112.503 82.7757C117.629 80.3223 122.975 78.2351 128.431 76.5873C142.676 72.2664 157.799 70.7285 172.629 72.3396C176.584 72.779 191.414 75.8183 193.611 78.5646C194.307 79.4435 194.819 80.4321 195.185 81.4574C196.028 83.9108 195.954 86.6205 194.966 88.8908Z" fill="#3A302E"/>
<path d="M207.453 152.825C207.086 156.45 205.805 159.929 204.194 163.225C199.543 172.819 191.927 181.314 181.967 185.159C178.781 186.367 175.485 187.099 172.116 187.722C169.224 188.235 166.697 188.857 163.768 189.223C146.85 191.457 129.42 189.882 113.162 184.719C107.706 182.998 89.0675 171.757 89.0675 171.061C89.1408 165.861 89.5069 160.442 88.5183 155.352C88.5183 155.315 88.5183 155.315 88.5183 155.315C87.7127 151.068 87.3831 146.966 84.6734 143.598C83.5016 142.17 82.1102 140.925 80.6088 139.863C80.3891 139.716 80.1694 139.57 79.9497 139.423C73.798 135.432 65.4857 134.297 59.1143 137.849C59.7368 136.091 60.4325 134.333 61.1649 132.612C62.9957 128.365 65.1928 124.263 67.6828 120.345C70.2094 116.391 73.029 112.692 76.1415 109.25C77.1302 108.152 78.1188 107.09 79.1807 106.028C79.4005 105.808 79.6202 105.552 79.8765 105.332C80.5356 104.673 81.2313 104.014 81.9271 103.355C82.22 103.062 82.513 102.806 82.8059 102.549C83.1355 102.256 83.465 101.963 83.7946 101.634C84.8565 112.326 87.5296 123.348 91.5575 133.308C93.0589 136.97 94.8165 140.668 97.7825 143.305C100.858 145.978 104.886 147.259 108.841 148.248C116.421 150.189 124.184 151.47 132.02 152.093C136.963 152.496 142.236 152.569 146.594 150.152C152.233 147.04 155.016 140.558 158.971 135.469C160.142 134.004 161.461 132.576 163.072 131.66C164.976 130.598 167.173 130.269 169.297 130.086C172.226 129.866 175.156 129.939 178.049 130.305C180.355 130.598 182.699 131.111 184.64 132.356C188.045 134.48 187.935 139.57 191.158 141.95C192.842 143.195 195.003 143.634 197.053 144C197.785 144.147 198.481 144.257 199.214 144.293C201.411 144.403 204.596 143.488 206.208 141.986C206.244 142.06 206.317 142.133 206.354 142.206C208.295 145.282 207.782 149.273 207.453 152.825Z" fill="#3A302E"/>
<path d="M172.226 35.429C168.455 34.6234 163.987 33.3784 158.568 32.4263C149.487 30.8151 137.769 30.1194 122.39 33.891C122.353 33.891 122.353 33.891 122.316 33.9276C110.709 36.8204 97.0136 42.2765 80.7919 51.9069C80.2427 52.2365 79.6934 52.566 79.1075 52.8956C78.6681 53.1519 78.2287 53.4449 77.7893 53.7012C65.6688 61.3177 56.6975 70.9115 50.1063 80.9081C50.0697 80.9448 50.0697 80.9814 50.0331 81.018C42.8926 91.8202 38.4619 103.098 35.7522 112.766C33.8847 119.393 32.8228 125.289 32.2003 129.793C31.4313 135.395 31.3947 138.801 31.3947 138.801C31.3947 138.801 28.2822 134.992 23.7782 129.17C19.2376 123.385 17.2603 105.296 17.2603 105.296C8.14245 103.062 1.29494 92.6624 0.709058 82.9953C0.123174 73.3283 2.68641 68.2018 8.8748 55.349C15.0632 42.4962 40.0365 20.8185 40.0365 20.8185C40.0365 20.8185 69.6968 -3.56887 102.213 1.99701C134.437 7.59952 171.64 35.0262 172.226 35.429Z" fill="#8090B2"/>
<path d="M200.715 88.7444C200.129 87.6092 199.47 86.5107 198.738 85.4854C197.676 84.0573 196.504 82.7391 195.222 81.5673C194.856 80.5054 194.343 79.5533 193.648 78.6745C191.487 75.9282 176.657 72.8889 172.666 72.4495C157.836 70.8383 142.713 72.3763 128.468 76.6971C123.012 78.3449 117.666 80.4321 112.54 82.8855C110.196 83.9841 107.926 85.1924 105.619 86.4374C101.554 88.6711 97.5629 91.1245 93.7547 93.8342C93.0223 94.3469 92.2533 94.8961 91.521 95.4454C88.8479 97.4228 86.2846 99.4733 83.8313 101.67C83.5017 101.963 83.1721 102.256 82.8426 102.586C82.5496 102.842 82.2567 103.135 81.9638 103.391C81.268 104.051 80.5723 104.673 79.9132 105.369C79.6935 105.588 79.4738 105.808 79.2174 106.065C78.1921 107.126 77.1668 108.188 76.1782 109.287C73.0657 112.766 70.2095 116.464 67.7195 120.382C65.2295 124.3 63.0324 128.401 61.2015 132.649C60.4692 134.37 59.7734 136.128 59.1509 137.885C58.9678 137.995 58.8214 138.068 58.6749 138.178C52.34 142.023 49.3374 149.933 49.6669 157.366C49.8134 160.771 50.5824 164.177 52.2302 167.179C52.8527 168.278 53.585 169.34 54.4272 170.292C41.6111 170.292 36.6677 159.966 35.203 155.938C32.0905 147.15 31.3581 138.471 32.2003 129.903C32.8228 125.399 33.8847 119.503 35.7522 112.875C37.6563 106.724 40.1097 100.682 42.7828 94.7497C44.9067 90.0626 47.3234 85.4854 50.0697 81.1279C50.0697 81.0913 50.1064 81.0546 50.143 81.018C56.7708 71.0214 65.7055 61.4276 77.826 53.8111C78.2654 53.5181 78.7048 53.2618 79.1442 53.0055C96.0982 42.7525 110.342 37.0036 122.353 34.0009C122.39 34.0009 122.39 34.0009 122.426 33.9643C134.254 31.3644 146.594 30.8152 158.605 32.4996C164.024 33.4516 168.491 34.6966 172.263 35.5022C181.527 38.4317 190.608 42.7892 196.431 50.4423C205.878 62.9655 208.734 78.821 200.715 88.7444Z" fill="#BAC6DE"/>
<path d="M174.313 63.0021C176.108 57.3996 176.51 50.0395 174.24 43.8511C163.951 40.6287 152.819 40.0795 142.273 42.2765C140.296 48.6114 142.712 59.7432 144.946 62.5261C153.771 65.0527 165.196 64.1007 174.313 63.0021Z" fill="#17191C"/>
<path d="M165.489 49.9662C165.233 49.8564 164.94 49.7832 164.647 49.6733C164.72 49.3804 164.793 49.0874 164.83 48.7945C165.086 47.0734 164.757 45.9017 163.951 45.4257C163.145 44.9496 161.937 45.2792 160.582 46.3777C160.362 46.5608 160.143 46.7805 159.923 46.9636C159.703 46.7439 159.447 46.5608 159.227 46.3777C157.872 45.3158 156.664 44.9862 155.859 45.4623C155.016 45.9383 154.723 47.1467 155.016 48.8677C155.053 49.1607 155.126 49.4536 155.199 49.7465C154.906 49.8198 154.614 49.9296 154.357 50.0395C152.746 50.662 151.867 51.5408 151.867 52.4929C151.867 53.4449 152.746 54.3238 154.357 54.9463C154.614 55.0561 154.906 55.1293 155.199 55.2392C155.126 55.5321 155.053 55.8251 155.016 56.118C154.76 57.839 155.09 59.0108 155.895 59.4868C156.151 59.6333 156.408 59.7066 156.737 59.7066C157.47 59.7066 158.312 59.3038 159.264 58.5348C159.484 58.3517 159.703 58.132 159.923 57.9489C160.143 58.1686 160.399 58.3517 160.619 58.5348C161.571 59.3038 162.45 59.6699 163.145 59.6699C163.438 59.6699 163.731 59.5967 163.988 59.4502C164.83 58.9742 165.123 57.7658 164.83 56.0448C164.793 55.7518 164.72 55.4589 164.647 55.166C164.94 55.0927 165.233 54.9829 165.489 54.873C167.1 54.2505 167.979 53.3717 167.979 52.4196C167.979 51.4309 167.1 50.5521 165.489 49.9662ZM160.985 46.8904C162.084 46.0115 162.999 45.682 163.548 46.0115C164.097 46.3411 164.317 47.2932 164.097 48.6846C164.061 48.9409 163.988 49.2339 163.951 49.4902C163.255 49.3437 162.523 49.2339 161.754 49.1607C161.315 48.5382 160.839 47.9523 160.362 47.4396C160.582 47.2565 160.765 47.0734 160.985 46.8904ZM162.193 53.7379C161.937 54.1773 161.681 54.6167 161.388 55.0195C160.912 55.0561 160.399 55.0927 159.886 55.0927C159.374 55.0927 158.861 55.0927 158.385 55.0561C158.092 54.6533 157.836 54.2139 157.58 53.7745C157.323 53.3351 157.103 52.8957 156.884 52.4562C157.103 52.0168 157.323 51.5774 157.58 51.138C157.836 50.6986 158.092 50.2592 158.385 49.8564C158.861 49.8198 159.374 49.7832 159.886 49.7832C160.399 49.7832 160.912 49.7832 161.388 49.8198C161.681 50.2226 161.937 50.662 162.193 51.1014C162.45 51.5408 162.669 51.9802 162.889 52.4196C162.669 52.859 162.45 53.2985 162.193 53.7379ZM163.255 53.2252C163.475 53.7013 163.621 54.1773 163.768 54.6533C163.292 54.7632 162.816 54.873 162.303 54.9096C162.486 54.6533 162.633 54.3604 162.816 54.0674C162.999 53.7745 163.109 53.5182 163.255 53.2252ZM159.923 56.9236C159.594 56.5574 159.264 56.1913 158.934 55.7885C159.264 55.7885 159.594 55.8251 159.886 55.8251C160.216 55.8251 160.546 55.8251 160.839 55.7885C160.582 56.1913 160.253 56.5574 159.923 56.9236ZM157.506 54.9463C156.994 54.873 156.481 54.7998 156.042 54.6899C156.188 54.2139 156.335 53.7379 156.554 53.2618C156.701 53.5548 156.847 53.8477 157.03 54.104C157.14 54.397 157.323 54.6899 157.506 54.9463ZM156.518 51.614C156.298 51.138 156.151 50.662 156.005 50.186C156.481 50.0761 156.957 49.9662 157.47 49.9296C157.287 50.186 157.14 50.4789 156.957 50.7718C156.774 51.0648 156.664 51.3211 156.518 51.614ZM159.886 47.9523C160.216 48.3184 160.546 48.6846 160.875 49.0874C160.546 49.0874 160.216 49.0508 159.923 49.0508C159.594 49.0508 159.264 49.0508 158.971 49.0874C159.227 48.6846 159.557 48.2818 159.886 47.9523ZM162.779 50.7352C162.596 50.4423 162.45 50.186 162.267 49.893C162.779 49.9662 163.292 50.0395 163.731 50.1493C163.585 50.6254 163.438 51.1014 163.219 51.5774C163.109 51.3211 162.962 51.0282 162.779 50.7352ZM155.639 48.7212C155.419 47.3298 155.602 46.3777 156.151 46.0482C156.298 45.9749 156.444 45.9383 156.627 45.9383C157.177 45.9383 157.909 46.2679 158.715 46.927C158.934 47.1101 159.154 47.2932 159.337 47.4762C158.861 47.9889 158.385 48.5748 157.946 49.1973C157.177 49.2705 156.444 49.3804 155.749 49.5635C155.749 49.2339 155.675 48.9776 155.639 48.7212ZM154.54 54.2505C153.222 53.7379 152.49 53.1154 152.49 52.4562C152.49 51.7971 153.222 51.1746 154.54 50.662C154.797 50.5521 155.053 50.4789 155.346 50.4057C155.566 51.0648 155.822 51.7605 156.151 52.4562C155.822 53.152 155.566 53.8477 155.382 54.5068C155.053 54.4336 154.797 54.3604 154.54 54.2505ZM158.788 57.9855C157.689 58.8643 156.774 59.1939 156.225 58.8643C155.675 58.5348 155.456 57.5827 155.675 56.1912C155.712 55.9349 155.785 55.642 155.822 55.3857C156.518 55.5321 157.25 55.642 158.019 55.7152C158.458 56.3377 158.934 56.9236 159.41 57.4363C159.227 57.6193 159.008 57.8024 158.788 57.9855ZM164.134 56.1546C164.354 57.5461 164.171 58.4982 163.621 58.8277C163.072 59.1573 162.12 58.8277 161.022 57.9489C160.802 57.7658 160.582 57.5827 160.399 57.3996C160.875 56.887 161.351 56.3011 161.791 55.6786C162.56 55.6054 163.292 55.4955 163.988 55.3124C164.061 55.6054 164.097 55.8983 164.134 56.1546ZM165.269 54.2139C165.013 54.3238 164.757 54.397 164.464 54.4702C164.244 53.8111 163.988 53.1154 163.658 52.4196C163.988 51.7239 164.244 51.0282 164.427 50.369C164.72 50.4423 164.976 50.5521 165.233 50.6254C166.551 51.138 167.283 51.7605 167.283 52.4196C167.283 53.0787 166.551 53.7012 165.269 54.2139Z" fill="#5ED3F3"/>
<path d="M159.945 53.8863C160.753 53.8576 161.385 53.179 161.356 52.3705C161.328 51.5621 160.649 50.93 159.841 50.9587C159.032 50.9874 158.4 51.666 158.429 52.4745C158.457 53.2829 159.136 53.915 159.945 53.8863Z" fill="#5ED3F3"/>
<path d="M17.48 106.028C16.1618 105.625 14.9168 105.149 13.7084 104.527C12.5 103.904 11.3649 103.172 10.2663 102.366C8.1059 100.718 6.20178 98.7409 4.70046 96.5072C3.16251 94.2735 2.02737 91.7835 1.25839 89.1837C0.489423 86.5838 0.123243 83.9107 0.0133898 81.201C-0.133081 75.8182 0.928833 70.4354 2.86957 65.4188C3.82163 62.9288 4.99339 60.512 6.31163 58.1685C7.62987 55.825 9.05796 53.5913 10.5593 51.3942C13.6352 47.0367 16.9674 42.8989 20.4094 38.871C23.8881 34.843 27.5133 30.9616 31.3581 27.2998C39.0478 19.9396 47.653 13.4583 57.1736 8.62477C59.5538 7.45301 62.0071 6.31786 64.4971 5.3658C65.7421 4.85315 67.0238 4.45036 68.2688 3.97433C68.8913 3.75462 69.5504 3.57153 70.1729 3.35183C70.832 3.16874 71.4545 2.94903 72.1136 2.76594C77.2767 1.33786 82.5863 0.349176 87.9325 0.0928525C93.2786 -0.200089 98.6981 0.202704 103.971 1.26462C109.244 2.32653 114.334 3.93771 119.35 5.76859C129.347 9.43036 138.978 14.0076 148.315 19.0242C157.653 24.0408 166.734 29.5335 175.778 35.0261C176.401 35.3923 176.621 36.2345 176.218 36.857C175.815 37.4795 175.009 37.6992 174.387 37.2964C165.379 31.7672 156.371 26.2745 147.107 21.2213C137.842 16.168 128.358 11.5908 118.508 7.92904C113.601 6.06154 108.585 4.48697 103.495 3.42506C98.4051 2.36315 93.2054 1.92374 87.9691 2.18006C82.7694 2.39977 77.6063 3.31521 72.553 4.67006C71.9305 4.81653 71.308 5.03624 70.6855 5.21933C70.063 5.40242 69.4405 5.58551 68.818 5.80521C67.573 6.24462 66.328 6.64742 65.1196 7.12345C62.6663 8.03889 60.2861 9.13742 57.9426 10.2726C48.5684 14.9596 40.0731 21.2945 32.4567 28.5082C28.6118 32.0967 25.0233 35.9416 21.5446 39.8963C18.1025 43.8876 14.7337 47.9522 11.7311 52.2364C10.2297 54.3603 8.80164 56.5939 7.52002 58.8642C6.2384 61.1345 5.06663 63.4781 4.15119 65.9315C2.24707 70.765 1.18516 75.9647 1.29501 81.1644C1.36824 83.7643 1.73442 86.3275 2.43016 88.8175C3.16251 91.3075 4.22442 93.6877 5.68913 95.8115C8.58193 100.059 12.8662 103.465 17.8096 104.929C18.1025 105.003 18.2856 105.332 18.1758 105.625C18.1025 105.955 17.773 106.101 17.48 106.028Z" fill="black"/>
<path d="M31.1382 140.339C30.0031 139.46 28.9778 138.508 27.9891 137.519C27.0371 136.494 26.1582 135.395 25.3526 134.26C24.5471 133.125 23.8513 131.917 23.1922 130.708C22.5331 129.5 21.9472 128.255 21.4346 126.973C20.9219 125.692 20.4459 124.41 20.0065 123.128C19.6037 121.847 19.2009 120.528 18.8713 119.21C18.2122 116.574 17.6629 113.901 17.3334 111.228C16.6376 105.845 16.5278 100.389 17.0771 95.0059C17.6263 89.6231 18.7981 84.3136 20.5557 79.2237C20.6656 78.9308 20.9585 78.7843 21.2515 78.8941C21.5444 79.004 21.6909 79.2969 21.581 79.5899C19.9699 84.6431 18.9446 89.8794 18.5418 95.1524C18.139 100.425 18.3587 105.735 19.1643 110.971C19.5671 113.571 20.1163 116.171 20.8487 118.698C21.5444 121.224 22.4232 123.714 23.4851 126.094C24.0344 127.303 24.6203 128.438 25.2428 129.573C25.9019 130.708 26.5977 131.77 27.33 132.832C28.099 133.857 28.9046 134.846 29.82 135.761C30.7354 136.677 31.6875 137.482 32.7128 138.215C33.2987 138.654 33.4452 139.46 33.0057 140.046C32.5663 140.632 31.7607 140.778 31.1382 140.339Z" fill="black"/>
<path d="M54.3539 171.537C40.4026 171.537 35.1662 159.856 33.9212 156.304C26.0118 133.931 33.3354 112.326 41.5377 94.1637C47.543 80.8715 55.1595 70.0693 64.1674 62.1232C70.5389 56.4841 77.716 52.1266 84.5269 48.2451C91.3012 44.4003 100.382 39.4935 110.196 36.0514C126.088 30.4855 143.298 28.8378 159.959 31.3278C171.311 33.0122 187.02 37.5894 197.419 49.5634C202.106 54.9828 205.219 61.9035 206.171 69.044C207.16 76.5872 205.622 83.8375 201.813 89.5133C201.411 90.1358 200.568 90.2822 199.982 89.8794C199.36 89.4766 199.213 88.6344 199.616 88.0486C206.5 77.8322 204.706 62.0134 195.405 51.321C185.555 39.9329 170.469 35.612 159.557 33.9642C143.298 31.5475 126.564 33.122 111.075 38.5781C101.444 41.9469 92.5462 46.7438 85.8451 50.552C79.1441 54.3603 72.1135 58.6446 65.9251 64.1006C57.1735 71.8269 49.8133 82.2996 43.9545 95.2622C35.9718 112.949 28.8314 133.967 36.4479 155.462C37.876 159.526 42.4898 168.937 54.3905 168.937C55.1229 168.937 55.7088 169.523 55.7088 170.255C55.7088 170.951 55.1229 171.537 54.3539 171.537C54.3905 171.537 54.3539 171.537 54.3539 171.537Z" fill="black"/>
<path d="M158.458 64.5034C153.624 64.5034 148.974 64.064 144.836 62.8922C144.763 62.8556 144.69 62.819 144.653 62.7457C142.493 59.9994 139.893 48.7212 141.943 42.13C141.98 41.9835 142.09 41.9103 142.236 41.8736C152.892 39.64 164.024 40.2258 174.387 43.4848C174.497 43.5214 174.57 43.5947 174.643 43.7045C177.096 50.4422 176.291 58.1319 174.716 63.1119C174.68 63.2584 174.533 63.3682 174.387 63.3682C169.26 63.9907 163.768 64.5034 158.458 64.5034ZM145.166 62.1965C153.624 64.6132 164.463 63.771 174.021 62.6725C175.522 57.8756 176.254 50.5887 173.947 44.1806C163.804 41.0314 152.965 40.4822 142.566 42.606C140.735 48.9042 143.115 59.4135 145.166 62.1965Z" fill="black"/>
<path d="M206.427 143.598C205.768 143.598 205.182 143.085 205.109 142.389C205.072 141.986 205.036 141.62 204.962 141.254C204.523 138.215 203.717 135.249 202.546 132.393L202.472 132.246C202.436 132.173 202.399 132.1 202.363 132.026V131.99C202.07 131.294 201.74 130.598 201.41 129.903C200.715 128.365 199.946 126.753 199.433 125.069C198.664 122.579 199.213 120.675 199.836 118.624C199.982 118.185 200.092 117.745 200.239 117.269C201.887 111.008 202.546 106.211 202.436 101.67C202.326 97.4959 201.41 91.454 197.639 86.2909C196.797 85.1191 195.808 84.0206 194.746 82.9953C194.233 82.4827 194.197 81.6404 194.709 81.1278C195.222 80.6152 196.064 80.5785 196.577 81.0912C197.749 82.2263 198.811 83.4347 199.763 84.753C203.937 90.4653 204.926 97.0931 205.036 101.634C205.145 106.431 204.45 111.447 202.729 117.965C202.582 118.478 202.472 118.954 202.326 119.43C201.777 121.261 201.374 122.616 201.923 124.337C202.399 125.875 203.058 127.303 203.754 128.841C204.084 129.536 204.413 130.269 204.706 130.964C204.743 131.074 204.779 131.148 204.816 131.257L204.889 131.404C206.171 134.48 207.05 137.666 207.489 140.924C207.562 141.327 207.599 141.767 207.635 142.206C207.709 142.938 207.159 143.598 206.464 143.634C206.5 143.598 206.464 143.598 206.427 143.598Z" fill="black"/>
<path d="M59.1508 139.167C58.4184 139.167 57.8325 138.581 57.8325 137.849C57.8325 137.666 57.8691 137.482 57.9424 137.336C58.5649 135.578 59.2606 133.784 59.993 132.1C61.8238 127.815 64.0575 123.641 66.5841 119.65C69.0741 115.768 71.9669 111.96 75.1893 108.371C79.6567 103.391 84.893 98.6677 90.7152 94.3834C91.4109 93.8707 92.1433 93.3215 92.9489 92.7722C93.5348 92.3694 94.377 92.4793 94.7798 93.1018C95.1826 93.6877 95.0727 94.5299 94.4502 94.9327C93.6446 95.4819 92.9489 95.9946 92.2531 96.5072C86.5774 100.718 81.4875 105.295 77.13 110.166C74.0175 113.644 71.198 117.343 68.7812 121.114C66.3278 124.996 64.1674 129.06 62.3731 133.198C61.6408 134.883 60.9816 136.604 60.3591 138.361C60.2127 138.801 59.7 139.167 59.1508 139.167Z" fill="black"/>
<path d="M93.7548 95.1157C93.4252 95.1157 93.059 94.9693 92.8027 94.7129C92.3267 94.2369 92.2901 93.5412 92.6562 92.9919C92.7661 92.8454 92.9126 92.7356 93.059 92.6257C96.7574 90.0259 100.749 87.5359 104.96 85.229C107.193 84.0206 109.537 82.8122 111.917 81.6404C117.08 79.1504 122.536 77.0632 128.029 75.3788C142.53 70.9847 158.019 69.4833 172.739 71.0945C173.069 71.1311 173.435 71.1678 173.838 71.2044C178.415 71.6438 187.972 72.5959 194.38 77.5759C197.749 80.2123 197.822 85.5219 196.138 89.4034C195.991 89.7696 195.662 90.0625 195.259 90.1723C194.856 90.2822 194.453 90.1723 194.124 89.9526C191.341 87.7922 188.009 86.4007 184.31 85.8148C185.079 87.8654 185.116 90.1357 184.42 92.2229C184.31 92.5891 184.017 92.8821 183.651 93.0285C183.285 93.175 182.882 93.1384 182.553 92.9919C177.06 90.1357 170.908 88.0485 163.768 86.6204C164.39 88.5612 164.464 90.6484 163.987 92.6257C163.878 92.9919 163.621 93.3215 163.292 93.4679C162.962 93.651 162.559 93.651 162.193 93.5046C155.492 90.6484 148.022 88.7809 139.93 87.902C140.772 89.2203 141.248 90.7582 141.248 92.2962C141.248 92.699 141.065 93.1018 140.735 93.3581C140.406 93.6144 139.966 93.6876 139.6 93.5778C123.671 89.3668 107.12 89.8794 94.2308 95.0425C94.0843 95.1157 93.9379 95.1524 93.7548 95.1524C93.7548 95.1157 93.7548 95.1157 93.7548 95.1157ZM118.289 88.1218C124.843 88.1218 131.617 88.9273 138.319 90.5385C137.879 89.2569 136.964 88.0851 135.755 87.3894C135.243 87.0965 134.986 86.4373 135.169 85.8515C135.352 85.2656 135.902 84.8994 136.524 84.936C145.679 85.5951 154.137 87.426 161.681 90.4287C161.754 88.7076 161.314 86.9866 160.399 85.5585C160.106 85.1191 160.106 84.5332 160.399 84.1304C160.692 83.691 161.205 83.4713 161.717 83.5445C169.517 84.8994 176.218 86.9866 182.223 89.8794C182.37 88.195 181.894 86.4007 180.905 85.0459C180.612 84.6431 180.539 84.0938 180.795 83.6178C181.051 83.1784 181.527 82.8854 182.04 82.922C186.581 83.1784 190.755 84.4966 194.27 86.8035C194.929 84.167 194.673 81.1644 192.769 79.6997C186.983 75.1591 177.939 74.2803 173.618 73.8775C173.215 73.8409 172.812 73.8042 172.483 73.7676C158.092 72.1931 142.969 73.6578 128.798 77.9787C123.415 79.6265 118.106 81.677 113.052 84.0938C110.709 85.229 108.402 86.4007 106.205 87.6091C104.887 88.3415 103.605 89.0738 102.323 89.8428C107.413 88.671 112.796 88.1218 118.289 88.1218Z" fill="black"/>
<path d="M56.4416 152.569C58.6387 151.397 61.1653 150.811 63.7285 150.701C66.2918 150.592 68.855 151.031 71.2352 151.873C73.6519 152.715 75.8856 153.924 77.863 155.462C79.8403 156.963 81.598 158.721 83.026 160.735C83.2091 160.991 83.1359 161.321 82.9162 161.467C82.7331 161.614 82.4768 161.614 82.2937 161.467C80.2797 160.149 78.339 158.867 76.325 157.769C74.311 156.67 72.2605 155.755 70.1366 155.059C68.0128 154.363 65.8524 153.96 63.6187 153.777C61.385 153.594 59.1513 153.667 56.7712 153.851C56.405 153.887 56.0754 153.594 56.0388 153.228C56.0388 152.935 56.1853 152.679 56.4416 152.569Z" fill="black"/>
<path d="M135.828 127.962C137.073 127.596 138.318 127.376 139.6 127.229C140.882 127.046 142.163 126.973 143.408 126.937C144.69 126.9 145.971 126.937 147.253 127.083C148.535 127.229 149.816 127.413 151.025 127.779C151.318 127.852 151.464 128.182 151.391 128.438C151.318 128.694 151.098 128.841 150.842 128.804C149.597 128.731 148.388 128.694 147.143 128.694C145.898 128.694 144.69 128.731 143.445 128.767C140.991 128.877 138.538 129.097 136.085 129.317C135.682 129.353 135.316 129.06 135.279 128.658C135.243 128.401 135.499 128.072 135.828 127.962Z" fill="black"/>
<path d="M195.808 130.745C194.527 130.452 193.245 130.195 191.927 129.976C190.609 129.756 189.29 129.61 187.972 129.39C187.643 129.353 187.423 129.024 187.496 128.731C187.533 128.474 187.752 128.255 188.009 128.218C188.704 128.145 189.4 128.145 190.096 128.182C190.792 128.218 191.487 128.328 192.183 128.438C192.879 128.584 193.575 128.731 194.234 128.987C194.893 129.207 195.552 129.5 196.174 129.903C196.358 130.049 196.431 130.305 196.284 130.488C196.174 130.708 195.991 130.781 195.808 130.745Z" fill="black"/>
<path d="M185.079 98.924C186.507 98.8141 187.972 98.924 189.363 99.1803C190.791 99.4366 192.183 99.876 193.465 100.499C194.783 101.084 196.028 101.853 197.126 102.732C198.225 103.611 199.25 104.673 200.019 105.845C200.202 106.101 200.129 106.431 199.873 106.577C199.69 106.687 199.433 106.687 199.287 106.577C198.188 105.808 197.09 105.149 195.955 104.526C194.819 103.941 193.648 103.391 192.476 102.989C191.304 102.549 190.059 102.22 188.851 101.963C187.606 101.707 186.361 101.56 185.079 101.414C184.383 101.341 183.871 100.718 183.944 100.023C183.981 99.4366 184.493 98.9606 185.079 98.924Z" fill="black"/>
<path d="M155.126 102.22C152.965 102.293 150.842 102.403 148.718 102.586C146.594 102.769 144.47 103.025 142.346 103.391C141.284 103.574 140.222 103.758 139.161 103.977C138.099 104.197 137.037 104.453 136.011 104.71C133.924 105.222 131.837 105.845 129.713 106.467C129.347 106.577 128.981 106.357 128.871 106.028C128.798 105.735 128.908 105.442 129.127 105.259C130.995 103.977 133.045 102.952 135.133 102.073C135.645 101.853 136.195 101.634 136.707 101.451C137.256 101.268 137.769 101.048 138.318 100.901C138.868 100.718 139.417 100.572 139.966 100.425C140.515 100.279 141.065 100.132 141.614 100.023C143.848 99.5099 146.081 99.1437 148.388 98.9972C150.659 98.8141 152.965 98.8141 155.236 99.0705C156.115 99.1803 156.737 99.9493 156.664 100.828C156.591 101.56 155.895 102.183 155.126 102.22Z" fill="black"/>
<path d="M148.718 191.53C136.561 191.53 124.367 189.663 112.796 186.001C107.01 184.17 93.0222 179.117 88.0056 171.83C87.6028 171.244 87.7492 170.402 88.3351 169.999C88.921 169.596 89.7632 169.743 90.166 170.328C94.8531 177.139 109.244 182.119 113.565 183.474C129.603 188.564 146.887 190.102 163.584 187.942C165.452 187.685 167.1 187.356 168.894 187.026C169.846 186.843 170.835 186.623 171.86 186.44C174.753 185.928 178.195 185.195 181.454 183.95C190.279 180.545 197.932 172.965 202.949 162.675C204.816 158.867 205.805 155.718 206.098 152.715L206.134 152.166C206.427 149.31 206.72 146.344 205.768 144C203.717 145.209 201.008 145.758 199.14 145.648C198.335 145.612 197.566 145.465 196.797 145.319C194.71 144.916 192.293 144.476 190.352 143.012C188.521 141.657 187.642 139.679 186.8 137.739C186.031 135.981 185.299 134.333 183.907 133.454C182.003 132.246 179.66 131.843 177.829 131.587C175.046 131.221 172.19 131.148 169.37 131.367C167.539 131.514 165.452 131.77 163.694 132.759C162.12 133.638 160.875 135.066 159.996 136.237C158.861 137.702 157.762 139.313 156.737 140.888C154.137 144.806 151.464 148.871 147.216 151.251C142.603 153.814 137.11 153.777 131.91 153.375C124.037 152.752 116.165 151.434 108.511 149.493C104.667 148.541 100.309 147.223 96.9037 144.257C93.7545 141.474 91.887 137.592 90.3491 133.784C86.2113 123.531 83.5748 112.765 82.5495 101.744C82.4763 101.011 83.0255 100.389 83.7579 100.315C84.4903 100.242 85.1128 100.791 85.186 101.524C86.2113 112.289 88.7745 122.835 92.8391 132.832C94.2672 136.347 95.9516 139.899 98.6979 142.316C101.627 144.916 105.655 146.088 109.207 146.966C116.714 148.871 124.44 150.152 132.166 150.775C136.963 151.141 141.98 151.214 146.008 148.98C149.706 146.93 152.087 143.305 154.613 139.496C155.675 137.885 156.774 136.201 158.019 134.663C159.08 133.308 160.545 131.66 162.523 130.525C164.756 129.28 167.319 128.95 169.297 128.804C172.299 128.584 175.339 128.658 178.305 129.06C180.392 129.353 183.102 129.829 185.445 131.294C187.532 132.612 188.448 134.736 189.363 136.75C190.096 138.434 190.791 140.009 192.073 140.961C193.538 142.06 195.625 142.462 197.419 142.792C198.115 142.938 198.774 143.048 199.397 143.085C201.411 143.195 204.157 142.316 205.438 141.144C205.731 140.888 206.098 140.778 206.464 140.815C206.83 140.851 207.196 141.071 207.416 141.364C209.65 144.623 209.247 148.797 208.881 152.496L208.844 153.045C208.514 156.377 207.452 159.819 205.438 163.92C200.129 174.832 192 182.852 182.516 186.513C179.037 187.868 175.485 188.601 172.446 189.15C171.421 189.333 170.469 189.516 169.517 189.699C167.686 190.065 165.965 190.395 164.024 190.651C158.897 191.201 153.808 191.53 148.718 191.53Z" fill="black"/>
<path d="M69.4405 176.663C68.3786 176.663 67.3167 176.627 66.2181 176.553C64.4971 176.444 62.2634 176.261 60.103 175.528C59.7002 175.418 59.3706 175.272 59.0411 175.125C56.9539 174.283 55.0131 172.855 53.4019 171.061C52.4865 170.072 51.6809 168.937 51.0218 167.729C49.374 164.763 48.4586 161.247 48.3121 157.329C47.9459 148.761 51.7541 140.778 57.9792 136.97C58.1622 136.86 58.3453 136.75 58.5284 136.64C58.565 136.64 58.565 136.604 58.6017 136.604C65.0464 133.015 73.7248 133.674 80.7554 138.251C82.5496 139.423 84.234 140.888 85.772 142.682C90.276 147.882 90.6421 160.149 90.4957 170.292V171.024C90.4957 171.537 90.1661 172.013 89.6901 172.233C82.4032 175.308 76.2148 176.663 69.4405 176.663ZM59.7368 139.02C59.5903 139.094 59.4805 139.167 59.3706 139.24C53.9512 142.536 50.6556 149.603 50.9852 157.219C51.1316 160.735 51.9372 163.847 53.3653 166.447C53.9512 167.472 54.6103 168.461 55.3793 169.303C56.7341 170.804 58.3453 171.976 60.0664 172.672C60.3227 172.782 60.579 172.892 60.9086 172.965C62.7761 173.587 64.8267 173.771 66.3646 173.844C73.8712 174.283 80.1329 173.221 87.786 170.109C87.8592 164.836 88.0789 149.42 83.7214 144.403C82.3665 142.829 80.8652 141.51 79.254 140.485C73.1023 136.494 65.3027 135.871 59.7734 138.947C59.7734 139.02 59.7368 139.02 59.7368 139.02Z" fill="black"/>
<path d="M196.504 64.3203C196.797 66.7371 196.65 69.2271 196.174 71.6072C195.698 74.024 194.893 76.3309 193.904 78.5646C193.721 78.9308 193.281 79.1139 192.915 78.9308C192.549 78.7477 192.366 78.3083 192.549 77.9421C192.549 77.9421 192.549 77.9055 192.586 77.9055C193.684 75.8183 194.563 73.6212 195.149 71.3509C195.735 69.0806 196.028 66.7005 195.881 64.3569C195.881 64.1738 195.991 64.0274 196.174 64.0274C196.357 64.0274 196.504 64.1372 196.504 64.3203Z" fill="black"/>
<path d="M186.727 53.9575C187.386 55.642 187.752 57.4728 187.899 59.2671C188.045 61.0614 187.935 62.8923 187.679 64.7231C187.13 68.3117 185.958 71.7904 184.64 75.1226C184.493 75.5254 184.054 75.7085 183.651 75.5254C183.248 75.3789 183.065 74.9395 183.211 74.5367C183.211 74.5367 183.211 74.5367 183.211 74.5001C184.64 71.2777 185.958 67.9821 186.617 64.5034C186.946 62.7824 187.093 61.0248 187.056 59.2671C186.983 57.5095 186.727 55.7884 186.141 54.104C186.068 53.9575 186.178 53.7745 186.324 53.7012C186.47 53.7012 186.654 53.7745 186.727 53.9575Z" fill="black"/>
<path d="M120.449 47.4029C122.573 49.0141 124.294 51.138 125.649 53.4449C126.967 55.7518 127.919 58.315 128.505 60.9149C129.091 63.5147 129.384 66.1878 129.457 68.8243C129.53 71.4974 129.384 74.1339 129.2 76.7703C129.164 77.1731 128.798 77.5027 128.395 77.4661C127.992 77.4294 127.663 77.0633 127.699 76.6605C127.699 76.6605 127.699 76.6605 127.699 76.6239C127.956 74.024 128.175 71.4242 128.175 68.8243C128.175 66.2244 127.992 63.6246 127.479 61.098C126.967 58.5713 126.125 56.118 124.916 53.8477C123.708 51.5774 122.097 49.4902 120.083 47.879C119.936 47.7691 119.936 47.5494 120.046 47.4396C120.119 47.2931 120.339 47.2931 120.449 47.4029Z" fill="black"/>
<path d="M99.2841 63.5514C100.859 64.9062 102.177 66.554 103.239 68.3483C104.301 70.1425 105.106 72.0833 105.656 74.0972C106.754 78.1252 106.864 82.3728 106.388 86.5106C106.351 86.9134 105.985 87.243 105.546 87.1698C105.106 87.0965 104.813 86.767 104.887 86.3275C104.887 86.3275 104.887 86.3275 104.887 86.2909C105.18 84.3136 105.326 82.2996 105.289 80.2856C105.253 78.2717 105.033 76.2943 104.594 74.3536C104.154 72.4128 103.422 70.5087 102.47 68.7511C101.518 66.9934 100.309 65.3822 98.8447 63.9908C98.6982 63.8809 98.6982 63.6612 98.8447 63.5514C98.9546 63.4415 99.1377 63.4415 99.2841 63.5514Z" fill="black"/>
<path d="M72.9557 73.0719C73.5416 75.5619 74.2373 78.0153 75.1894 80.3589C76.1414 82.7024 77.423 84.8995 79.1075 86.6937C80.8285 88.488 82.9523 89.8795 85.1128 91.1611C87.3098 92.4427 89.5435 93.6511 91.8138 94.7496C92.18 94.9327 92.3631 95.3721 92.18 95.7749C91.9969 96.1411 91.5575 96.3242 91.1547 96.1411C88.8478 94.9693 86.6141 93.6877 84.4536 92.2962C82.2932 90.9048 80.0961 89.4034 78.3385 87.4627C76.5808 85.4853 75.2992 83.1418 74.3838 80.725C73.4683 78.3083 72.8825 75.7817 72.3332 73.2916C72.2966 73.1086 72.4064 72.9621 72.5895 72.9255C72.7726 72.8156 72.9191 72.9255 72.9557 73.0719Z" fill="black"/>
<path d="M56.3316 91.6737C57.9794 95.958 60.799 99.7296 64.2777 102.622C67.7563 105.552 71.9307 107.602 76.3615 108.518C76.7643 108.591 77.0206 108.994 76.9474 109.397C76.8741 109.799 76.4713 110.056 76.0685 109.983C76.0685 109.983 76.0685 109.983 76.0319 109.983C71.3815 108.884 67.0972 106.541 63.5819 103.428C60.0666 100.316 57.2837 96.3242 55.7457 91.8934C55.6725 91.7104 55.7823 91.5639 55.9288 91.4906C56.0753 91.4174 56.2584 91.4906 56.3316 91.6737Z" fill="black"/>
<path d="M61.2015 133.381C57.613 133.271 54.0611 132.393 50.8754 130.818C47.6896 129.243 44.8335 126.973 42.673 124.19C42.5632 124.044 42.5998 123.861 42.7462 123.751C42.8927 123.641 43.0758 123.678 43.1857 123.787C45.3827 126.424 48.2389 128.475 51.3514 129.866C54.4639 131.257 57.8693 131.953 61.2382 131.88C61.641 131.88 62.0071 132.21 62.0071 132.612C62.0071 133.015 61.6776 133.381 61.2748 133.381C61.2015 133.381 61.2015 133.381 61.2015 133.381Z" fill="black"/>
<path d="M38.3887 137.336C39.414 138.288 40.4027 139.277 41.4646 140.119C42.5265 140.998 43.6617 141.73 44.9067 142.279C46.1517 142.829 47.4333 143.122 48.7516 143.085L52.9626 143.158C53.3654 143.158 53.6949 143.524 53.6949 143.927C53.6949 144.33 53.3288 144.659 52.926 144.659H52.8894L48.7149 144.367C48.3854 144.33 47.9826 144.33 47.6164 144.257C47.2502 144.183 46.8841 144.11 46.5179 144.037C45.7855 143.854 45.1264 143.561 44.4673 143.231C43.1491 142.572 41.9773 141.693 40.9154 140.741C39.8535 139.789 38.9014 138.764 37.9493 137.739C37.8395 137.592 37.8395 137.409 37.9493 137.299C38.0958 137.226 38.2789 137.226 38.3887 137.336Z" fill="black"/>
<path d="M145.862 125.508C145.862 126.57 145.459 127.559 144.836 128.328H138.245C137.586 127.559 137.22 126.57 137.22 125.508C137.22 123.128 139.161 121.151 141.577 121.151C143.994 121.151 145.862 123.128 145.862 125.508Z" fill="black"/>
<path d="M195.515 128.108C195.332 128.914 194.856 129.573 194.233 130.012L189.327 128.841C188.961 128.145 188.851 127.376 189.034 126.57C189.473 124.776 191.231 123.678 193.025 124.117C194.856 124.52 195.954 126.314 195.515 128.108Z" fill="black"/>
<path d="M119.314 124.08C122.024 123.128 124.807 122.433 127.59 121.883C130.373 121.297 133.192 120.895 136.048 120.602C138.904 120.272 141.761 120.162 144.617 120.199C145.349 120.236 146.045 120.236 146.777 120.272C147.51 120.309 148.205 120.382 148.938 120.455C150.366 120.565 151.794 120.821 153.222 121.114C154.101 121.297 154.687 122.176 154.504 123.055C154.357 123.824 153.661 124.373 152.929 124.373H152.856C150.109 124.41 147.363 124.373 144.617 124.41C141.871 124.447 139.124 124.483 136.341 124.593C133.558 124.703 130.812 124.813 127.992 124.959C125.209 125.106 122.39 125.289 119.607 125.399C119.241 125.399 118.911 125.106 118.875 124.739C118.838 124.447 119.058 124.19 119.314 124.08Z" fill="black"/>
<path d="M197.968 126.277C196.98 126.168 195.991 125.984 195.039 125.801L192.219 125.216C191.267 125.032 190.352 124.849 189.4 124.703C188.448 124.52 187.532 124.41 186.544 124.227H186.471C185.885 124.117 185.518 123.568 185.628 122.982C185.702 122.579 186.031 122.249 186.434 122.14C186.69 122.066 186.983 122.03 187.239 121.993C187.496 121.957 187.789 121.92 188.045 121.883C188.301 121.847 188.594 121.847 188.851 121.81C189.107 121.81 189.4 121.81 189.656 121.81C190.755 121.847 191.817 121.993 192.842 122.213C193.867 122.433 194.893 122.762 195.881 123.238C196.87 123.714 197.785 124.227 198.591 124.996C198.884 125.252 198.921 125.728 198.628 126.021C198.481 126.204 198.225 126.277 198.005 126.241L197.968 126.277Z" fill="black"/>
<path d="M233.451 172.452L175.888 181.277C174.057 181.57 172.483 182.779 171.75 184.5L155.529 223.9L217.632 214.38L234.403 173.624C234.66 173.002 234.11 172.342 233.451 172.452Z" fill="#A3A3A3"/>
<path d="M233.524 172.965L180.978 181.131L177.682 181.643L176.035 181.9C175.522 181.973 175.083 182.119 174.643 182.339C173.764 182.742 173.032 183.474 172.556 184.316C172.336 184.719 172.153 185.269 171.933 185.781L171.311 187.319L166.258 199.623L156.188 224.23L155.382 223.204L217.486 213.684L216.9 214.16L225.761 192.958L230.192 182.376L232.389 177.066L233.488 174.43L233.781 173.771L233.854 173.587L233.891 173.514V173.478C233.891 173.441 233.927 173.368 233.891 173.331C233.891 173.221 233.817 173.148 233.744 173.075C233.708 172.965 233.634 172.965 233.524 172.965ZM233.378 171.903C233.744 171.83 234.184 171.94 234.477 172.196C234.769 172.452 234.989 172.782 235.026 173.185C235.062 173.368 235.026 173.587 234.953 173.771L234.916 173.917L234.879 173.99L234.806 174.173L234.55 174.832L233.451 177.506L231.291 182.815L226.97 193.471L218.328 214.746C218.218 215.002 217.999 215.149 217.742 215.222L155.639 224.742C155.236 224.816 154.833 224.523 154.796 224.12C154.76 223.973 154.796 223.827 154.833 223.717L165.013 199.147L170.103 186.88L170.725 185.342C170.945 184.829 171.128 184.316 171.421 183.767C172.007 182.669 172.959 181.753 174.094 181.241C174.643 180.984 175.266 180.801 175.852 180.691L177.499 180.435L180.795 179.922L233.378 171.903Z" fill="black"/>
<path d="M155.419 224.669L123.232 219.103C123.159 219.103 123.122 219.067 123.049 219.03C122.756 218.884 122.536 218.591 122.39 218.261C122.28 217.931 122.28 217.602 122.39 217.272C122.5 216.979 122.719 216.686 123.012 216.503C123.159 216.43 123.305 216.357 123.488 216.32C123.598 216.284 123.598 216.32 123.671 216.284L123.818 216.247L126.271 215.881L131.178 215.149L141.028 213.684L160.728 210.791C160.912 210.754 161.058 210.901 161.095 211.047C161.131 211.194 160.985 211.377 160.838 211.414L141.175 214.563L131.361 216.137L126.454 216.943L124.001 217.346L123.854 217.382C123.818 217.382 123.745 217.382 123.708 217.419C123.671 217.419 123.635 217.455 123.598 217.455C123.525 217.492 123.488 217.565 123.452 217.639C123.415 217.822 123.452 217.968 123.598 218.041L123.415 217.968L155.675 223.131C156.078 223.204 156.371 223.571 156.298 224.01C156.224 224.449 155.822 224.742 155.419 224.669Z" fill="black"/>
<path d="M126.271 226.72C127.772 222.655 127.443 218.774 127.443 218.774C127.443 218.774 132.789 218.883 134.986 217.529C137.183 216.174 135.572 212.036 135.572 212.036C134.254 207.752 129.933 205.957 125.685 206.104C119.167 206.324 113.931 209.033 111.807 215.588C111.807 215.588 115.359 217.162 117.959 219.103C120.559 221.044 126.271 226.72 126.271 226.72Z" fill="#F5D1BE"/>
<path d="M186.251 224.12C186.251 224.12 189.4 225.292 190.608 221.96C191.561 219.433 191.341 212.549 193.867 211.194C200.459 207.642 204.12 214.416 205.365 219.946C206.574 225.475 206.903 230.162 200.092 231.883C195.662 227.855 191.158 224.486 186.251 224.12Z" fill="#F5D1BE"/>
<path d="M109.5 184.353C103.349 188.051 97.7462 192.702 92.9859 198.085C88.189 203.467 84.2342 209.583 81.0851 216.064C79.5106 219.286 78.1557 222.692 76.9473 226.061C75.7755 229.466 74.9333 232.945 74.3841 236.497C73.8348 240.049 73.5785 243.674 73.6517 247.262C73.725 250.851 74.1278 254.439 74.97 257.881C75.4094 259.602 75.9953 261.287 76.7276 262.861C77.46 264.436 78.412 265.901 79.5838 267.182C80.7556 268.427 82.147 269.453 83.685 270.112C84.0512 270.295 84.4539 270.405 84.8934 270.551C85.2962 270.698 85.7356 270.807 86.175 270.917C87.0172 271.137 87.896 271.32 88.7748 271.43C92.2535 271.943 95.842 271.65 99.2841 270.698C101.005 270.222 102.69 269.599 104.301 268.867C105.106 268.5 105.912 268.098 106.718 267.695L107.889 267.036L109.024 266.34C111.99 264.399 114.59 261.873 116.678 259.017C118.801 256.124 120.449 252.901 121.767 249.569C124.404 242.831 125.759 235.654 126.747 228.441L126.894 228.99C125.722 227.452 124.404 226.024 123.012 224.706C121.621 223.388 120.083 222.179 118.472 221.117C116.861 220.055 115.176 219.103 113.419 218.334C112.54 217.968 111.624 217.639 110.709 217.382C109.793 217.126 108.878 216.979 107.963 216.943L108.329 216.833C103.532 219.945 99.1743 223.79 95.366 228.075C91.5578 232.359 88.2256 237.119 85.4792 242.136C85.3328 242.392 85.0032 242.502 84.7469 242.355C84.4906 242.209 84.3807 241.879 84.5272 241.623C87.3101 236.497 90.6423 231.663 94.4872 227.269C98.3321 222.875 102.726 218.957 107.633 215.734C107.743 215.661 107.889 215.625 107.999 215.625C109.061 215.661 110.086 215.844 111.075 216.101C112.064 216.357 113.016 216.686 113.968 217.089C115.835 217.858 117.593 218.847 119.277 219.945C120.962 221.044 122.536 222.289 124.001 223.68C125.466 225.035 126.857 226.537 128.066 228.111C128.175 228.258 128.249 228.477 128.212 228.66C127.26 235.947 125.942 243.234 123.269 250.192C121.914 253.67 120.229 257.003 118.032 260.042C115.835 263.081 113.126 265.791 109.976 267.841L108.768 268.61L107.523 269.306C106.681 269.746 105.875 270.148 104.996 270.551C103.312 271.32 101.518 271.979 99.7235 272.492C96.0984 273.517 92.2535 273.883 88.4819 273.334C87.5298 273.188 86.6144 273.004 85.699 272.785C85.2229 272.675 84.7835 272.528 84.3441 272.382C83.8681 272.235 83.4287 272.089 82.9526 271.869C81.1217 271.1 79.5106 269.929 78.1557 268.5C76.8375 267.072 75.7389 265.425 74.9333 263.704C74.0911 261.983 73.4686 260.188 72.9926 258.357C72.0405 254.696 71.6378 250.961 71.5279 247.262C71.418 243.527 71.6744 239.829 72.2236 236.13C72.7729 232.469 73.6151 228.807 74.8235 225.255C76.0319 221.74 77.4233 218.334 78.9979 214.965C82.2203 208.264 86.2482 201.966 91.155 196.364C96.0618 190.761 101.811 185.891 108.182 182.01C108.805 181.643 109.61 181.826 110.013 182.449C110.306 183.145 110.123 183.987 109.5 184.353Z" fill="black"/>
<path d="M73.7613 251.62C73.2852 256.746 73.5782 261.983 74.3837 267.109C75.226 272.235 76.5442 277.252 78.7779 281.939C80.9749 286.626 83.8677 290.984 87.3464 294.829C89.0675 296.769 90.9716 298.527 92.9489 300.175C94.9263 301.823 97.0501 303.324 99.2838 304.605L98.8444 304.496C98.6247 304.496 98.3317 304.605 98.1852 304.789L98.1486 304.825C98.1486 304.825 98.1486 304.862 98.1486 304.825L98.1852 304.789L98.2585 304.679L98.405 304.422L98.6979 303.873L99.3204 302.738C99.7232 302.006 100.163 301.237 100.602 300.504C101.444 299.003 102.36 297.538 103.275 296.11C105.106 293.217 107.047 290.361 109.097 287.615C111.148 284.869 113.345 282.195 115.689 279.705C118.032 277.179 120.485 274.799 123.122 272.602C123.342 272.419 123.708 272.419 123.891 272.675C124.074 272.895 124.074 273.261 123.818 273.444C121.254 275.678 118.874 278.094 116.641 280.621C114.407 283.148 112.246 285.784 110.269 288.53C108.255 291.277 106.388 294.096 104.63 296.989C103.751 298.454 102.872 299.918 102.067 301.383C101.664 302.115 101.261 302.848 100.858 303.617L100.272 304.752L99.9795 305.301L99.833 305.594L99.7598 305.741L99.7232 305.85L99.6866 305.924L99.65 305.997C99.5035 306.18 99.2105 306.327 98.9542 306.327H98.9176C98.7711 306.327 98.6247 306.29 98.5148 306.217C96.1713 304.898 93.9376 303.36 91.887 301.676C89.7998 299.992 87.8591 298.161 86.0648 296.183C82.4763 292.229 79.437 287.725 77.1301 282.891C75.9583 280.474 75.0063 277.948 74.2373 275.385C73.4683 272.821 72.919 270.185 72.4796 267.585C72.0402 264.949 71.7839 262.275 71.6374 259.602C71.5276 256.929 71.5276 254.256 71.8205 251.546C71.8571 250.997 72.3698 250.594 72.919 250.631C73.4683 250.668 73.7979 251.034 73.7613 251.62Z" fill="black"/>
<path d="M151.171 270.807C149.157 271.503 147.143 272.309 145.532 273.664C144.251 274.726 143.298 276.117 142.2 277.325C140.882 278.827 139.38 280.145 137.733 281.243C135.865 282.525 133.631 283.514 131.398 283.184C128.175 282.708 126.015 279.669 124.843 276.63C123.708 273.59 123.159 270.295 121.364 267.585C120.486 266.23 119.314 265.132 118.289 263.85C116.165 261.214 114.773 258.028 114.261 254.696C113.785 251.656 114.041 248.397 112.613 245.651C111.917 244.333 110.892 243.198 110.269 241.879C109.098 239.389 109.574 236.094 111.734 234.373C113.894 232.652 117.593 233.164 118.874 235.618L119.387 236.24C120.046 235.545 120.998 235.105 121.95 235.252C122.829 235.362 123.562 235.947 124.147 236.57L124.66 237.192C124.88 237.156 125.099 237.156 125.319 237.119C125.978 237.119 126.637 237.156 127.26 237.412C127.882 237.668 128.285 238.218 128.542 238.804L129.237 239.829C129.86 239.646 130.556 239.792 131.178 240.049C131.617 240.232 132.277 240.744 132.533 241.147L132.972 242.136C133.705 241.696 134.767 241.77 135.499 242.319C136.341 242.905 136.781 243.893 136.964 244.919C137.147 245.944 137.11 246.969 136.964 247.958C136.964 247.995 136.964 248.031 136.964 248.068C138.611 249.13 141.614 251.693 145.569 257.808C151.794 267.512 151.171 270.807 151.171 270.807Z" fill="#F5D1BE"/>
<path d="M117.703 236.716C117.446 236.204 116.97 235.764 116.348 235.471C115.725 235.215 114.993 235.105 114.334 235.178C113.638 235.252 112.979 235.508 112.503 235.911C111.954 236.35 111.551 236.936 111.295 237.632C110.745 239.023 110.819 240.671 111.514 242.026C111.881 242.722 112.393 243.454 112.906 244.223C113.455 244.992 113.968 245.981 114.297 246.969C114.956 248.947 115.066 250.887 115.213 252.718C115.286 253.634 115.359 254.513 115.506 255.391C115.652 256.234 115.835 257.112 116.092 257.918C116.604 259.566 117.373 261.177 118.362 262.605C118.838 263.337 119.387 263.997 119.973 264.692C120.559 265.388 121.218 266.084 121.804 266.889C122.39 267.695 122.902 268.574 123.305 269.453C123.708 270.331 124.038 271.247 124.331 272.162C124.916 273.957 125.356 275.751 126.015 277.362C126.674 278.973 127.626 280.474 128.871 281.536C129.494 282.086 130.189 282.488 130.958 282.708C131.727 282.928 132.496 282.965 133.302 282.855C134.913 282.598 136.488 281.72 137.916 280.731C139.38 279.706 140.699 278.497 141.87 277.142C142.456 276.483 143.042 275.751 143.665 275.018C144.287 274.323 145.02 273.627 145.825 273.041C147.436 271.906 149.267 271.247 151.025 270.661C151.391 270.551 151.794 270.734 151.904 271.1C152.014 271.467 151.83 271.833 151.464 271.979C149.743 272.565 148.095 273.261 146.704 274.286C145.312 275.275 144.287 276.74 143.042 278.168C141.797 279.632 140.406 280.914 138.868 282.049C138.099 282.598 137.293 283.148 136.414 283.587C135.536 284.026 134.584 284.393 133.558 284.576C132.533 284.759 131.434 284.722 130.446 284.429C129.42 284.136 128.505 283.587 127.699 282.965C126.125 281.646 125.063 279.925 124.294 278.131C123.525 276.337 123.086 274.542 122.5 272.821C121.914 271.1 121.255 269.526 120.229 268.171C119.717 267.475 119.094 266.816 118.472 266.12C117.849 265.425 117.227 264.656 116.677 263.85C115.579 262.239 114.7 260.481 114.078 258.65C113.785 257.735 113.528 256.783 113.345 255.831C113.162 254.879 113.089 253.927 112.979 252.975C112.833 251.144 112.686 249.349 112.137 247.812C111.881 247.043 111.478 246.383 111.002 245.651C110.489 244.919 109.903 244.15 109.427 243.198C108.438 241.257 108.292 238.913 109.024 236.863C109.391 235.838 110.05 234.849 110.928 234.08C111.844 233.311 112.979 232.871 114.114 232.725C115.249 232.579 116.421 232.725 117.483 233.201C118.545 233.677 119.57 234.483 120.156 235.618C120.486 236.277 120.266 237.083 119.607 237.412C118.875 237.632 118.069 237.375 117.703 236.716Z" fill="black"/>
<path d="M118.325 244.846C117.813 243.784 117.483 242.575 117.373 241.367C117.263 240.158 117.3 238.913 117.739 237.668C117.959 237.046 118.289 236.423 118.801 235.874C119.314 235.362 119.936 234.922 120.669 234.702C121.035 234.593 121.438 234.519 121.877 234.519H122.17C122.28 234.519 122.353 234.519 122.463 234.556C122.646 234.593 122.829 234.629 123.049 234.666C123.452 234.776 123.818 234.959 124.147 235.178C124.477 235.398 124.733 235.654 124.99 235.874C125.502 236.387 125.539 237.229 125.026 237.742C124.514 238.254 123.671 238.291 123.159 237.778C123.122 237.742 123.086 237.705 123.049 237.668C122.902 237.485 122.756 237.339 122.646 237.229C122.536 237.119 122.39 237.046 122.28 236.973C122.207 236.936 122.134 236.899 122.024 236.863C121.987 236.863 121.914 236.826 121.877 236.826L121.767 236.79C121.621 236.753 121.474 236.753 121.291 236.79C120.962 236.863 120.559 237.009 120.266 237.266C119.973 237.522 119.68 237.888 119.497 238.291C119.094 239.133 118.911 240.195 118.911 241.22C118.911 242.246 119.058 243.308 119.424 244.333C119.534 244.626 119.387 244.955 119.094 245.029C118.728 245.248 118.435 245.102 118.325 244.846Z" fill="black"/>
<path d="M122.243 245.541C121.987 244.443 121.804 243.271 121.767 242.063C121.767 241.44 121.804 240.854 121.914 240.232C122.023 239.609 122.206 238.987 122.536 238.364C122.719 238.071 122.902 237.778 123.159 237.485C123.268 237.339 123.415 237.229 123.561 237.119C123.708 237.009 123.854 236.863 124.037 236.79C124.733 236.387 125.649 236.24 126.418 236.387C127.187 236.533 127.846 236.863 128.432 237.266C129.017 237.705 129.493 238.181 129.933 238.84V238.877C130.336 239.499 130.153 240.305 129.53 240.708C128.908 241.11 128.102 240.927 127.699 240.305C127.663 240.268 127.626 240.195 127.626 240.158C127.479 239.829 127.223 239.499 126.93 239.206C126.637 238.913 126.271 238.73 125.941 238.621C125.612 238.511 125.319 238.511 125.026 238.621C124.953 238.657 124.88 238.694 124.806 238.73C124.733 238.804 124.66 238.84 124.587 238.913C124.44 239.06 124.294 239.206 124.184 239.389C123.671 240.085 123.415 241.147 123.305 242.172C123.195 243.198 123.268 244.296 123.378 245.395C123.415 245.688 123.195 245.981 122.902 246.017C122.536 245.981 122.28 245.798 122.243 245.541Z" fill="black"/>
<path d="M127.406 246.31C127.186 245.468 126.93 244.553 126.857 243.564C126.82 243.088 126.82 242.575 126.93 242.063C127.04 241.55 127.186 241.037 127.516 240.488C127.699 240.232 127.882 239.975 128.175 239.756C128.322 239.646 128.468 239.573 128.615 239.499C128.761 239.426 128.907 239.353 129.054 239.316C129.64 239.097 130.299 239.023 130.885 239.133C132.093 239.316 133.119 239.939 133.924 240.818L133.961 240.854C134.437 241.403 134.4 242.246 133.851 242.722C133.302 243.198 132.459 243.161 131.983 242.612C131.947 242.539 131.873 242.502 131.837 242.429C131.544 241.953 131.031 241.513 130.482 241.33C130.226 241.257 129.933 241.22 129.713 241.257C129.42 241.33 129.31 241.367 129.091 241.587C128.907 241.77 128.724 242.099 128.615 242.429C128.505 242.758 128.431 243.161 128.395 243.527C128.322 244.333 128.431 245.175 128.505 246.054C128.541 246.347 128.322 246.64 128.029 246.676C127.736 246.75 127.479 246.567 127.406 246.31Z" fill="black"/>
<path d="M131.91 246.859C131.727 246.347 131.507 245.798 131.398 245.175C131.288 244.553 131.324 243.857 131.581 243.234C131.727 242.905 131.91 242.575 132.203 242.319C132.496 242.063 132.826 241.843 133.155 241.733C133.851 241.477 134.62 241.55 135.279 241.77C135.975 242.026 136.524 242.502 136.927 243.051C137.33 243.6 137.586 244.186 137.769 244.809C137.842 245.138 137.915 245.431 137.952 245.724C137.989 246.017 138.025 246.31 138.025 246.603C138.062 247.189 138.025 247.812 137.952 248.397C137.952 248.471 137.915 248.544 137.915 248.617C137.915 248.654 137.915 248.69 137.915 248.727C137.915 248.8 137.915 248.91 137.915 248.983C137.915 249.093 137.952 249.166 137.989 249.276C138.025 249.386 138.062 249.496 138.099 249.606C138.245 250.045 138.465 250.521 138.721 250.997C139.197 251.949 139.783 252.938 140.076 254.256C140.479 256.453 140.625 258.76 140.259 260.994C140.186 261.36 139.856 261.616 139.49 261.58C139.16 261.543 138.904 261.25 138.904 260.921C138.868 258.797 138.611 256.71 138.172 254.659C138.099 254.256 137.915 253.817 137.696 253.341C137.476 252.865 137.256 252.389 137 251.876C136.744 251.363 136.524 250.851 136.304 250.228C136.268 250.082 136.231 249.935 136.194 249.752C136.158 249.569 136.121 249.423 136.121 249.24C136.121 249.057 136.085 248.873 136.121 248.69L136.158 248.397C136.158 248.324 136.158 248.288 136.194 248.214C136.268 247.738 136.304 247.226 136.304 246.75C136.304 246.493 136.304 246.274 136.268 246.017C136.231 245.761 136.194 245.541 136.158 245.322C135.975 244.443 135.499 243.637 134.803 243.344C134.437 243.198 134.034 243.161 133.704 243.234C133.375 243.344 133.119 243.527 132.935 243.893C132.752 244.26 132.679 244.662 132.716 245.138C132.752 245.614 132.862 246.09 133.009 246.603C133.082 246.896 132.935 247.189 132.643 247.299C132.276 247.299 132.02 247.152 131.91 246.859Z" fill="black"/>
<path d="M125.905 268.793C125.759 268.793 125.612 268.72 125.575 268.574C125.502 268.391 125.575 268.171 125.759 268.061C127.406 267.329 129.237 266.963 131.031 267.036C131.251 267.036 131.398 267.219 131.398 267.439C131.398 267.658 131.215 267.805 130.995 267.805C129.31 267.732 127.589 268.061 126.088 268.757C126.015 268.793 125.942 268.793 125.905 268.793Z" fill="black"/>
<path d="M198.042 261.323C199.726 257.552 200.825 253.524 201.337 249.423C201.814 245.322 201.667 241.147 200.459 237.266C200.166 236.277 199.8 235.362 199.324 234.446C198.884 233.531 198.371 232.688 197.786 231.883C196.65 230.272 195.076 229.027 193.318 228.111C192.439 227.635 191.487 227.232 190.535 226.903C189.583 226.573 188.595 226.317 187.606 226.097C185.592 225.694 183.541 225.511 181.491 225.585C177.39 225.658 173.288 226.61 169.37 228.001C165.452 229.393 161.681 231.26 158.092 233.384C150.915 237.705 144.434 243.088 138.209 248.8L138.245 247.519C141.687 250.961 144.617 254.879 146.96 259.126C149.304 263.374 151.098 267.915 152.306 272.565L151.647 271.979C155.858 272.419 160.069 272.492 164.28 272.089C168.491 271.723 172.629 270.881 176.621 269.562C180.612 268.244 184.42 266.377 187.862 263.96C191.304 261.543 194.344 258.577 196.724 255.098C196.907 254.842 197.236 254.769 197.493 254.952C197.749 255.135 197.822 255.465 197.639 255.721C195.186 259.309 192.073 262.422 188.558 264.912C185.043 267.439 181.125 269.416 177.023 270.771C172.922 272.162 168.674 273.041 164.39 273.481C160.106 273.92 155.748 273.883 151.464 273.481C151.135 273.444 150.878 273.224 150.805 272.931C149.597 268.391 147.802 263.997 145.496 259.895C143.189 255.794 140.332 252.023 136.964 248.764C136.597 248.434 136.597 247.848 136.964 247.519L137 247.482C143.225 241.733 149.816 236.24 157.14 231.81C160.802 229.613 164.683 227.672 168.711 226.244C172.739 224.816 177.023 223.827 181.381 223.717C183.541 223.644 185.738 223.827 187.899 224.266C188.961 224.486 190.023 224.779 191.085 225.145C192.11 225.475 193.135 225.951 194.124 226.463C196.065 227.489 197.895 228.953 199.25 230.784C199.909 231.663 200.459 232.652 200.971 233.64C201.447 234.629 201.887 235.654 202.216 236.716C203.535 240.927 203.681 245.395 203.205 249.679C202.692 254 201.521 258.174 199.8 262.129C199.58 262.605 199.031 262.825 198.555 262.605C198.079 262.385 197.822 261.8 198.042 261.323Z" fill="black"/>
<path d="M133.302 313.687C130.812 313.687 128.322 313.54 125.868 313.247C123.378 312.954 120.705 312.478 117.483 311.746C114.956 311.16 112.247 310.501 109.647 309.402C105.692 307.755 103.019 305.997 100.383 303.251C99.8699 302.738 99.9065 301.896 100.419 301.383C100.932 300.871 101.774 300.907 102.287 301.42C104.63 303.837 107.047 305.448 110.672 306.949C113.089 307.938 115.652 308.597 118.069 309.146C121.181 309.842 123.781 310.318 126.198 310.611C139.307 312.185 153.222 309.329 166.404 302.299C167.063 301.969 167.832 302.189 168.198 302.848C168.528 303.507 168.308 304.276 167.649 304.642C156.408 310.611 144.69 313.687 133.302 313.687Z" fill="black"/>
<path d="M195.625 257.588C197.163 259.163 198.518 260.884 199.726 262.715C200.935 264.546 201.997 266.45 202.949 268.391C204.853 272.309 206.244 276.447 207.27 280.658C208.295 284.869 208.917 289.19 209.284 293.51C209.65 297.831 209.833 302.116 209.979 306.436C209.979 306.729 209.833 307.022 209.613 307.169C205.475 310.245 200.861 312.625 195.955 314.273C191.085 315.92 185.921 316.763 180.758 316.909C180.539 316.909 180.319 316.836 180.136 316.726C176.035 314.163 172.153 311.124 168.858 307.498C167.21 305.667 165.708 303.727 164.427 301.603C163.145 299.479 162.083 297.245 161.314 294.865C161.095 294.17 161.461 293.437 162.157 293.181C162.852 292.961 163.585 293.327 163.841 294.023C165.196 298.381 167.649 302.372 170.725 305.814C173.801 309.293 177.426 312.259 181.344 314.785L180.722 314.602C185.665 314.566 190.608 313.797 195.296 312.295C200.019 310.794 204.487 308.56 208.478 305.667L208.112 306.436C208.002 302.152 207.929 297.868 207.599 293.584C207.306 289.336 206.757 285.088 205.768 280.951C204.816 276.813 203.498 272.748 201.704 268.903C200.788 266.963 199.8 265.132 198.628 263.337C197.456 261.543 196.211 259.859 194.746 258.321C194.527 258.101 194.527 257.735 194.746 257.552C195.039 257.369 195.405 257.369 195.625 257.588Z" fill="black"/>
<path d="M200.678 333.57C201.557 334.156 202.143 335.108 202.326 336.133C202.436 336.646 202.399 337.195 202.253 337.708C202.107 338.221 201.85 338.697 201.521 339.099C200.862 339.905 199.873 340.491 198.774 340.564C197.676 340.601 196.76 340.271 195.881 339.832C195.442 339.612 195.039 339.356 194.637 339.063C194.453 338.916 194.234 338.77 194.087 338.587C193.904 338.44 193.758 338.257 193.575 338.111C192.915 337.452 192.33 336.756 191.78 336.06C190.645 334.705 189.547 333.387 188.228 332.508C187.899 332.288 187.533 332.069 187.166 331.886C186.8 331.703 186.398 331.483 185.995 331.3C185.226 330.934 184.42 330.567 183.578 330.128C182.736 329.689 181.93 329.249 181.161 328.663C180.392 328.077 179.66 327.382 179.074 326.503C177.902 324.782 177.463 322.695 177.683 320.644C177.902 318.63 178.818 316.616 180.392 315.188C180.941 314.712 181.784 314.749 182.26 315.298C182.736 315.847 182.699 316.689 182.15 317.165L182.113 317.202C181.015 318.117 180.282 319.472 180.063 320.974C179.843 322.438 180.136 324.013 180.905 325.294C181.674 326.576 183.029 327.492 184.493 328.334C185.226 328.737 186.031 329.139 186.837 329.579C187.24 329.798 187.643 330.018 188.009 330.238C188.411 330.458 188.814 330.714 189.217 331.007C190.023 331.593 190.682 332.252 191.304 332.948C191.927 333.643 192.476 334.339 193.025 335.071C193.575 335.767 194.087 336.463 194.673 337.049C194.82 337.195 194.966 337.342 195.113 337.488C195.259 337.635 195.405 337.744 195.552 337.891C195.845 338.147 196.211 338.367 196.541 338.55C197.236 338.916 198.005 339.209 198.701 339.209C199.36 339.209 200.056 338.843 200.532 338.33C201.008 337.781 201.228 337.085 201.118 336.353C201.008 335.621 200.642 334.925 200.056 334.522C199.8 334.339 199.763 334.009 199.946 333.753C200.093 333.46 200.422 333.424 200.678 333.57Z" fill="black"/>
<path d="M201.813 338.294C202.253 338.587 202.619 338.88 203.022 339.026C203.388 339.209 203.827 339.282 204.267 339.319C205.109 339.356 205.915 338.99 206.427 338.294C206.684 337.964 206.867 337.525 206.977 337.122C207.086 336.683 207.086 336.243 207.013 335.804C206.867 334.888 206.427 334.01 205.805 333.277C205.622 333.057 205.658 332.765 205.841 332.581C206.024 332.398 206.354 332.435 206.501 332.618C207.269 333.424 207.892 334.449 208.112 335.584C208.222 336.17 208.258 336.756 208.148 337.378C208.038 337.964 207.819 338.55 207.489 339.063C207.16 339.575 206.684 340.015 206.098 340.344C205.548 340.637 204.889 340.784 204.267 340.82C203.644 340.82 203.058 340.711 202.436 340.491C202.143 340.381 201.887 340.235 201.63 340.088C201.374 339.942 201.154 339.795 200.935 339.649C200.568 339.429 200.422 338.916 200.678 338.55C200.898 338.184 201.411 338.037 201.777 338.294C201.777 338.257 201.777 338.294 201.813 338.294Z" fill="black"/>
<path d="M207.928 337.562C208.404 337.745 208.844 337.854 209.283 337.891C209.503 337.891 209.759 337.854 210.016 337.818C210.272 337.781 210.528 337.708 210.748 337.635C211.663 337.342 212.469 336.646 212.872 335.804C212.982 335.584 213.055 335.364 213.092 335.145C213.128 334.925 213.165 334.669 213.165 334.449C213.165 333.973 213.018 333.497 212.799 333.058C212.359 332.142 211.59 331.41 210.675 330.897C210.418 330.751 210.309 330.421 210.455 330.165C210.602 329.908 210.894 329.799 211.151 329.945C212.249 330.494 213.238 331.373 213.824 332.508C214.117 333.058 214.337 333.717 214.373 334.376C214.373 334.705 214.373 335.035 214.337 335.401C214.263 335.731 214.19 336.06 214.044 336.353C213.494 337.562 212.469 338.514 211.224 338.99C210.894 339.099 210.638 339.173 210.309 339.246C210.016 339.319 209.649 339.356 209.32 339.356C208.624 339.392 207.965 339.246 207.343 338.99C206.94 338.843 206.757 338.404 206.903 338.001C207.05 337.598 207.489 337.415 207.928 337.562C207.892 337.562 207.928 337.562 207.928 337.562Z" fill="black"/>
<path d="M214.41 334.669C214.959 334.888 215.472 335.035 216.021 334.998C216.277 334.998 216.57 334.962 216.827 334.888C217.083 334.815 217.376 334.705 217.632 334.595C218.621 334.156 219.463 333.204 219.719 332.142C219.793 331.886 219.829 331.593 219.829 331.336C219.829 331.044 219.793 330.787 219.719 330.531C219.536 330.018 219.243 329.615 218.804 329.396C218.365 329.139 217.742 329.03 217.083 328.92C216.424 328.81 215.728 328.7 214.996 328.37C214.739 328.261 214.63 327.931 214.739 327.638C214.849 327.382 215.179 327.272 215.435 327.382C215.948 327.601 216.534 327.675 217.193 327.748C217.852 327.821 218.584 327.894 219.317 328.261C219.683 328.444 220.012 328.7 220.305 328.993C220.562 329.323 220.781 329.652 220.928 330.055C221.074 330.421 221.148 330.824 221.148 331.19C221.184 331.593 221.148 331.959 221.038 332.362C220.708 333.9 219.646 335.145 218.291 335.84C217.925 336.024 217.632 336.133 217.229 336.243C216.863 336.353 216.497 336.426 216.094 336.463C215.289 336.5 214.52 336.353 213.824 336.097C213.385 335.95 213.202 335.474 213.348 335.035C213.458 334.705 213.934 334.486 214.41 334.669C214.373 334.669 214.373 334.669 214.41 334.669Z" fill="black"/>
<path d="M206.427 309.11C208.075 311.673 209.979 314.053 212.103 316.177C213.165 317.239 214.3 318.264 215.472 319.216C216.644 320.168 217.852 321.01 219.207 321.267C219.903 321.413 220.635 321.45 221.404 321.523C222.173 321.596 223.015 321.669 223.821 321.962C224.626 322.219 225.468 322.658 226.054 323.427C226.64 324.159 226.933 325.075 227.006 325.954C227.08 326.833 226.97 327.711 226.713 328.517C226.457 329.323 226.054 330.128 225.468 330.787C224.919 331.446 224.15 332.032 223.308 332.325C222.466 332.655 221.514 332.765 220.598 332.582C220.159 332.508 219.866 332.069 219.939 331.629C220.012 331.19 220.452 330.897 220.891 330.97C221.477 331.08 222.136 331.044 222.722 330.824C223.308 330.604 223.857 330.238 224.297 329.762C225.175 328.773 225.651 327.382 225.542 326.064C225.505 325.404 225.322 324.782 224.919 324.306C224.553 323.83 224.004 323.5 223.345 323.281C222.063 322.805 220.525 322.914 218.877 322.585C218.072 322.402 217.266 322.072 216.57 321.633C215.875 321.193 215.252 320.717 214.666 320.205C213.494 319.179 212.359 318.118 211.261 316.982C209.1 314.749 207.196 312.259 205.585 309.622C205.439 309.403 205.512 309.146 205.731 309C206.024 308.817 206.281 308.89 206.427 309.11Z" fill="black"/>
<path d="M131.214 188.308C132.643 189.187 134.144 189.992 135.682 190.761C137.22 191.494 138.758 192.153 140.369 192.775C143.555 193.947 146.814 194.826 150.146 195.119C153.441 195.448 156.81 195.082 159.776 193.91C161.278 193.324 162.632 192.482 163.914 191.494L164.829 190.725C165.122 190.468 165.379 190.139 165.672 189.882L166.074 189.443L166.441 188.967L167.21 188.015L167.283 187.942C167.759 187.392 168.564 187.282 169.15 187.759C169.736 188.235 169.809 189.04 169.333 189.626L169.297 189.663L168.418 190.688L167.979 191.201L167.503 191.677C167.173 191.97 166.843 192.336 166.514 192.629L165.452 193.471C163.987 194.533 162.339 195.448 160.618 196.071C157.176 197.279 153.478 197.499 149.963 197.023C146.447 196.583 143.079 195.558 139.856 194.203C138.245 193.544 136.67 192.775 135.133 191.97C133.595 191.164 132.093 190.285 130.665 189.296C130.409 189.113 130.336 188.784 130.519 188.527C130.629 188.235 130.958 188.161 131.214 188.308Z" fill="black"/>
<path d="M186.361 224.047C187.313 224.23 188.265 224.23 188.924 223.79C189.583 223.388 189.95 222.509 190.169 221.593C190.609 219.689 190.572 217.602 190.938 215.515C191.121 214.453 191.414 213.354 192.11 212.366C192.44 211.853 192.879 211.414 193.392 211.047C193.868 210.718 194.38 210.425 194.93 210.205C196.028 209.766 197.31 209.693 198.445 209.985C199.617 210.242 200.642 210.828 201.521 211.487C203.315 212.842 204.633 214.599 205.732 216.503C206.244 217.455 206.72 218.444 207.087 219.469C207.453 220.531 207.709 221.63 207.782 222.765C207.856 223.9 207.782 225.072 207.489 226.207C207.196 227.342 206.647 228.441 205.878 229.393C205.109 230.308 204.157 231.077 203.169 231.663C202.143 232.249 201.081 232.652 200.019 232.945C199.324 233.128 198.591 232.725 198.408 232.029C198.225 231.334 198.628 230.601 199.324 230.418H199.36C201.191 229.979 202.876 229.173 204.011 227.855C205.146 226.573 205.659 224.779 205.585 222.948C205.549 222.033 205.366 221.117 205.073 220.202C204.78 219.286 204.414 218.371 203.974 217.529C203.095 215.808 201.924 214.196 200.459 213.025C199.726 212.439 198.921 211.999 198.079 211.743C197.236 211.523 196.358 211.523 195.552 211.816C195.149 211.963 194.746 212.183 194.344 212.402C194.014 212.622 193.721 212.915 193.465 213.281C192.952 213.977 192.659 214.892 192.476 215.844C192.256 216.796 192.147 217.822 192.037 218.847C191.927 219.872 191.78 220.934 191.524 221.996C191.378 222.545 191.195 223.058 190.902 223.571C190.609 224.083 190.169 224.596 189.62 224.889C189.071 225.218 188.448 225.365 187.862 225.365C187.276 225.365 186.727 225.292 186.178 225.182C185.885 225.109 185.702 224.816 185.739 224.523C185.775 224.193 186.068 224.01 186.361 224.047Z" fill="black"/>
<path d="M110.562 215.661C111.002 214.38 111.588 213.098 112.393 211.926C113.162 210.754 114.114 209.729 115.213 208.85C117.41 207.093 120.083 206.141 122.719 205.738C123.378 205.628 124.038 205.591 124.697 205.555C125.026 205.518 125.356 205.518 125.685 205.518C126.015 205.518 126.381 205.518 126.711 205.518C128.066 205.591 129.457 205.848 130.739 206.36C132.02 206.873 133.265 207.605 134.254 208.631C135.243 209.656 135.975 210.937 136.378 212.256L136.341 212.182C136.561 212.805 136.707 213.391 136.817 214.013C136.927 214.636 136.964 215.258 136.927 215.917C136.854 216.577 136.671 217.309 136.195 217.931C135.975 218.224 135.645 218.517 135.316 218.7C135.023 218.884 134.73 218.993 134.4 219.103C133.192 219.543 132.02 219.689 130.849 219.799C129.677 219.909 128.542 219.945 127.333 219.909L128.029 219.176C128.066 219.909 128.066 220.568 128.029 221.3C127.992 221.996 127.919 222.692 127.809 223.351C127.699 224.047 127.553 224.706 127.37 225.365C127.187 226.024 126.967 226.683 126.747 227.342C126.637 227.635 126.308 227.782 126.052 227.672C125.759 227.562 125.612 227.269 125.722 226.976C125.942 226.354 126.125 225.731 126.271 225.109C126.418 224.486 126.528 223.827 126.601 223.168C126.674 222.509 126.747 221.886 126.747 221.227C126.784 220.568 126.747 219.909 126.711 219.286C126.674 218.92 126.967 218.591 127.333 218.554H127.37C128.468 218.554 129.603 218.481 130.702 218.334C131.801 218.188 132.899 218.005 133.851 217.639C134.071 217.529 134.327 217.455 134.51 217.309C134.693 217.199 134.803 217.089 134.913 216.943C135.133 216.65 135.243 216.21 135.279 215.771C135.352 214.819 135.096 213.72 134.73 212.805V212.768C134.364 211.67 133.778 210.718 132.972 209.949C132.167 209.18 131.141 208.594 130.08 208.228C129.018 207.862 127.809 207.642 126.637 207.642C126.345 207.642 126.052 207.642 125.759 207.642C125.466 207.642 125.136 207.679 124.843 207.715C124.221 207.752 123.635 207.825 123.049 207.935C120.705 208.338 118.435 209.253 116.714 210.754C114.956 212.219 113.748 214.27 113.052 216.503C112.833 217.199 112.1 217.602 111.405 217.382C110.709 217.163 110.306 216.43 110.526 215.734C110.526 215.698 110.526 215.661 110.562 215.661Z" fill="black"/>
<path d="M185.372 143.195C185.372 143.195 183.688 147.04 182.26 148.028C180.832 149.017 176.511 141.693 176.511 141.693C176.511 141.693 177.426 141.034 181.161 142.755C184.896 144.403 185.372 143.195 185.372 143.195Z" fill="#AC4035"/>
<path d="M173.471 152.056C178.085 152.129 181.051 150.006 182.919 147.662C182.113 145.795 180.355 142.682 177.096 141.62C175.778 141.693 174.423 142.316 172.519 142.682C169.846 143.231 166.367 143.927 163.328 142.682C163.475 145.758 165.086 151.91 173.471 152.056Z" fill="#AC4035"/>
<path d="M184.933 143.488C182.955 144.989 179.403 146.417 173.288 145.978C168.418 145.612 165.525 144.623 163.841 143.707C164.39 143.671 164.976 143.634 165.525 143.561C170.359 143.195 173.618 142.316 176.987 142.279C179.147 142.243 181.491 142.646 183.907 143.268C184.237 143.341 184.603 143.414 184.933 143.488Z" fill="white"/>
<path d="M162.523 141.034C164.024 141.986 165.855 142.499 167.832 142.646C168.821 142.719 169.846 142.646 170.835 142.426C171.824 142.243 172.812 141.986 173.801 141.693L175.302 141.254C175.815 141.108 176.364 140.961 176.95 140.888C177.536 140.815 178.195 140.851 178.781 141.034C179.074 141.108 179.367 141.217 179.623 141.364L179.989 141.547C180.099 141.584 180.209 141.657 180.319 141.693C181.161 142.06 182.077 142.279 182.992 142.316C183.468 142.316 183.907 142.316 184.383 142.243C184.603 142.206 184.859 142.17 185.079 142.133C185.299 142.096 185.519 142.023 185.738 141.95L185.848 141.913C186.471 141.767 187.093 142.133 187.276 142.755C187.459 143.378 187.057 144 186.434 144.183C186.397 144.183 186.324 144.22 186.288 144.22C185.702 144.293 185.116 144.33 184.567 144.367C184.017 144.403 183.431 144.367 182.845 144.293C181.71 144.147 180.575 143.817 179.55 143.268C179.44 143.195 179.294 143.122 179.184 143.048L178.854 142.865C178.671 142.755 178.488 142.646 178.305 142.572C177.902 142.426 177.499 142.353 177.06 142.353C176.62 142.353 176.144 142.462 175.668 142.572L174.167 142.938C172.153 143.451 170.066 143.891 167.905 144.183C166.807 144.33 165.708 144.367 164.573 144.147C164.28 144.11 164.024 144.037 163.731 143.964C163.438 143.891 163.182 143.781 162.889 143.707C162.34 143.488 161.827 143.231 161.314 142.902C160.802 142.536 160.692 141.877 161.021 141.364C161.351 140.851 162.01 140.705 162.523 141.034Z" fill="black"/>
<path d="M163.914 142.645C164.244 145.099 165.269 147.479 167.027 148.98C168.821 150.482 171.238 151.068 173.691 151.104C176.145 151.141 178.525 150.482 180.502 149.017C182.479 147.552 184.017 145.465 185.116 143.158C185.189 143.048 185.299 142.975 185.445 143.048C185.555 143.085 185.592 143.231 185.592 143.341C184.933 145.904 183.578 148.394 181.454 150.225C180.392 151.141 179.147 151.873 177.829 152.349C176.511 152.825 175.083 153.045 173.691 153.045C172.3 153.008 170.908 152.935 169.553 152.496C168.198 152.093 166.88 151.397 165.818 150.408C164.72 149.42 163.951 148.175 163.438 146.857C162.926 145.538 162.706 144.147 162.742 142.755C162.742 142.426 163.035 142.169 163.328 142.169C163.621 142.133 163.878 142.353 163.914 142.645Z" fill="black"/>
<path d="M164.5 143.598C166.148 144.147 167.869 144.586 169.553 144.952C171.274 145.282 172.995 145.538 174.68 145.502C175.522 145.502 176.437 145.428 177.279 145.355C178.158 145.282 179.037 145.172 179.879 145.062C180.722 144.916 181.6 144.769 182.443 144.55C183.285 144.33 184.09 144.037 184.823 143.598C184.896 143.561 184.969 143.561 185.006 143.634C185.042 143.707 185.042 143.781 184.969 143.817C184.273 144.44 183.431 144.843 182.589 145.172C181.747 145.502 180.868 145.758 179.989 145.941C178.232 146.344 176.437 146.564 174.643 146.673C172.812 146.747 170.981 146.49 169.224 146.051C167.466 145.612 165.782 145.026 164.134 144.257C163.951 144.183 163.877 143.964 163.951 143.781C164.134 143.634 164.317 143.561 164.5 143.598Z" fill="black"/>
</svg>
